<svg width="201" height="188" viewBox="0 0 201 188" fill="none" xmlns="http://www.w3.org/2000/svg">
<path d="M49.2961 83.4061C42.3716 89.0619 41.041 99.0299 46.3134 105.875C50.9141 111.903 57.1115 114.058 64.2227 112.16C69.9794 110.625 72.4964 108.502 75.2329 102.784C82.8051 86.9799 62.9757 72.1388 49.2961 83.4061Z" fill="#6C6C6C"/>
<path d="M106.451 67.5219C105.334 69.4523 106.305 71.7323 108.354 72.2739C109.505 72.5108 120.093 70.0486 136.601 65.644C153.109 61.2394 163.516 58.1 164.397 57.321C166.05 55.7009 165.271 52.1001 163.205 51.8351C162.375 51.7845 149.44 54.9638 134.455 58.9618C114.392 64.315 107.009 66.5567 106.451 67.5219Z" fill="#6C6C6C"/>
<path d="M110.968 84.4534C109.851 86.3838 110.822 88.6639 112.871 89.2059C114.022 89.4419 124.61 86.9801 141.118 82.5755C157.627 78.171 168.034 75.0315 168.914 74.2525C170.568 72.6325 169.788 69.0317 167.722 68.7667C166.893 68.716 153.957 71.8953 138.973 75.8933C118.909 81.2465 111.527 83.4882 110.968 84.4534Z" fill="#6C6C6C"/>
<path d="M43.4313 121.245C38.708 126.314 37.7321 130.473 39.3926 138.736L40.6916 145.644L70.6151 137.479L100.516 129.229L98.7771 122.71C97.1111 116.807 96.5861 115.859 93.4421 113.252C89.1121 109.6 82.0459 107.587 80.3755 109.483C72.7009 118.785 62.8074 122.151 52.5122 118.912C49.9272 118.06 47.6018 117.502 47.2631 117.592C46.8398 117.705 45.1017 119.348 43.4313 121.245Z" fill="#6C6C6C"/>
<path d="M115.486 101.385C114.369 103.315 115.34 105.595 117.388 106.137C118.54 106.374 129.128 103.911 145.636 99.5069C162.144 95.1019 172.551 91.9629 173.432 91.1839C174.938 89.6939 174.644 87.2327 172.714 86.1154C170.891 85.0602 116.541 99.5619 115.486 101.385Z" fill="#6C6C6C"/>
<path d="M120.003 118.316C118.886 120.246 119.857 122.526 121.906 123.068C124.508 123.643 175.979 109.91 177.949 108.115C179.602 106.495 178.823 102.894 176.757 102.629C175.928 102.579 162.992 105.758 148.008 109.756C127.944 115.109 120.562 117.351 120.003 118.316Z" fill="#6C6C6C"/>
<path d="M128.736 2.17794C128.126 2.61264 113.634 13.5526 96.6021 26.5305L65.6253 50.1211L36.9265 57.7782C5.17998 66.2485 5.83468 65.9832 4.67848 72.1861C4.22728 74.5736 4.74698 77.8809 6.48618 84.3995L8.90308 93.4579L5.52268 96.0829C1.91088 98.8599 -0.137221 103.759 0.766279 107.146C1.03728 108.162 5.14698 114.048 9.85488 120.137L18.424 131.181L23.6753 148.824C28.5257 165.304 29.0564 166.613 31.6022 169.017C34.752 171.985 40.018 173.029 45.0974 171.673L48.3144 170.815L53.5417 177.491C60.0955 186.081 64.3175 188.309 70.4975 186.661C71.6827 186.344 82.4843 178.565 94.6231 169.341L116.633 152.587L154.728 142.423C196.803 131.197 196.549 131.265 199.02 124.892C200.042 122.262 199.782 120.608 196.693 108.011L193.242 94.0599L195.72 92.1289C198.807 89.7639 201.419 84.2604 200.821 81.3368C199.9 76.8669 198.963 75.3939 190.715 64.536L182.361 53.6159L179.266 42.0179C176.85 32.9596 175.653 29.8329 173.942 27.8408C171.3 24.737 166.706 23.1516 163.066 24.1229C161.542 24.5295 160.052 24.3829 159.64 23.8581C159.25 23.4179 155.756 18.8185 151.872 13.7789C147.966 8.65474 144.15 3.86904 143.286 3.01134C140.136 0.0429399 132.477 -0.45266 128.736 2.17794ZM137.598 7.52164C139.138 8.19874 151.823 24.13 152.32 25.9925C152.568 26.9237 91.3671 43.6157 87.3091 43.7009C85.6941 43.7688 88.8381 40.9351 100.514 32.016C108.957 25.592 119.414 17.5422 123.782 14.2003C132.033 7.73684 134.86 6.43834 137.598 7.52164ZM165.657 30.7768C166.831 31.0984 168.158 31.6513 168.632 32.0689C169.106 32.4865 174.911 52.8832 181.461 77.4338L193.365 122.048L191.841 123.815C190.464 125.452 181.79 127.948 114.91 145.792C73.5131 156.837 39.0519 165.669 38.4536 165.466C35.2702 164.411 34.4007 161.832 22.6778 117.895C12.3101 79.0369 11.079 73.743 11.948 72.2415C12.817 70.7401 20.8989 68.4024 88.2011 50.4454C143.398 35.7183 164.122 30.461 165.657 30.7768ZM12.6809 107.957L14.5557 114.983L11.2195 110.977C7.57848 106.507 6.85018 104.797 7.96748 102.867C9.76748 99.7569 10.8908 100.908 12.6809 107.957ZM194.093 80.5927C194.454 81.9473 192.903 85.9886 191.887 86.2596C191.463 86.3726 190.244 83.1613 189.222 78.9905L187.257 71.6253L190.593 75.6321C192.348 77.7935 193.957 80.0848 194.093 80.5927ZM98.5221 157.782C97.3991 159.351 69.8757 179.572 68.1826 180.024C65.3889 180.769 63.6052 179.522 59.0271 173.579L55.4256 168.918L77.0979 163.135C89.0341 159.951 98.6461 157.568 98.5221 157.782Z" fill="#6C6C6C"/>
</svg>
