<svg width="103" height="305" viewBox="0 0 103 305" fill="none" xmlns="http://www.w3.org/2000/svg">
<path d="M9.95748 1.38785C6.74871 4.90967 6.12261 9.05759 6.67044 23.4579C7.37481 40.2844 6.20087 54.6065 3.85299 58.5196C2.13121 61.5718 2.44426 65.798 4.63562 67.4415C5.73129 68.3024 5.73129 68.3024 4.94867 67.285C3.85299 65.798 3.38341 60.9457 4.2443 59.6153C4.71388 58.8326 5.10519 58.8326 5.96608 59.537C6.82697 60.2414 7.37481 60.2414 8.00091 59.6153C9.40964 58.2065 10.4271 58.5196 9.95748 60.2414C9.72269 61.024 9.95748 61.8849 10.5053 62.0414C11.1314 62.2762 11.1314 62.9806 10.4271 64.7806C9.95748 66.1893 9.87921 67.285 10.1923 67.285C10.5836 67.285 11.1314 68.0676 11.4445 69.0068C11.6793 70.0242 14.4184 74.3287 17.3924 78.7114C21.5404 84.8159 22.9491 87.4768 23.4969 90.8421C23.8882 93.19 24.7491 96.5553 25.3752 98.3553C26.0796 100.155 26.3926 102.19 26.1579 102.816C25.9231 103.442 26.3926 104.303 27.2535 104.773C30.3058 106.416 35.4711 114.321 35.8624 117.921C36.0972 119.878 36.4885 121.051 36.8016 120.582C37.7407 118.938 44.4713 125.747 45.567 129.347C46.5844 133.104 47.8366 135.139 48.9323 135.217C50.028 135.295 57.4629 147.348 59.576 152.513L61.2978 156.661L54.6455 163.079C50.9671 166.522 46.5844 170.357 45.0192 171.531C42.2017 173.566 41.9669 173.644 41.106 172.314C38.8364 169.105 36.8016 164.957 37.1929 164.331C37.4277 163.939 36.8798 163.47 36.0189 163.157C33.9059 162.452 32.1058 158.931 32.9667 156.896C33.2798 156.035 33.5928 154.626 33.5928 153.765C33.5928 152.904 33.045 153.609 32.4189 155.331C31.871 157.052 31.0101 159.009 30.6188 159.713C30.2275 160.418 30.1492 162.139 30.5406 163.626L31.1667 166.287L31.2449 162.844L31.3232 159.322L35.2363 165.192C37.4277 168.322 39.6973 171.766 40.4017 172.705C41.2625 173.957 41.4191 174.818 40.793 175.835C39.2277 178.809 40.1669 193.992 42.1234 197.749C42.6713 198.688 43.0626 200.801 43.0626 202.523C43.0626 204.166 43.5322 207.062 44.1583 209.019C47.6018 220.289 48.4627 224.202 48.854 230.854C49.0888 234.924 49.9497 241.654 50.8106 245.724C51.5932 249.794 52.5324 255.115 52.8454 257.62C53.3933 261.924 53.315 262.159 50.028 266.777C48.2279 269.359 46.8975 271.707 47.1322 272.02C47.4453 272.255 49.7149 272.646 52.2193 272.881C56.5238 273.194 56.9151 273.038 60.6717 270.22C62.863 268.577 64.8979 266.385 65.3674 265.446C65.9936 264.116 66.7762 263.724 69.0458 263.724C70.6893 263.724 72.0198 263.411 72.0198 263.098C72.0198 262.707 73.272 261.768 74.759 260.907C77.8112 259.263 77.9677 258.637 76.4025 254.724C75.072 251.672 74.9938 251.594 70.0632 252.924C68.1849 253.472 66.3849 253.628 66.0718 253.394C65.837 253.081 65.4457 250.733 65.2109 248.15L64.8196 243.376H68.4197H71.9415L72.4894 247.289C72.8024 249.481 73.1937 251.124 73.3502 250.889C73.5068 250.733 73.1155 245.489 72.4894 239.306C70.7676 224.123 70.3763 221.228 69.9849 221.619C69.6719 222.01 71.0024 237.898 71.6285 240.793C72.0198 242.437 71.785 242.593 68.5762 242.593C65.524 242.593 64.9761 242.359 64.2718 240.402C63.6457 238.759 63.5674 239.541 63.9587 243.767C64.1935 246.741 64.35 249.402 64.35 249.637C64.35 253.941 64.037 255.115 63.0978 255.115C61.5326 255.115 60.6717 247.759 61.063 237.898C61.2195 233.906 61.2978 233.75 62.0804 235.706C62.55 236.958 63.1761 237.898 63.4891 237.898C63.8022 237.898 63.0978 235.706 61.9239 232.967C58.8716 226.315 58.3238 222.323 59.7325 217.784C60.4369 215.671 61.1413 212.071 61.4543 209.567C61.8456 205.732 62.1587 205.106 63.8805 204.714C66.9327 203.932 67.4023 204.793 67.2458 210.349C67.0892 213.949 67.4805 216.454 68.3414 218.332C69.2023 220.054 69.5154 220.289 69.2023 219.115C68.8893 218.019 68.5762 214.654 68.4197 211.523C68.1066 205.34 68.8893 203.853 72.6459 202.992C77.3416 202.053 78.2808 201.271 78.2808 198.61C78.2808 195.323 75.7764 185.775 74.1329 182.566C73.3502 181.079 72.8024 178.183 72.8024 175.444C72.8024 170.905 72.6459 170.592 67.2458 163.079C64.1935 158.852 61.1413 154 60.5152 152.2C59.4977 149.383 58.089 146.878 53.8628 140.695C53.0802 139.521 52.4541 138.348 52.4541 138.113C52.4541 137.878 51.2019 136 49.7149 133.887C48.2279 131.852 46.9757 129.426 46.9757 128.721C46.9757 127.939 44.7061 125.043 41.8886 122.382C39.0712 119.721 36.8016 116.982 36.8016 116.434C36.8016 114.634 32.4189 107.669 29.8362 105.399C28.5057 104.225 27.4101 102.738 27.4101 102.112C27.4101 101.408 26.7057 98.9031 25.8448 96.477C24.9839 93.9726 24.2795 90.8421 24.2795 89.5116C24.2795 87.6333 22.636 84.5811 18.2533 78.0853C12.6967 70.0242 12.1488 68.8503 11.9923 65.0154C11.914 62.6675 11.4445 59.7718 10.9749 58.5979C10.2705 56.9543 10.2705 54.2151 10.8966 47.7976C11.6793 39.6583 11.914 38.8757 14.8098 34.6495C19.1925 28.1537 20.6012 23.5362 20.836 15.2403C20.9925 8.90106 20.7577 7.88365 18.9577 4.67488C17.862 2.71831 16.5315 0.918269 16.062 0.605218C14.575 -0.490459 11.2097 -0.020883 9.95748 1.38785ZM15.6707 6.24013C17.3924 9.68369 17.6272 13.5968 16.4533 20.9535C15.5141 26.3536 13.5576 32.0668 12.5401 32.0668C11.5227 32.0668 9.4879 25.1014 9.25311 20.5622C9.09659 18.2926 8.62701 16.1795 8.31396 15.8664C7.68786 15.2403 8.07917 20.797 9.01832 26.5884C9.40964 29.0928 9.40964 29.1711 8.54875 27.3711C8.07917 26.2754 7.6096 22.0492 7.45307 17.9795C7.29655 13.9099 7.37481 11.4837 7.53133 12.6577C7.76612 13.9099 8.2357 14.849 8.54875 14.849C8.94006 14.849 8.94006 13.362 8.54875 11.4837C7.76612 7.33581 7.76612 6.16187 8.62701 8.1967C9.25311 9.76195 9.33138 9.76195 9.33138 8.11843C9.40964 7.25755 9.95748 5.84882 10.5836 4.98793C12.1488 2.9531 12.0706 1.93568 10.4271 3.18789C9.17485 4.2053 9.09659 4.12704 10.114 2.9531C11.5227 1.07479 13.6358 2.327 15.6707 6.24013ZM18.7229 8.58801C18.7229 9.29237 18.4098 9.21411 18.0185 8.1967C17.6272 7.33581 17.3142 6.08361 17.3142 5.4575C17.3142 4.75314 17.6272 4.8314 18.0185 5.84882C18.4098 6.70971 18.7229 7.96191 18.7229 8.58801ZM19.349 18.1361C18.7229 23.4579 16.8446 29.7189 15.2793 31.6755C14.3402 32.9277 14.4184 32.3016 15.5924 28.9363C16.4533 26.5884 17.3142 23.2231 17.549 21.5014C18.4098 16.023 18.8794 14.0664 19.349 14.0664C19.5838 14.0664 19.5838 15.9447 19.349 18.1361ZM10.7401 33.9451L12.4619 35.7452L10.9749 39.8148C10.114 42.0062 9.40964 44.9019 9.40964 46.1541C9.40964 47.7193 9.01832 48.502 8.2357 48.502C7.29655 48.502 7.14002 47.9541 7.37481 46.3106C7.53133 45.1367 7.76612 41.4583 7.76612 38.093C7.84438 34.806 8.07917 32.0668 8.47049 32.0668C8.78354 32.0668 9.80095 32.9277 10.7401 33.9451ZM9.25311 53.5108C9.56616 56.7978 8.15744 59.1457 6.67044 57.8935C6.04434 57.3457 5.96608 56.25 6.59218 53.589C7.53133 49.4411 8.94006 49.3629 9.25311 53.5108ZM65.6022 162.139C71.1589 169.496 72.0198 171.687 72.098 179.592C72.1763 183.427 72.4111 185.775 72.7241 184.757C73.1155 183.27 73.5068 183.818 74.9938 188.279C76.0112 191.253 77.0286 195.323 77.2634 197.358C77.733 201.036 77.6547 201.114 75.6199 201.114C74.4459 201.114 72.8807 201.427 72.1763 201.819C71.3937 202.21 69.0458 202.836 66.9327 203.227L63.0196 203.932L63.2544 195.714C63.4109 191.175 64.037 185.696 64.6631 183.583C66.2283 178.027 65.9153 177.322 64.037 182.331C62.9413 185.462 62.4717 188.436 62.55 193.288C62.6283 196.966 62.1587 201.662 61.6108 203.853L60.5934 207.767L56.6803 207.845C54.5672 207.923 51.4367 208.393 49.7149 208.862C47.9931 209.332 46.3496 209.723 46.1148 209.723C45.3322 209.723 43.9235 203.462 44.3931 202.21C44.6278 201.584 44.2365 199.627 43.5322 197.905C42.8278 196.105 42.4365 194.071 42.6713 193.288C42.9061 192.505 42.5147 190.236 41.8104 188.201C40.9495 185.54 40.7147 183.192 41.106 179.983C41.6539 175.601 41.8104 175.288 46.4279 171.531C49.0888 169.34 53.5498 165.426 56.3672 162.844C59.1847 160.261 61.6891 158.148 61.9239 158.07C62.2369 158.07 63.8805 159.948 65.6022 162.139ZM60.2804 211.132C60.2804 213.323 58.2455 220.289 57.1499 221.854C56.8368 222.245 56.3672 223.341 56.0542 224.123C55.6629 225.376 55.7411 225.454 56.7586 224.593C57.776 223.732 57.9325 223.889 57.9325 225.689C57.9325 226.863 58.3238 228.584 58.8716 229.524C59.3412 230.463 59.8891 235.315 59.9673 240.324C60.2021 249.324 60.2021 249.402 58.2455 250.341C54.0194 252.22 52.6889 251.046 51.5932 244.002C51.2019 241.341 50.6541 238.211 50.4975 237.115C50.341 236.019 49.9497 232.341 49.7932 228.897C49.5584 225.376 48.6192 220.523 47.7583 218.019C45.4105 211.132 45.4887 210.74 50.341 209.88C52.5324 209.488 55.7411 209.097 57.3847 209.019C60.0456 208.94 60.2804 209.097 60.2804 211.132ZM60.9847 254.489C61.063 255.35 60.5152 255.898 59.576 255.898C58.7151 255.898 57.1499 256.994 56.0542 258.324L54.0194 260.75V258.481C54.0194 257.307 53.7063 255.115 53.315 253.785C52.6106 251.359 52.6106 251.281 54.802 251.672C55.9759 251.985 57.6194 251.75 58.4803 251.359C59.9673 250.498 60.9065 251.594 60.9847 254.489ZM75.6199 255.585C76.246 257.15 76.7155 258.481 76.559 258.637C74.759 260.046 68.811 262.942 67.6371 262.942C66.6979 262.942 65.524 261.846 64.5848 260.124C62.6283 256.524 63.6457 254.881 67.9501 254.255C69.7502 254.02 71.4719 253.628 71.7067 253.315C72.9589 252.063 74.5242 252.924 75.6199 255.585ZM62.6283 259.498C63.6457 262.081 63.6457 262.159 62.2369 262.159C60.5152 262.159 52.4541 267.794 52.4541 268.968C52.4541 269.516 51.7497 269.985 50.8889 269.985C49.7149 269.985 49.4801 269.672 49.8714 268.968C50.2628 268.498 51.3584 266.698 52.3758 265.055C53.315 263.49 54.4889 262.159 54.8803 262.159C55.2716 262.159 55.5846 261.689 55.5846 261.063C55.5846 257.463 61.3761 256.133 62.6283 259.498ZM62.6283 263.724C62.6283 264.116 62.4717 264.507 62.3152 264.507C62.0804 264.507 61.6891 264.116 61.4543 263.724C61.2195 263.255 61.3761 262.942 61.7674 262.942C62.2369 262.942 62.6283 263.255 62.6283 263.724ZM64.9761 264.429C64.9761 264.898 64.6631 265.446 64.1935 265.681C63.8022 265.916 63.4109 265.603 63.4109 264.977C63.4109 264.272 63.8022 263.724 64.1935 263.724C64.6631 263.724 64.9761 264.037 64.9761 264.429ZM60.2804 265.368C60.2804 265.759 60.6717 265.916 61.063 265.681C61.5326 265.368 61.4543 266.15 60.9065 267.403C59.7325 270.22 58.8716 271.159 58.2455 270.533C57.9325 270.22 58.3238 269.359 59.0282 268.498C59.8891 267.559 60.1239 266.855 59.576 266.464C58.4803 265.837 58.4803 264.507 59.4977 264.507C59.9673 264.507 60.2804 264.898 60.2804 265.368ZM58.089 268.342C56.3672 270.064 55.9759 269.829 57.1499 267.716C57.6194 266.777 58.3238 266.229 58.7151 266.464C59.1064 266.698 58.8716 267.559 58.089 268.342ZM54.802 268.42C54.0976 268.89 54.0194 269.203 54.5672 269.203C55.0368 269.203 55.4281 269.907 55.3498 270.768C55.1933 272.959 54.2541 272.725 53.8628 270.455C53.4715 268.577 54.6455 266.464 55.5064 267.324C55.7411 267.559 55.4281 268.029 54.802 268.42Z" fill="#CBDC3B"/>
<path d="M10.6619 10.6241C9.80098 12.8937 10.1923 16.9634 11.288 17.9808C11.9141 18.4503 13.2445 18.7634 14.262 18.6069C15.7489 18.4503 16.1403 17.8242 16.2968 15.4764C16.4533 13.9111 16.1403 11.8763 15.6707 10.9371C14.6533 9.05882 11.3662 8.82403 10.6619 10.6241ZM14.8098 11.2502C16.2968 12.972 15.0446 17.9808 13.2445 17.9808C11.3662 17.9808 10.5053 14.6155 11.6793 12.0328C12.6184 9.91971 13.4793 9.68492 14.8098 11.2502Z" fill="#CBDC3B"/>
<path d="M6.35739 69.0079C6.27913 70.2601 6.82697 71.9036 8.70527 76.2863C9.09659 77.1472 10.2705 80.8256 11.4445 84.4257C12.5401 88.104 14.4184 92.4867 15.5141 94.2085C16.6098 96.0085 18.0185 98.9825 18.4881 100.939C19.0359 102.896 19.5055 103.757 19.5055 102.896C19.5838 99.9217 18.2533 95.6172 16.6881 93.9737C15.3576 92.4867 11.6793 82.3908 10.5836 76.9124C10.3488 75.5037 9.40964 73.6254 8.70527 72.608C7.92265 71.5906 7.06176 70.1036 6.82697 69.2427C6.51392 67.9905 6.43566 67.9905 6.35739 69.0079Z" fill="#CBDC3B"/>
<path d="M19.5838 105.635C19.5838 106.261 20.1316 107.826 20.7577 109.078C21.5404 110.565 21.7751 112.287 21.4621 113.696C21.0708 115.652 20.836 115.809 19.7403 114.792C17.0011 112.522 10.6618 109.548 8.47049 109.548C1.66164 109.548 -2.56454 119.252 1.73991 124.887C4.94867 129.035 5.96609 129.818 9.80096 131.54C14.8098 133.731 20.2099 138.114 20.6012 140.305C20.9143 141.714 20.9925 141.714 21.0708 139.914C21.149 138.349 20.4447 137.253 18.4099 135.688L15.6707 133.653L18.1751 132.322C19.5838 131.618 21.3056 129.896 22.0882 128.487C22.7926 127 24.5143 124.574 25.9231 123.009C27.4101 121.444 27.8796 120.426 27.1753 120.739C25.6883 121.287 25.5318 120.661 26.6274 117.844C27.5666 115.339 26.8622 115.105 25.7665 117.531C25.1404 119.018 25.0622 118.705 25.3752 115.965C25.7665 112.052 25.3752 111.661 24.4361 115.183C23.9665 116.905 24.123 118.392 24.8274 119.722C25.61 121.366 25.61 121.835 24.4361 123.087C23.1839 124.496 23.1056 124.496 22.4795 122.305C22.1665 121.131 22.0099 118.079 22.2447 115.652C22.4795 113.226 22.323 110.096 21.7751 108.609C20.7577 105.635 19.5838 103.991 19.5838 105.635ZM14.575 112.757C19.349 115.418 20.9925 118 21.6969 123.479C22.0882 126.844 21.8534 127.47 19.6621 129.818C17.4707 132.166 16.9229 132.401 13.9489 132.009C7.06177 131.07 0.096389 123.322 1.1138 117.765C1.73991 114.478 5.88783 110.331 8.54876 110.331C9.56617 110.331 12.3054 111.426 14.575 112.757Z" fill="#CBDC3B"/>
<path d="M35.2365 135.296C35.2365 135.766 35.5495 136.314 36.0191 136.549C36.4887 136.783 36.5669 136.47 36.3321 135.844C35.7843 134.435 35.2365 134.201 35.2365 135.296Z" fill="#CBDC3B"/>
<path d="M13.401 138.74C12.8532 139.757 12.5401 141.949 12.7749 143.67C13.088 146.644 13.088 146.644 13.1662 143.044C13.3228 138.583 14.888 137.096 14.9663 141.401C14.9663 143.044 15.2793 145.079 15.5924 145.94C16.0619 146.957 16.2185 145.94 16.1402 143.044C15.9837 137.801 14.888 136.001 13.401 138.74Z" fill="#CBDC3B"/>
<path d="M16.9228 142.809C16.6097 143.749 16.9228 144.766 18.0185 145.783C19.0359 146.723 19.5055 147.74 19.1924 148.601C17.0793 154.001 17.0011 156.114 18.7228 159.871C19.8968 162.453 20.2881 164.488 19.975 166.132C19.5837 168.558 19.5837 168.558 20.6011 166.836C21.149 165.897 21.8533 165.349 22.1664 165.584C23.2621 166.758 22.636 165.036 20.2098 160.34L17.7054 155.644L19.1142 151.966C20.8359 147.505 21.3055 141.635 19.8185 143.67C18.9576 144.922 18.8011 144.844 18.175 143.201C17.5489 141.557 17.4706 141.557 16.9228 142.809Z" fill="#CBDC3B"/>
<path d="M41.8887 143.984C42.6713 144.844 43.454 145.549 43.6105 145.549C43.767 145.549 43.454 144.844 42.9061 143.984C42.3583 143.123 41.5756 142.418 41.1843 142.418C40.793 142.418 41.1061 143.123 41.8887 143.984Z" fill="#CBDC3B"/>
<path d="M13.7142 149.853C13.949 151.575 14.262 155.41 14.5751 158.462C14.8881 161.436 15.436 164.645 15.749 165.506C16.2186 166.523 16.2969 165.819 15.9838 163.549C15.2012 157.053 15.1229 152.514 15.8273 152.123C16.2186 151.888 16.0621 151.262 15.3577 150.792C14.7316 150.244 14.0272 149.149 13.7925 148.288C13.5577 147.427 13.5577 148.131 13.7142 149.853Z" fill="#CBDC3B"/>
<path d="M48.4627 152.201C49.7932 154.862 50.8888 156.192 50.8888 155.253C50.8888 154.705 50.1845 153.532 49.2453 152.514C47.9931 151.027 47.8366 150.949 48.4627 152.201Z" fill="#CBDC3B"/>
<path d="M29.445 170.123C29.1319 172.001 28.4276 174.114 27.8797 174.897C26.3145 177.01 23.1057 175.836 20.8361 172.314C19.036 169.419 16.4534 166.758 16.4534 167.853C16.4534 169.027 20.8361 174.427 23.184 175.993C25.7666 177.793 27.7232 177.558 28.8971 175.367C29.758 173.88 30.8537 166.679 30.3059 166.679C30.1493 166.679 29.6798 168.245 29.445 170.123Z" fill="#CBDC3B"/>
<path d="M43.8452 274.525C43.8452 275.072 57.6977 282.038 79.4547 292.368C97.6899 301.056 103.716 303.717 102.934 302.934C101.76 301.76 43.8452 273.977 43.8452 274.525Z" fill="#CBDC3B"/>
<path d="M36.8015 275.307C36.8015 275.699 40.4799 277.733 45.0191 279.925L53.1584 283.916L49.0888 284.386C45.1756 284.934 42.2799 285.951 43.0625 286.655C43.2973 286.812 44.7843 287.438 46.4278 288.064C48.9322 289.081 50.2627 289.081 55.0367 288.299L60.6716 287.281L73.585 293.621C93.1506 303.169 97.9247 305.36 98.3942 304.891C98.629 304.656 98.0029 304.108 96.9855 303.717C95.9681 303.325 87.3592 299.256 77.8894 294.638L60.6716 286.264L54.5671 287.125C49.7931 287.751 47.9931 287.751 46.7409 287.047C45.1756 286.107 45.4104 286.029 49.0888 285.638C54.1758 285.09 55.9759 283.681 53.0801 282.586C51.9845 282.194 47.8366 280.238 43.9234 278.281C40.0103 276.246 36.8015 274.994 36.8015 275.307Z" fill="#CBDC3B"/>
</svg>
