<svg width="103" height="300" viewBox="0 0 103 300" fill="none" xmlns="http://www.w3.org/2000/svg">
<path d="M18.0068 0.563273C16.4647 1.40438 16.3246 4.90899 17.7965 6.10056C20.1796 8.13323 23.6141 4.8389 22.1422 1.82493C21.1609 -0.0675566 19.7591 -0.48811 18.0068 0.563273ZM21.0908 2.31558C21.8618 3.85761 21.7917 4.27816 20.6002 5.11927C18.2871 6.80148 16.1844 3.43705 18.2871 1.33429C19.5488 0.0726278 20.1796 0.282905 21.0908 2.31558Z" fill="#CBDC3B"/>
<path d="M3.98823 127.149C3.28731 127.289 2.72657 127.92 2.72657 128.41C2.72657 128.971 2.09574 129.602 1.25463 129.812C-0.848134 130.513 -0.147212 132.616 2.16583 132.476C3.49758 132.406 3.91814 132.616 3.70786 133.317C3.42749 134.018 4.1985 134.228 7.07228 134.228C11.9086 134.158 13.4507 134.999 15.2731 138.714C18.0067 144.251 22.7028 150.139 26.4177 152.592C28.3803 153.924 30.9036 156.307 32.0251 157.849C33.1466 159.391 35.8101 162.195 37.9829 164.017C41.3474 166.891 41.838 167.592 41.3474 168.924C40.9969 169.765 40.5063 172.148 40.2259 174.251C39.9455 176.283 39.0343 179.648 38.1231 181.61C35.6699 187.148 33.5671 193.526 32.0952 199.554C31.3943 202.568 29.642 207.124 28.2401 209.647C24.8056 215.885 24.7355 221.142 27.8196 227.31C30.5532 232.637 35.9503 238.455 39.4549 239.927C40.9268 240.488 43.0997 241.679 44.1511 242.52C46.1136 243.922 46.1837 244.203 46.1837 249.6C46.1837 254.226 46.5342 255.978 48.0061 259.132C50.5995 264.81 51.9313 270.978 51.0902 273.922C50.6696 275.183 50.3893 277.146 50.3893 278.197C50.3893 279.319 50.2491 280.16 50.1089 280.16C49.9687 280.16 45.4828 278.127 40.2259 275.604C34.8989 273.081 30.2728 271.118 29.8522 271.258C29.5018 271.328 35.4596 274.342 43.0997 277.917C50.7397 281.422 57.1181 284.225 57.2583 284.015C57.3985 283.875 56.0667 283.034 54.1742 282.193C50.179 280.3 50.8799 279.88 56.9779 280.721C60.6227 281.211 61.8844 281.071 63.2862 280.23C65.6694 278.828 65.5993 277.496 63.076 275.324C59.6414 272.24 57.9592 266.492 57.4686 255.277C56.9779 245.184 57.2583 243.712 59.5012 245.324C63.2161 247.988 64.8983 249.95 65.7395 252.824C66.2301 254.576 67.4217 257.38 68.3329 259.132C69.2441 260.885 70.9263 265.16 72.0478 268.735C73.73 273.922 74.0103 275.604 73.4496 277.496C72.6786 280.3 72.6786 280.16 73.4496 280.16C73.8001 280.16 74.6412 278.618 75.272 276.796C77.1645 271.609 80.1084 270.487 81.8607 274.272C82.4915 275.814 82.4214 276.095 81.0196 276.585C80.1785 276.936 78.9168 277.847 78.2159 278.618C77.5149 279.389 75.7626 280.23 74.4309 280.51C70.9964 281.141 72.7487 282.263 77.1645 282.263C83.2625 282.263 87.3279 279.038 84.3139 276.585C82.912 275.394 78.9168 266.772 77.8654 262.637C77.4449 260.885 76.5337 257.1 75.9028 254.226C74.4309 247.637 70.2254 238.385 67.0011 234.74C66.4404 234.109 64.8283 231.376 63.4264 228.712C62.0246 226.049 60.062 222.965 59.1508 221.843C58.1695 220.722 57.3985 219.04 57.3985 218.058C57.3985 217.147 57.1181 216.376 56.6976 216.376C55.6462 216.376 55.9265 208.736 57.048 205.862C57.5387 204.53 58.0293 203.9 58.0293 204.53C58.0994 205.161 58.5901 206.072 59.0807 206.563C59.6414 206.984 60.4825 208.526 60.9732 209.928C61.8844 212.801 64.4778 215.675 66.16 215.675C66.7908 215.675 67.8422 215.395 68.5431 215.044C70.2254 214.063 79.828 204.18 82.9821 200.045C84.384 198.222 86.7671 196.119 88.2391 195.348C90.7624 194.087 92.795 191.774 92.0941 191.003C91.3932 190.372 91.253 183.923 91.7437 178.316C92.3745 171.587 93.2857 168.783 97.5613 159.601C103.659 146.704 104.29 142.219 101.136 135.84C99.3136 132.265 96.1595 129.462 93.8464 129.462C93.2857 129.462 93.7763 129.952 94.8978 130.583C96.0894 131.144 97.4912 132.125 98.052 132.756C98.6127 133.387 98.1221 133.247 96.9305 132.406C93.5661 130.093 91.5334 129.882 87.9587 131.494C84.0335 133.177 83.7532 132.826 87.398 130.864C89.8512 129.462 89.8512 129.392 87.9587 129.812C83.5429 130.723 80.3887 134.298 79.4074 139.345C78.7766 143.13 78.9168 149.929 79.7579 152.172C80.8093 154.905 81.37 154.134 80.5289 151.12C80.1084 149.859 79.828 148.106 79.8981 147.335C79.9682 145.303 81.1597 150.209 81.5102 154.064C81.6504 155.816 83.2625 160.653 85.0148 164.788C88.2391 172.148 88.3091 172.358 87.8185 177.685C87.1877 185.395 84.1737 189.881 75.9729 195.348C74.0804 196.68 72.1178 198.222 71.6272 198.783C70.9263 199.764 70.7861 199.624 70.3655 197.802C70.0852 196.61 69.5945 194.788 69.2441 193.666C68.8936 192.545 68.8235 190.021 69.0338 187.989C69.6646 182.592 68.4731 179.718 65.1086 178.176C63.5666 177.475 62.3049 176.704 62.3049 176.494C62.375 174.952 64.5479 169.064 65.3189 168.573C66.7207 167.732 66.4404 156.938 64.8983 154.134C61.604 148.106 52.6322 149.158 50.2491 155.886C49.7584 157.148 49.0575 158.059 48.637 157.919C48.2865 157.709 46.6744 157.218 45.1323 156.728C41.838 155.676 37.282 151.891 33.8475 147.405C32.5158 145.653 31.0438 144.181 30.6233 144.181C30.2027 144.181 30.4831 144.882 31.2541 145.723C32.0251 146.634 33.0765 148.036 33.497 148.877C33.9176 149.718 35.6699 151.401 37.3521 152.662C39.2446 153.994 40.296 155.256 40.0857 155.816C39.8754 156.517 40.2259 156.798 41.3474 156.798C42.2586 156.798 44.2912 157.288 45.9034 157.919C48.7071 158.971 48.9173 159.251 49.3379 162.475C49.6883 165.209 50.4594 166.611 52.8425 169.204L55.8565 172.568L59.1508 171.657C60.9732 171.167 62.6554 170.886 62.7956 171.096C63.0059 171.237 62.5853 172.498 61.9545 173.9C60.833 176.283 60.9732 179.017 62.0947 178.316C63.2161 177.615 65.8796 179.297 67.2114 181.47C68.8936 184.204 68.9637 186.587 67.5619 189.951C66.7207 192.054 66.7207 192.475 67.4918 192.755C68.5431 193.176 70.2954 199.764 69.4543 200.115C67.8422 200.675 64.4077 203.129 64.4077 203.759C64.4077 204.39 66.5105 203.199 72.8188 198.853C80.599 193.526 82.141 192.264 84.1737 189.391C86.6269 185.956 87.0475 185.746 89.6409 187.358C90.6222 187.919 90.8325 188.269 90.2016 188.059C89.5708 187.849 88.8699 188.199 88.5895 188.83C88.0989 190.232 89.711 191.423 90.482 190.232C90.8325 189.671 91.0427 189.951 91.0427 190.862C91.0427 191.914 89.9914 193.035 87.6783 194.507C85.8559 195.699 83.1924 198.222 81.7906 200.045C78.5663 204.25 69.1039 213.713 67.2114 214.554C65.389 215.395 62.3049 212.661 62.3049 210.348C62.3049 209.437 62.0246 208.526 61.604 208.315C59.8517 207.264 58.52 202.568 58.52 197.661C58.52 194.367 58.2396 192.965 57.8891 193.666C57.1882 194.928 57.1181 201.306 57.7489 202.358C57.9592 202.778 57.8891 203.059 57.6088 203.059C57.2583 203.059 56.4172 204.671 55.7163 206.633C54.735 209.297 54.1742 210.068 53.263 209.717C52.7023 209.507 49.6182 208.946 46.5342 208.596C39.8754 207.755 35.74 206.844 33.3569 205.792L31.6046 205.021L33.2868 198.573C35.3194 191.213 37.282 185.255 39.525 180.279C40.3661 178.316 41.4175 174.461 41.9081 171.657L42.6791 166.47L40.7866 164.998C37.5624 162.615 31.4644 156.167 31.4644 155.256C31.4644 154.765 29.8522 153.433 27.8897 152.382C23.9645 150.139 19.0581 144.321 16.3945 138.854C14.432 134.719 11.1376 132.616 7.21247 133.107C4.47887 133.457 4.47887 133.457 5.95081 131.985C7.21247 130.723 6.79192 130.583 3.56767 131.494C0.623802 132.406 0.693894 131.354 3.84804 129.532C7.91339 127.079 11.5582 127.569 16.4646 131.004C18.7777 132.686 22.3524 135.91 24.4551 138.223C26.4878 140.536 28.7308 142.709 29.2915 143.06C30.4831 143.831 23.1935 135.069 21.9318 134.228C21.4412 133.948 19.759 132.546 18.0768 131.144C16.3945 129.742 14.3619 128.34 13.5909 128.06C11.6283 127.359 5.46016 126.728 3.98823 127.149ZM95.6688 132.756C96.6501 133.387 98.052 135.139 98.8931 136.751C101.837 142.499 98.9632 154.835 93.6362 159.321C90.9026 161.564 89.4306 161.424 86.2765 158.55C82.6317 155.256 80.9495 149.788 81.4401 142.849C81.8607 136.892 82.9821 134.929 86.9774 133.036C90.7624 131.354 93.4259 131.214 95.6688 132.756ZM82.141 136.12C81.5102 137.452 80.8794 138.434 80.6691 138.293C80.3887 137.943 82.4915 133.667 82.9821 133.667C83.1924 133.667 82.7719 134.789 82.141 136.12ZM80.5289 143.13C80.5289 144.461 80.2485 145.583 79.9682 145.583C79.6878 145.583 79.5476 144.461 79.6878 143.13C79.828 141.798 80.1084 140.676 80.2485 140.676C80.3887 140.676 80.5289 141.798 80.5289 143.13ZM102.257 144.181C102.257 144.532 101.907 144.882 101.486 144.882C101.136 144.882 100.996 144.532 101.206 144.181C101.416 143.761 101.767 143.48 101.977 143.48C102.117 143.48 102.257 143.761 102.257 144.181ZM101.206 148.317C100.926 149.508 100.505 150.63 100.225 150.84C99.8744 150.98 100.015 149.929 100.365 148.387C101.276 145.162 101.907 145.162 101.206 148.317ZM62.7956 152.873C65.5292 155.396 66.2301 164.648 64.0572 168.012C63.146 169.484 59.9218 170.816 57.3985 170.816C55.9265 170.816 54.735 170.045 52.9126 167.942C50.2491 164.788 49.6883 162.335 50.5995 157.849C51.9313 151.471 58.52 148.737 62.7956 152.873ZM98.823 154.765C98.4725 155.676 97.2109 157.779 96.0193 159.391C94.0567 162.125 93.5661 162.405 90.8325 162.405C89.1503 162.405 86.9073 161.844 85.6456 161.003C83.4027 159.671 82.5616 158.2 84.0335 158.2C84.4541 158.2 84.7344 158.48 84.7344 158.9C84.7344 159.251 85.8559 160.092 87.2578 160.723C89.2904 161.704 90.2016 161.774 92.3745 161.073C94.6174 160.442 95.3885 159.671 97.0707 156.517C99.1033 152.592 100.015 151.751 98.823 154.765ZM88.94 168.083L90.1315 171.868L91.3231 169.134C91.9539 167.662 92.4446 166.26 92.4446 165.98C92.4446 165.769 93.0754 164.788 93.8464 163.807C94.8978 162.405 94.6875 163.456 92.9352 168.573C91.6736 172.218 90.3418 175.162 89.9914 175.232C89.6409 175.302 89.1503 174.251 88.8699 172.919C88.6596 171.587 87.6082 168.643 86.6269 166.47C84.384 161.704 84.2438 160.933 86.2064 162.896C87.0475 163.667 88.2391 166.05 88.94 168.083ZM91.253 163.527C92.0941 163.807 92.1642 164.298 91.5334 165.98C91.1128 167.101 90.5521 168.012 90.3418 168.012C90.0615 168.012 89.3605 166.891 88.7297 165.559C87.6082 163.176 87.6082 163.106 88.8699 163.106C89.6409 163.106 90.6923 163.316 91.253 163.527ZM90.6222 181.961C90.2016 185.746 90.0615 186.096 88.94 185.535C87.8886 184.975 87.7484 184.414 88.3792 181.891C89.0101 179.017 90.2016 176.774 90.8325 177.405C90.9727 177.545 90.9026 179.578 90.6222 181.961ZM43.7305 208.946C56.7677 210.909 55.506 210.208 55.0153 215.184C54.735 217.918 54.8051 219.04 55.2256 218.128C55.7163 216.937 55.9265 217.077 56.5574 219.53C57.048 221.072 58.0293 222.754 58.8003 223.245C59.5713 223.666 61.3236 226.399 62.7255 229.203C64.1273 231.937 65.8796 235.021 66.5806 235.932C67.3516 236.843 67.9123 237.894 67.9123 238.175C67.9123 238.525 66.5105 239.436 64.7582 240.277C63.0059 241.119 61.604 242.1 61.604 242.45C61.604 242.801 61.8143 243.011 62.1648 242.871C62.4451 242.731 63.7769 242.03 65.2488 241.329C66.6507 240.628 68.1927 240.207 68.7534 240.348C70.1553 240.908 73.2393 247.637 74.9215 253.735C76.6738 260.464 76.6738 260.534 74.6412 260.534C73.6599 260.534 72.6786 260.815 72.4683 261.235C72.258 261.586 71.7674 261.936 71.487 261.936C70.5057 261.936 66.4404 253.104 66.0198 250.16C65.8095 248.478 65.3189 247.427 64.8283 247.637C63.7769 247.988 59.9919 244.623 60.5526 243.782C61.1134 242.801 55.9966 244.343 53.5434 245.815L51.3706 247.147L49.5482 243.852C48.4968 242.03 46.7445 239.647 45.5529 238.525C44.3613 237.334 43.38 236.072 43.38 235.721C43.38 235.301 42.2586 233.549 40.9268 231.866C39.5951 230.184 38.4736 228.502 38.4736 228.081C38.4736 227.661 38.2633 227.591 38.053 227.801C37.4923 228.292 41.9782 235.511 45.0623 239.226C47.0949 241.749 47.0248 243.291 44.9221 241.749C44.2912 241.329 42.1885 240.277 40.3661 239.436C33.7073 236.422 26.5579 225.909 26.5579 218.969C26.5579 216.586 27.2588 214.273 29.0111 210.769L31.4644 205.932L33.7073 206.844C34.969 207.404 39.525 208.315 43.7305 208.946ZM53.7537 247.006C55.8565 245.815 55.9265 245.815 56.3471 247.147C56.5574 247.918 56.6976 251.212 56.5574 254.506C56.3471 260.324 56.3471 260.464 54.5948 260.394C53.6135 260.394 52.2117 260.604 51.3706 260.885C50.1089 261.305 49.6883 260.815 48.2865 257.45C47.165 254.646 46.8847 252.754 47.165 250.581C47.3753 248.899 47.5155 246.656 47.5155 245.464L47.5856 243.432L49.6182 245.815L51.6509 248.268L53.7537 247.006ZM56.9078 263.899C57.1181 265.37 57.5387 267.193 57.819 268.034C58.2396 269.506 58.0293 269.646 55.3658 269.646C52.8425 269.646 52.492 269.436 52.0715 267.684C51.8612 266.632 51.5107 265.23 51.3005 264.529C50.8098 262.707 52.9126 260.674 54.8752 261.025C56.1368 261.305 56.6275 261.936 56.9078 263.899ZM78.0757 265.931C79.5476 269.997 79.5476 270.347 78.4261 270.698C77.7252 270.908 76.6738 271.679 75.9729 272.45C74.7113 273.852 74.6412 273.782 73.029 268.525C71.4169 263.548 71.4169 263.128 72.5384 262.357C75.0617 260.464 76.3935 261.375 78.0757 265.931ZM58.1695 271.048C58.8704 271.469 59.5012 272.169 59.5012 272.59C59.5012 273.081 60.4825 274.482 61.7442 275.744C63.847 277.917 63.9171 278.127 62.7956 279.249C61.604 280.44 61.3937 280.37 58.1695 278.548C56.277 277.496 54.1042 276.655 53.263 276.655C51.5808 276.655 51.4406 275.954 52.6322 272.66C53.5434 270.207 55.4359 269.646 58.1695 271.048ZM54.8752 278.478C55.0854 279.038 55.0153 279.319 54.5948 279.109C54.1742 278.898 53.8939 278.408 53.8939 277.987C53.8939 277.006 54.3845 277.216 54.8752 278.478ZM83.8933 278.758C84.2438 279.669 84.1036 279.669 83.1223 278.828C81.9308 277.847 79.828 278.197 79.828 279.389C79.828 279.739 80.3887 280.23 81.0897 280.37C81.7205 280.581 81.2298 280.721 80.0383 280.791L77.7252 280.861L79.2673 279.109C80.9495 277.146 83.3326 277.006 83.8933 278.758Z" fill="#CBDC3B"/>
<path d="M90.9025 129.252C91.3931 129.463 92.024 129.393 92.2342 129.182C92.5146 128.972 92.0941 128.762 91.3231 128.832C90.552 128.832 90.3418 129.042 90.9025 129.252Z" fill="#CBDC3B"/>
<path d="M47.9361 169.485C47.1651 170.607 47.866 170.817 48.8473 169.696C49.3379 169.135 49.408 168.714 49.0576 168.714C48.7071 168.714 48.1464 169.065 47.9361 169.485Z" fill="#CBDC3B"/>
<path d="M55.0155 175.653C54.8052 175.934 55.436 176.074 56.3472 175.864C57.3285 175.723 58.0995 175.443 58.0995 175.303C58.0995 174.742 55.3659 175.022 55.0155 175.653Z" fill="#CBDC3B"/>
<path d="M46.6042 182.522C46.1837 183.504 46.2538 183.574 46.9547 182.943C47.4453 182.452 47.6556 181.891 47.4453 181.681C47.235 181.471 46.8145 181.821 46.6042 182.522Z" fill="#CBDC3B"/>
<path d="M45.2023 185.186C44.5715 187.008 44.7117 187.429 45.5528 186.027C45.9734 185.326 46.1836 184.555 45.9734 184.415C45.8332 184.204 45.4827 184.555 45.2023 185.186Z" fill="#CBDC3B"/>
<path d="M43.8005 188.69C43.5902 189.321 43.3799 190.232 43.45 190.653C43.45 191.143 43.8005 190.723 44.151 189.812C44.5014 188.9 44.7117 187.989 44.5014 187.849C44.3612 187.709 44.0809 188.059 43.8005 188.69Z" fill="#CBDC3B"/>
<path d="M42.1882 199.905C42.1882 201.447 42.3283 202.007 42.4685 201.096C42.6087 200.255 42.6087 198.993 42.4685 198.292C42.2582 197.662 42.1181 198.363 42.1882 199.905Z" fill="#CBDC3B"/>
<path d="M26.4876 273.782L30.2726 275.744L27.9596 276.165C26.6979 276.445 24.9456 276.655 24.0344 276.655C21.441 276.655 22.0017 277.777 25.3662 279.319C27.8194 280.44 29.1511 280.581 33.2165 280.16C37.4921 279.739 38.6136 279.88 41.9079 281.352C47.0246 283.524 47.3751 283.314 42.6789 280.861C39.0341 278.898 38.4734 278.828 32.866 279.179C28.0998 279.529 26.6278 279.389 25.5063 278.478C24.1746 277.426 24.2447 277.426 26.768 277.286C28.1698 277.216 29.7119 277.076 30.0623 277.006C30.4829 276.936 31.1137 276.796 31.5343 276.725C31.8847 276.725 32.0249 276.305 31.8146 275.954C31.2539 275.043 24.8054 271.749 23.6139 271.749C23.1232 271.819 24.3849 272.73 26.4876 273.782Z" fill="#CBDC3B"/>
<path d="M50.3892 284.786C50.3892 285.277 67.3515 293.477 68.2627 293.407C68.9636 293.407 65.3889 291.515 55.8564 287.029C52.8424 285.557 50.3892 284.576 50.3892 284.786Z" fill="#CBDC3B"/>
<path d="M71.0666 291.024C78.4262 294.669 84.8747 297.613 85.4355 297.613C85.9962 297.613 84.1037 296.491 81.2299 295.09C68.8236 289.062 58.5901 284.365 58.1696 284.436C57.9593 284.436 63.777 287.45 71.0666 291.024Z" fill="#CBDC3B"/>
<path d="M74.2205 296.281C77.0943 297.753 79.8279 299.015 80.1784 299.015C80.5989 299.015 78.4962 297.753 75.6224 296.281C72.7486 294.809 70.0851 293.548 69.6645 293.548C69.3141 293.548 71.3467 294.809 74.2205 296.281Z" fill="#CBDC3B"/>
</svg>
