<svg width="103" height="190" viewBox="0 0 103 190" fill="none" xmlns="http://www.w3.org/2000/svg">
<path d="M68.8869 1.00066C64.7165 2.788 63.6739 4.72428 63.8228 10.0863C63.8973 12.6928 64.5675 16.193 65.3123 17.8314C66.8762 21.4061 68.1422 21.704 66.5783 18.1293C65.0888 14.5546 65.2378 13.512 67.0251 15.5972C67.7698 16.5654 68.4401 17.0867 68.5146 16.7143C68.5146 16.4164 69.8551 17.3101 71.4935 18.7995C73.3553 20.4379 75.2171 21.4805 76.4086 21.4805C78.047 21.4805 78.3449 21.7784 78.047 23.2679C77.7491 24.9063 77.9726 25.1297 81.1004 25.5765C85.4943 26.2468 90.186 28.6299 90.6328 30.4917C90.8563 31.2364 91.5265 31.9067 92.0478 31.9067C92.6436 31.9067 94.0586 33.3216 95.3246 35.0345C97.8567 38.5347 97.7822 36.7474 97.0375 63.4085C96.814 71.5259 96.3672 77.9306 96.0693 77.5582C95.7714 77.2603 95.1012 75.3985 94.5799 73.4622C94.0586 71.5259 93.1649 69.5152 92.6436 69.0683C91.1542 67.8023 91.3776 63.2595 93.4628 53.1313C95.4735 43.4499 95.6225 41.5881 94.7288 41.5881C94.3565 41.5881 93.6862 44.8648 93.1649 48.8119C92.6436 52.8334 91.7499 57.5251 91.1542 59.1635C90.4839 61.0998 90.2605 63.4829 90.5584 65.6426L91.0052 68.9939L87.4305 70.111C82.7388 71.6749 75.9618 71.8983 70.6743 70.7067L66.4293 69.8131L65.2378 64.8234C64.5675 62.068 64.0462 58.5678 64.0462 57.0038C64.0462 54.0994 60.695 39.4284 59.8758 38.6836C59.5779 38.4602 59.5779 39.205 59.8013 40.471C60.0247 41.6625 60.9184 45.9075 61.6631 49.78C63.6739 59.6848 65.0888 71.0791 64.4186 72.1962C64.0462 72.792 63.227 71.9728 62.11 69.8131C60.7695 67.3555 60.3971 65.2703 60.3226 61.2488C60.3226 58.3443 59.8013 54.2484 59.1311 52.0887C58.5353 49.929 58.1629 47.9927 58.3119 47.8437C58.4608 47.6203 58.014 45.3862 57.3437 42.8541C55.184 35.1834 56.3756 29.0022 59.6524 30.0449C60.4716 30.3427 61.0673 30.1938 61.0673 29.747C61.0673 28.4809 67.0251 25.7999 68.9614 26.1723C69.9295 26.3212 70.7487 26.1723 70.7487 25.8744C70.7487 25.502 70.2274 25.2042 69.6317 25.2042C69.0359 25.2042 68.3656 24.385 68.0677 23.3424C67.472 20.9592 66.3549 20.8848 66.8017 23.2679C67.1741 24.9063 66.7272 25.2042 62.6313 26.7681C60.0992 27.6617 57.3437 29.2257 56.599 30.2683C54.9606 32.279 54.6627 36.524 55.7798 41.737C56.1522 43.5243 57.1203 47.9182 57.9395 51.6418C58.8332 55.5889 59.28 59.7593 59.0566 61.8445C58.7587 64.5255 59.1311 66.3129 60.6205 69.5897C61.6631 71.8983 62.5568 74.2069 62.5568 74.6538C62.5568 75.3985 58.8332 81.0584 51.237 91.7079C49.7476 93.8676 48.3326 96.3997 48.0347 97.4423C47.7368 98.4849 46.6197 101.687 45.4282 104.517C43.7898 108.688 43.2685 111.518 42.8216 118.295C42.5237 122.986 42.1514 127.082 42.0024 127.38C41.779 127.678 41.6301 130.657 41.6301 133.934C41.6301 139.892 39.9917 145.7 38.0554 146.966C37.6086 147.19 37.3851 147.786 37.683 148.158C37.9065 148.605 37.3851 148.679 36.2681 148.456C35.2255 148.158 34.1828 148.307 33.9594 148.754C33.6615 149.275 31.9487 149.35 29.4166 149.126C26.3632 148.754 24.9483 148.977 23.1609 150.02C21.8949 150.764 20.8523 151.658 20.8523 151.956C20.8523 153.967 33.8105 160.52 41.1832 162.233C47.9602 163.797 49.3007 162.084 49.2262 151.882C49.1518 147.339 49.6731 144.956 51.7583 138.849C53.2477 134.753 54.5883 131.253 54.7372 131.029C54.9606 130.88 55.1096 131.997 55.1096 133.636C55.1096 137.508 57.3437 141.083 60.2481 141.753C64.1207 142.573 68.8125 139.594 73.8766 132.966C75.9618 130.21 76.781 128.274 77.4512 124.178C77.9726 121.273 78.196 118.295 77.9726 117.475C77.7491 116.582 77.9726 116.06 78.6428 116.06C79.2386 116.06 79.6854 116.582 79.6854 117.252C79.6854 117.922 81.0259 121.124 82.6643 124.401C84.3027 127.753 85.6432 130.88 85.6432 131.402C85.6432 131.923 86.6858 135.498 87.8774 139.296C89.1434 143.094 90.335 147.786 90.5584 149.722L90.9307 153.297H87.9518C84.2282 153.297 81.1749 154.637 81.1749 156.275C81.1749 157.914 81.9196 158.51 88.2497 161.861C91.1542 163.425 94.3565 165.138 95.4735 165.808C97.0375 166.702 98.1546 166.85 100.314 166.255C103.07 165.584 103.144 165.51 102.921 162.606C102.772 160.967 102.176 158.584 101.655 157.393C100.016 153.743 98.229 143.764 97.7822 136.168C97.3354 129.093 97.1864 128.274 94.5054 123.508C92.867 120.454 92.5691 116.06 94.133 116.06C94.8778 116.06 95.2501 114.05 95.697 107.719C95.9949 103.102 96.3672 98.7083 96.5906 97.8147C96.814 96.9955 97.1119 92.3037 97.1864 87.3885C97.3354 82.4734 97.6332 75.3985 97.9311 71.7494C98.7503 60.8019 98.8248 41.4391 98.1546 38.3113C96.7396 32.428 86.9092 24.4594 81.0259 24.4594C79.1641 24.4594 79.2386 20.8848 81.2493 18.7995C82.9622 17.0122 84.0793 12.9162 84.1538 8.74578C84.1538 2.26669 75.7384 -2.0527 68.8869 1.00066ZM79.3875 2.93694C82.8133 5.02216 83.6325 7.40528 82.5898 12.5439C81.4728 18.3527 78.5683 21.4061 75.4405 20.0656C74.3234 19.6187 72.685 18.2038 71.8658 16.9377C70.8977 15.5228 69.9295 14.8525 69.0359 15.0759C66.5783 15.6717 63.5994 7.25633 65.3867 4.6498C65.6846 4.20297 66.7272 3.38377 67.6954 2.86247C72.3127 0.479354 75.2916 0.479354 79.3875 2.93694ZM92.7181 71.1536C93.016 71.8983 93.9841 75.1751 94.8778 78.4519C96.2927 83.6649 96.4417 85.4523 95.9204 92.8995C95.6225 97.5168 95.0267 104.368 94.5799 108.166L93.6862 114.943H83.558H73.4297L72.6105 110.252L71.7169 105.56L74.6213 101.389C78.6428 95.7294 77.6747 95.5805 73.4297 101.24C71.4935 103.772 68.5146 107.124 66.8017 108.613L63.6739 111.369L61.3652 109.805C57.5671 107.198 49.1518 99.0807 49.1518 97.9636C49.1518 96.6231 52.8009 90.9632 56.8969 85.8991C58.7587 83.5904 60.3226 81.3563 60.3226 80.835C60.3226 80.2392 60.546 80.3137 60.9929 80.9839C61.5142 81.8031 61.8865 81.2073 62.5568 78.8987C63.0036 77.1858 64.3441 74.7282 65.4612 73.3877L67.6209 71.0791L72.0148 71.9728C78.1215 73.2388 83.1111 73.0154 87.505 71.4515C92.3457 69.6641 92.1223 69.6641 92.7181 71.1536ZM50.1199 101.315C51.0136 101.762 52.3541 102.953 53.1733 103.921C53.918 104.89 55.5564 106.677 56.8224 107.868C58.9821 109.879 59.0566 110.028 57.9395 111.741C57.2693 112.635 56.0777 114.199 55.184 115.092C54.1414 116.209 53.918 116.88 54.4393 117.252C55.9288 118.146 54.7372 127.231 52.0562 134.902L49.5241 142.275L46.9921 141.828C42.2258 141.083 42.0769 140.562 43.045 128.199C43.5663 122.167 43.9387 115.688 43.9387 113.826C43.9387 111.89 44.609 109.134 45.3537 107.571C46.1729 106.007 47.0665 103.772 47.29 102.581C47.8113 100.123 47.8857 100.123 50.1199 101.315ZM71.4935 109.358C71.4935 110.773 71.1211 111.592 70.4509 111.592C68.4401 111.592 60.6205 118.89 58.6098 122.614C55.7053 128.05 56.1522 128.274 59.5034 123.135C61.8865 119.263 65.2378 116.06 70.004 112.784C70.5998 112.411 69.0359 114.124 66.5038 116.656C60.2481 122.837 58.3863 125.518 57.1948 129.763L56.0777 133.487L56.0032 124.848C55.8543 116.656 55.9288 116.06 57.7906 113.23C59.6524 110.4 59.8758 110.252 61.3652 111.22C63.6739 112.858 64.9399 112.56 67.6954 109.73C70.7487 106.528 71.4935 106.453 71.4935 109.358ZM73.3553 116.06C76.0363 116.06 75.7384 122.614 72.7595 128.721C70.2274 133.934 64.4931 139.147 61.2908 139.147C57.4927 139.147 56.599 131.7 59.7268 126.412C63.3015 120.38 71.5679 112.709 72.0892 115.018C72.2382 115.614 72.7595 116.06 73.3553 116.06ZM76.4831 120.678C76.3342 121.646 76.1852 120.901 76.1852 119.039C76.1852 117.177 76.3342 116.433 76.4831 117.326C76.6321 118.295 76.6321 119.784 76.4831 120.678ZM91.8989 117.699C92.1223 118.667 92.3457 120.38 92.3457 121.571C92.3457 122.837 93.0904 124.55 93.9841 125.518C95.3246 127.008 95.7714 128.721 96.4417 135.498L97.2609 143.69L94.9522 144.285C93.7607 144.583 92.2712 144.658 91.6755 144.36C90.6328 143.839 87.7284 136.391 86.4624 130.955C85.5687 127.38 84.0048 123.21 83.3346 122.763C82.8877 122.465 80.4301 117.029 80.4301 116.358C80.4301 116.209 82.8877 116.06 85.9411 116.06C91.0052 116.06 91.452 116.209 91.8989 117.699ZM57.6416 137.359C57.865 137.955 57.7906 138.253 57.3437 138.03C56.8969 137.806 56.599 137.285 56.599 136.838C56.599 135.796 57.1203 136.019 57.6416 137.359ZM64.791 139.892C64.791 140.264 64.0462 140.636 63.1526 140.636C61.7376 140.636 61.6631 140.487 62.5568 139.892C63.9718 138.923 64.791 138.923 64.791 139.892ZM48.4815 143.168C49.0028 142.87 49.1518 143.168 48.9284 144.062C48.7049 144.881 48.3326 146.743 48.0347 148.232C47.5879 150.988 47.5134 151.062 44.3111 151.062C41.8535 151.062 40.8109 150.69 39.9917 149.573C39.0235 148.232 39.098 147.711 40.2896 145.254C41.1088 143.764 41.7045 142.126 41.7045 141.679C41.7045 141.083 42.6727 141.232 44.6834 142.2C46.3963 143.019 48.0347 143.466 48.4815 143.168ZM98.6759 150.69C98.9737 152.701 98.9737 154.19 98.6759 153.892C98.378 153.594 97.3354 153.743 96.2927 154.116C92.7925 155.456 91.7499 154.414 91.452 149.647C91.3031 146.073 91.452 145.402 92.3457 145.626C92.9415 145.775 94.282 145.626 95.3246 145.254C97.4843 144.434 97.7822 144.956 98.6759 150.69ZM35.8957 150.243C37.5341 149.573 38.2043 149.722 40.1406 151.137C41.8535 152.403 42.9706 152.701 45.3537 152.328L48.407 151.956V154.786C48.407 158.733 47.0665 161.488 45.1303 161.488C43.194 161.414 37.3851 160.222 35.3744 159.329C30.3103 157.318 22.3417 153.073 22.3417 152.477C22.3417 150.913 26.8846 149.796 30.4592 150.467C32.6934 150.839 34.5552 150.839 35.8957 150.243ZM92.4202 155.233C93.4628 156.201 94.0586 156.201 95.3246 155.531C97.7077 154.265 100.24 155.605 101.282 158.807C102.623 162.829 102.027 164.765 99.5695 165.063C97.4843 165.287 91.601 163.425 90.8563 162.233C90.6328 161.935 88.6966 160.818 86.6113 159.701C82.5154 157.69 81.6962 156.126 84.0048 154.86C85.9411 153.669 90.9307 153.892 92.4202 155.233Z" fill="#CBDC3B"/>
<path d="M79.0896 52.0142C79.0896 53.0568 79.2385 53.4292 79.462 52.9079C79.6109 52.4611 79.6109 51.5674 79.462 51.0461C79.2385 50.5993 79.0896 50.9716 79.0896 52.0142Z" fill="#CBDC3B"/>
<path d="M0 151.733C0 152.18 2.08522 153.52 4.69176 154.712C9.16009 156.722 13.4795 158.808 33.4381 168.266C38.5022 170.723 42.8216 172.585 42.9705 172.436C43.045 172.287 33.8849 167.67 22.5651 162.233C11.1708 156.797 1.41497 151.956 0.96814 151.584C0.297889 151.137 0 151.137 0 151.733Z" fill="#CBDC3B"/>
<path d="M1.71263 157.541C-1.11731 158.063 -0.149174 159.105 2.82972 158.733C5.13836 158.435 7.447 159.254 17.5008 164.095C24.0543 167.223 31.2781 170.649 33.5123 171.691C35.7465 172.734 41.7787 175.564 46.8429 178.021C51.907 180.404 56.1519 182.266 56.3008 182.117C56.7477 181.67 5.21283 157.02 4.24469 157.095C3.72339 157.169 2.6063 157.393 1.71263 157.541Z" fill="#CBDC3B"/>
<path d="M53.62 177.649C59.1309 180.404 66.5037 184.054 70.0039 185.617C73.5041 187.256 76.7064 188.745 77.0787 188.894C77.5256 189.118 77.5256 188.969 77.0787 188.447C76.334 187.628 47.2153 173.702 44.6833 172.957C44.0875 172.734 48.109 174.893 53.62 177.649Z" fill="#CBDC3B"/>
<path d="M64.3441 186.064C68.3656 188.15 71.7913 189.714 72.0147 189.565C72.3871 189.118 61.2907 183.458 58.7586 182.788C57.7905 182.49 60.2481 183.979 64.3441 186.064Z" fill="#CBDC3B"/>
</svg>
