<svg width="103" height="325" viewBox="0 0 103 325" fill="none" xmlns="http://www.w3.org/2000/svg">
<path d="M15.302 1.35096C13.6708 3.1375 13.5931 4.92405 15.2243 6.47756C16.9332 8.2641 19.8849 8.03107 21.283 6.0115C22.8365 3.75891 22.8365 3.37053 20.9723 1.50632C19.0304 -0.435576 16.9332 -0.513252 15.302 1.35096ZM20.9723 3.29286C20.9723 3.83659 20.5063 4.92405 19.9625 5.7008C19.1081 6.86594 18.642 7.02129 17.2439 6.24453C15.2243 5.15707 14.9913 2.67145 16.8555 1.58399C18.409 0.729559 20.9723 1.81702 20.9723 3.29286Z" fill="#CBDC3B"/>
<path d="M35.8086 130.759C35.964 130.914 37.6728 131.225 39.537 131.458C41.7896 131.768 42.6441 131.613 41.8673 131.147C40.8575 130.526 35.0319 130.059 35.8086 130.759Z" fill="#CBDC3B"/>
<path d="M31.4586 134.099C29.4391 137.128 28.973 140.08 30.2158 142.021C30.6819 142.798 30.8372 142.021 30.5265 139.924C30.2158 137.749 30.3712 136.662 30.9926 136.662C31.4586 136.662 31.847 136.118 31.847 135.497C31.847 134.875 32.6238 133.71 33.5559 132.778C34.488 131.924 34.8764 131.225 34.3326 131.225C33.8666 131.225 32.5461 132.545 31.4586 134.099Z" fill="#CBDC3B"/>
<path d="M44.1198 132.855C45.2072 134.331 48.9357 145.517 48.9357 147.381C48.9357 149.323 44.8189 153.595 42.3332 154.216C38.0611 155.304 33.2452 151.42 31.7693 145.75C31.1479 143.419 31.1479 143.419 31.4586 146.293C31.614 147.924 32.5461 150.099 33.4782 151.109C35.4201 153.206 35.5755 153.129 28.973 153.284C25.3999 153.362 23.5357 153.828 21.9822 154.993C19.2636 157.013 16.5449 161.751 16.0012 165.634C15.5351 168.353 10.4862 176.276 9.16573 176.276C8.85503 176.276 8.54432 175.655 8.54432 174.878C8.54432 173.014 7.06849 171.616 5.04892 171.616C3.1847 171.616 0 175.499 0 177.752C0 178.684 2.33027 181.558 5.67032 184.743L11.263 190.18L13.5932 188.393C14.8361 187.384 16.6226 185.364 17.477 183.811C18.3315 182.335 20.4287 178.606 22.1376 175.577C25.4776 169.751 26.4097 168.897 26.4097 172.004C26.4097 173.014 26.8758 175.266 27.4972 176.82C28.1186 178.451 28.8177 181.17 29.1284 182.878C29.6721 186.374 29.5168 185.908 31.381 191.967L32.7015 196.472H39.6923C45.2072 196.472 48.0036 196.006 53.0525 194.374C59.1889 192.355 59.8879 192.122 61.1308 191.889C61.4415 191.889 61.2861 191.423 60.82 190.957C60.1986 190.335 59.2665 190.491 57.48 191.423C53.3632 193.52 48.0812 194.918 42.2556 195.384C36.1969 195.85 32.6238 194.918 32.6238 192.821C32.6238 192.044 31.9247 189.326 31.0703 186.84C29.1284 181.014 29.1284 180.393 31.2256 182.179L32.9345 183.655L31.4586 181.325C27.2642 174.8 26.4874 172.082 27.9632 169.285C28.6623 167.965 28.5846 167.887 26.4874 168.586C24.9339 169.13 23.6911 170.606 22.2152 173.557C21.0501 175.81 18.7198 179.538 17.011 181.791C15.3798 184.044 13.9816 186.141 13.9816 186.452C13.9816 186.84 13.2825 187.461 12.5058 187.927C10.9523 188.704 8.9327 187.306 6.0587 183.5C5.51497 182.723 4.11681 181.48 2.95168 180.704C1.00978 179.461 -0.155351 176.276 1.39816 176.276C1.70886 176.276 2.33027 175.499 2.71865 174.567C3.80611 172.315 6.99081 171.849 6.99081 173.946C6.99081 174.878 6.44708 176.431 5.748 177.441C4.34984 179.616 5.12659 180.082 6.68011 177.985C7.61222 176.897 7.84524 176.82 8.46665 177.752C9.08805 178.684 9.47643 178.606 10.7969 176.975C11.6514 175.965 12.3504 174.878 12.4281 174.567C12.4281 174.256 13.5156 172.781 14.8361 171.227C16.2342 169.674 17.0886 168.275 16.9333 168.042C16.1565 167.343 17.9431 161.285 19.5743 158.954C21.5938 156.08 27.3418 153.439 30.0605 154.139C33.9443 155.071 43.6537 155.381 44.6635 154.527C45.4403 153.905 45.8286 153.905 46.217 154.605C46.5277 155.071 46.2947 155.77 45.751 156.158C45.0519 156.546 46.217 156.779 48.9357 156.779C51.2659 156.779 55.9265 156.857 59.2665 157.013C62.5289 157.168 65.2476 156.935 65.2476 156.624C65.2476 156.236 63.0726 156.08 60.4317 156.158C54.2176 156.313 48.0812 155.381 46.7608 153.983C46.1393 153.362 46.0617 152.973 46.5277 152.973C46.9938 152.973 47.3822 152.507 47.3822 151.886C47.3822 151.342 47.9259 150.41 48.5473 149.866C49.1687 149.323 49.7124 148.08 49.7124 147.07C49.7124 143.963 46.4501 134.797 44.8189 133.166C43.8868 132.312 43.5761 132.156 44.1198 132.855Z" fill="#CBDC3B"/>
<path d="M68.0437 157.944C69.4419 158.565 70.6847 159.42 70.9954 159.808C71.2284 160.274 73.3257 160.43 75.9666 160.197C83.2681 159.497 85.8314 161.75 81.9477 165.401C80.3941 166.877 80.0058 166.954 80.0058 165.945C80.0058 165.245 79.3067 164.313 78.4523 163.847C76.4327 162.76 76.5104 163.459 78.5299 165.478C79.3844 166.333 79.9281 167.265 79.6951 167.576C79.3844 167.809 78.6853 167.343 77.9862 166.488C76.8987 165.09 76.8211 165.09 77.6755 166.799C78.2192 167.809 78.3746 168.819 78.1415 169.052C77.9085 169.285 77.5201 168.896 77.2094 168.197C76.9764 167.498 76.355 166.954 75.889 166.954C75.3452 166.954 75.3452 167.265 75.9666 167.886C77.2871 169.207 77.1318 170.838 75.7336 170.838C75.1122 170.838 74.5685 171.46 74.5685 172.236C74.5685 172.935 73.7917 174.023 72.8596 174.644C71.2284 175.654 71.1507 175.654 72.1605 174.489C72.8596 173.557 72.9373 173.168 72.3159 173.168C71.7721 173.168 71.8498 172.469 72.7043 171.226C73.4033 170.139 74.3354 169.518 74.8792 169.751C75.3452 169.984 75.0345 169.673 74.2578 168.974C72.9373 167.964 72.9373 167.576 73.8694 166.411C74.4908 165.634 75.3452 164.779 75.7336 164.469C76.1997 164.08 76.1997 163.847 75.6559 163.847C74.4131 163.847 72.2382 166.488 72.2382 168.042C72.2382 168.741 71.6945 169.518 71.0731 169.751C70.4517 170.061 69.9079 170.527 69.9079 170.993C69.9079 171.382 70.2963 171.46 70.6847 171.226C71.1507 170.993 71.4614 170.838 71.4614 170.993C71.3838 172.935 64.3153 187.461 62.3734 189.636C61.3636 190.723 61.4413 190.956 62.5287 191.655C63.6939 192.277 63.6939 192.432 62.6841 192.82C61.3636 193.286 52.8193 205.87 52.8193 207.268C52.8193 207.734 52.1202 209.521 51.3434 211.074C50.489 212.705 49.6346 215.657 49.3239 217.754C48.7801 220.939 48.9355 221.483 49.8676 221.172C50.489 220.861 51.0327 221.172 51.0327 221.716C51.0327 223.114 48.6248 222.725 48.0034 221.172C47.382 219.696 49.3239 210.763 50.7997 208.511C51.3434 207.656 52.3532 205.404 53.13 203.54C53.8291 201.675 55.6933 198.568 57.2468 196.704C58.8003 194.84 59.8101 193.131 59.5771 192.898C59.111 192.432 54.2951 198.646 52.897 201.52C49.9453 207.423 47.848 213.016 47.149 216.9C46.3722 221.017 46.4499 221.483 47.9257 223.036C48.8578 223.891 50.1006 224.434 50.722 224.201C53.13 223.269 61.8297 208.511 63.7715 202.064C64.9367 198.025 65.7911 198.646 66.8009 204.472C67.267 206.88 68.1214 209.831 68.7428 210.996C69.3642 212.239 69.9079 215.191 69.9079 217.677C69.9079 220.084 70.2186 222.725 70.6847 223.502C71.8498 225.599 73.8694 233.755 73.481 234.454C73.0926 234.998 71.1507 235.387 62.3734 236.552C61.0529 236.707 58.9557 237.251 57.8682 237.639C56.004 238.338 55.771 238.183 54.6835 235.62C53.9844 234.066 53.4407 232.124 53.363 231.347C53.2077 229.173 52.0425 229.561 52.0425 231.736C52.0425 233.988 50.7997 234.532 45.9838 234.532C41.634 234.532 38.8377 233.833 38.8377 232.823C38.8377 232.435 38.1386 231.192 37.3618 230.105C35.4976 227.774 33.1673 220.007 33.7887 218.376C34.0218 217.754 33.478 214.958 32.5459 212.239C30.9924 207.579 30.9924 207.113 32.1575 202.53C33.478 197.403 33.245 195.617 31.7692 199.267C30.2157 203.151 30.0603 208.588 31.2254 212.55C31.9245 214.57 32.4683 217.832 32.5459 219.618C32.7013 223.347 34.4101 228.318 36.6627 231.58C37.4395 232.668 38.0609 233.988 38.0609 234.532C38.0609 234.998 38.3716 235.231 38.76 234.921C39.226 234.688 39.7698 235.775 40.0805 237.406C40.3912 239.037 41.5563 242.455 42.7214 245.018C45.0517 250.223 46.6052 255.971 46.6052 259.311C46.6052 261.641 47.7704 265.447 50.3337 271.04C53.8291 278.885 56.1593 286.42 56.3924 290.847C56.9361 298.692 57.0914 299.003 60.8199 299.081C62.6064 299.158 65.2474 299.236 66.6455 299.391C68.0437 299.469 69.2865 299.314 69.5195 299.081C69.8303 298.459 66.6455 290.07 65.7134 289.138C65.4804 288.905 65.2474 287.662 65.2474 286.497C65.2474 285.332 64.9367 284.167 64.5483 283.934C63.7715 283.39 60.4315 271.117 58.7226 262.107C58.0235 258.689 57.3245 252.242 57.0914 247.815C56.6254 239.736 56.9361 238.494 59.4994 238.416C60.5092 238.416 64.4706 244.397 64.4706 245.95C64.4706 247.038 68.5098 256.592 74.7238 270.263C78.2192 277.875 79.0737 281.837 79.0737 289.915L78.996 297.838L84.1226 298.071L89.1715 298.304L89.7152 294.187C90.3366 289.371 89.9483 286.963 88.1617 283.546C87.4626 282.147 86.2198 278.419 85.4431 275.312C84.5886 272.127 83.5788 268.865 83.1905 268.088C82.7244 267.234 81.87 264.049 81.1709 260.864C80.4718 257.68 79.3844 253.796 78.763 252.165C78.1415 250.533 77.4425 247.892 77.2094 246.339C76.9764 244.785 76.2773 241.601 75.6559 239.348C75.0345 237.095 74.7238 234.921 74.9568 234.532C75.3452 233.833 74.3354 230.027 71.6945 222.648C71.1507 221.094 70.6847 218.22 70.6847 216.434C70.6847 214.57 69.9856 211.152 69.1312 208.666C68.2767 206.258 67.5777 203.54 67.5777 202.607C67.5777 201.753 67.0339 199.811 66.4125 198.491C65.2474 196.083 65.3251 195.617 67.5 189.636C71.2284 179.615 73.6364 175.499 79.3067 169.673C82.1807 166.644 84.6663 163.537 84.8217 162.682C85.1324 160.585 81.4039 158.876 76.122 158.798C73.7917 158.721 71.0731 158.332 70.141 157.789C69.2088 157.245 67.8107 156.856 67.0339 156.856C66.1795 156.934 66.4902 157.323 68.0437 157.944ZM69.6749 181.091C68.5874 183.344 67.1893 186.529 66.4902 188.082C65.8688 189.713 64.9367 191.034 64.4706 191.034C63.3832 191.034 63.3055 191.034 67.5777 183.033C71.3838 175.732 72.7043 174.489 69.6749 181.091ZM64.2376 195.85C64.0046 196.393 63.8492 196.005 63.8492 194.918C63.8492 193.83 64.0046 193.442 64.2376 193.908C64.393 194.452 64.393 195.384 64.2376 195.85ZM60.8975 202.141C57.4021 211.152 51.4211 220.939 50.1783 219.696C49.6346 219.23 53.2853 208.588 55.6933 203.773C56.7807 201.52 58.8003 198.335 60.1208 196.782C62.1404 194.296 62.6064 194.063 62.7618 195.228C62.9171 196.083 62.1404 199.19 60.8975 202.141ZM62.6064 201.986C61.9073 203.462 61.4413 204.239 61.3636 203.695C61.3636 202.53 63.0725 198.724 63.4608 199.034C63.6162 199.19 63.2278 200.51 62.6064 201.986ZM59.111 210.608C57.7905 213.327 55.771 216.589 54.6835 217.832C52.9746 219.851 53.0523 219.618 55.1495 215.89C56.47 213.56 58.3343 210.142 59.1887 208.278C60.0431 206.414 60.8975 205.093 61.1306 205.248C61.3636 205.481 60.4315 207.889 59.111 210.608ZM53.9844 237.018C55.0719 239.27 57.0914 255.349 56.3924 256.048C56.237 256.204 56.5477 257.99 57.1691 259.932C57.7905 261.874 58.4896 265.059 58.7226 267.078C58.9557 269.02 59.4994 271.428 59.8878 272.438C61.0529 275.39 60.7422 276.244 58.4896 276.632C57.2468 276.865 55.6933 277.254 54.9942 277.564C54.0621 278.031 53.6737 277.798 53.7514 276.71C53.7514 275.933 52.7416 272.982 51.4211 270.185C48.7025 264.515 46.9936 257.835 47.615 255.427C47.848 254.65 47.6927 253.951 47.2266 253.951C46.8383 253.951 46.6052 253.174 46.7606 252.165C46.8383 251.155 46.4499 249.524 45.7508 248.436C44.508 246.494 41.1679 237.484 41.1679 236.008C41.1679 235.542 41.634 235.309 42.1777 235.542C42.9545 235.853 51.9648 235.076 52.5863 234.61C52.6639 234.61 53.2853 235.697 53.9844 237.018ZM74.4908 238.571C74.8792 239.969 75.5006 243.076 75.7336 245.407C76.0443 247.737 76.6657 250.378 77.1318 251.232C77.5201 252.009 78.8406 256.437 80.0834 260.942C81.2486 265.447 82.4914 269.719 82.7244 270.418C83.1128 271.428 82.8798 271.816 81.87 271.816C81.0155 271.816 79.6951 272.05 78.763 272.283C77.3648 272.671 76.5104 271.273 71.2284 259.621C67.966 252.398 65.2474 246.028 65.2474 245.484C65.2474 244.941 64.3153 242.999 63.2278 241.057L61.2083 237.639L63.8492 237.562C65.2474 237.484 67.267 237.173 68.3544 236.862C72.3935 235.542 73.6364 235.93 74.4908 238.571ZM84.4333 276.322C85.7538 280.283 85.3654 281.914 83.1905 281.914C82.336 281.914 81.3263 282.458 80.9379 283.079C80.4718 283.934 80.0058 282.846 79.3067 279.273C78.1415 273.603 78.5299 272.438 81.3263 272.749C82.8798 272.904 83.5012 273.681 84.4333 276.322ZM61.985 280.594C63.2278 284.012 63.1501 284.4 61.5966 284.167C60.8199 284.012 59.4994 284.322 58.5673 284.866C57.0914 285.643 56.8584 285.487 56.004 282.613C54.8388 278.807 55.3049 278.031 58.5673 278.031C60.6645 278.031 61.2083 278.419 61.985 280.594ZM87.3073 284.4C88.7831 286.42 88.9385 288.051 87.618 286.73C85.8314 284.944 83.4235 285.643 82.1807 288.284L80.9379 290.847V287.895C81.0155 286.186 81.4816 284.711 82.103 284.478C82.6467 284.245 82.8798 283.779 82.6467 283.39C81.7146 281.837 86.2198 282.769 87.3073 284.4ZM64.2376 286.264C64.4706 286.963 64.2376 287.818 63.6939 288.128C62.9171 288.594 63.0725 288.905 64.2376 289.527C65.0144 289.993 66.1018 291.624 66.5679 293.177C67.3446 295.741 67.3446 295.974 66.1795 295.43C64.4706 294.653 60.5868 294.653 58.8003 295.43C57.5575 296.051 57.4021 295.663 57.6352 291.546C57.8682 287.585 58.1012 286.886 59.8101 286.031C62.4511 284.711 63.6162 284.788 64.2376 286.264ZM87.7733 288.517C87.7733 288.672 87.5403 289.371 87.2296 290.07C86.8412 291.235 86.6082 291.158 85.6761 289.604C85.0547 288.594 84.744 288.284 84.8993 288.905C86.2198 293.41 86.2975 293.876 85.5984 292.944C85.0547 292.168 84.744 292.556 84.4333 294.265C84.1226 295.585 83.4235 296.673 82.8021 296.673C81.9477 296.673 82.0253 296.129 83.1905 293.799C83.9672 292.168 84.4333 290.303 84.2003 289.527C83.5788 287.429 84.511 286.42 86.2975 287.352C87.0743 287.818 87.7733 288.284 87.7733 288.517ZM82.1807 292.867C81.7146 294.109 81.2486 295.042 81.0932 294.886C80.7048 294.498 82.103 290.459 82.6467 290.459C82.8798 290.459 82.6467 291.546 82.1807 292.867ZM87.9287 294.498C87.4626 294.964 87.385 294.498 87.618 293.022C88.0064 291.391 88.1617 291.235 88.3947 292.323C88.5501 293.1 88.3947 294.032 87.9287 294.498ZM63.6939 296.75C63.6939 297.838 62.3734 297.527 61.9073 296.362C61.5966 295.585 61.8297 295.352 62.6064 295.663C63.1501 295.896 63.6939 296.362 63.6939 296.75ZM85.8314 295.896C86.0645 296.284 85.9091 296.673 85.5207 296.673C85.0547 296.673 84.6663 296.284 84.6663 295.896C84.6663 295.43 84.8217 295.119 84.977 295.119C85.21 295.119 85.5984 295.43 85.8314 295.896Z" fill="#CBDC3B"/>
<path d="M41.3232 167.732C41.3232 169.208 41.4786 169.829 41.7116 169.053C41.867 168.354 41.867 167.111 41.7116 166.334C41.4786 165.635 41.3232 166.256 41.3232 167.732Z" fill="#CBDC3B"/>
<path d="M65.7135 172.781C63.7716 174.257 65.0144 174.257 67.5777 172.781C68.6652 172.16 69.0535 171.694 68.3545 171.694C67.733 171.694 66.4902 172.16 65.7135 172.781Z" fill="#CBDC3B"/>
<path d="M59.8101 174.723C58.9556 175.266 58.9556 175.499 59.6547 175.499C60.8199 175.499 59.7324 177.907 57.1691 180.937C56.0816 182.18 56.004 182.49 56.9361 181.791C58.1012 180.859 58.2566 181.014 58.2566 183.189C58.2566 184.51 58.5673 185.597 58.9556 185.597C59.344 185.597 59.8878 186.452 60.1208 187.539C60.4315 188.627 60.8975 189.481 61.2859 189.481C61.6743 189.481 61.5189 188.161 60.8975 186.529C59.577 182.879 59.577 181.558 60.7422 178.84C61.2082 177.674 61.6743 176.354 61.6743 176.043C61.752 175.732 62.2957 175.111 62.9171 174.723C63.8492 174.101 63.7715 173.946 62.5287 173.946C61.6743 173.946 60.4315 174.334 59.8101 174.723Z" fill="#CBDC3B"/>
<path d="M42.877 179.383C42.877 180.471 43.0323 180.859 43.2653 180.315C43.4207 179.849 43.4207 178.917 43.2653 178.374C43.0323 177.907 42.877 178.296 42.877 179.383Z" fill="#CBDC3B"/>
<path d="M41.9448 293.488C41.9448 294.187 51.1882 298.537 51.6543 298.071C51.8873 297.916 49.7124 296.673 46.9937 295.275C44.1974 293.954 41.9448 293.1 41.9448 293.488Z" fill="#CBDC3B"/>
<path d="M34.9541 294.342C34.9541 294.886 36.7406 295.818 41.7896 297.915C46.0617 299.78 44.5082 298.459 39.6146 296.051C37.0513 294.808 34.9541 294.109 34.9541 294.342Z" fill="#CBDC3B"/>
<path d="M52.8193 298.537C52.8193 298.848 64.3153 304.518 69.1312 306.537C74.2578 308.712 70.9954 306.77 62.2181 302.498C53.5184 298.226 52.8193 297.915 52.8193 298.537Z" fill="#CBDC3B"/>
<path d="M41.4011 299.547C36.8959 299.857 35.6531 301.333 38.3718 303.197C39.8476 304.13 41.1681 304.207 45.8287 303.586C52.2757 302.654 51.1883 302.265 71.85 312.13C93.7545 322.539 98.2597 324.636 99.0365 324.636C100.279 324.558 96.2402 322.539 75.3454 312.829C64.4708 307.703 54.7614 303.042 53.8292 302.498C52.3534 301.489 51.1883 301.489 46.217 302.265C41.9449 302.887 40.1583 302.964 39.5369 302.343C38.9155 301.722 39.6146 301.333 42.2556 300.945C44.1975 300.634 45.8287 300.09 45.8287 299.702C45.8287 299.314 45.751 299.081 45.6733 299.158C45.5179 299.236 43.6537 299.391 41.4011 299.547Z" fill="#CBDC3B"/>
<path d="M77.6757 310.654C80.8604 312.285 83.8898 313.684 84.2781 313.684C84.7442 313.684 82.4139 312.285 79.2292 310.654C76.0445 309.023 73.0928 307.625 72.6268 307.625C72.2384 307.625 74.491 309.023 77.6757 310.654Z" fill="#CBDC3B"/>
<path d="M88.5501 315.703C90.492 316.713 92.4339 317.567 92.8223 317.567C93.2884 317.567 92.0455 316.713 90.1037 315.703C88.1618 314.693 86.2975 313.839 85.8315 313.839C85.4431 313.839 86.6083 314.693 88.5501 315.703Z" fill="#CBDC3B"/>
<path d="M97.8713 319.975C100.202 321.218 102.532 322.228 102.92 322.228C103.386 322.228 101.755 321.218 99.4248 319.975C97.0945 318.733 94.8419 317.723 94.3759 317.723C93.9875 317.723 95.541 318.733 97.8713 319.975Z" fill="#CBDC3B"/>
</svg>
