<svg width="201" height="187" viewBox="0 0 201 187" fill="none" xmlns="http://www.w3.org/2000/svg">
<path d="M105.898 67.056C104.781 68.9864 105.752 71.2665 107.801 71.8081C108.952 72.045 119.54 69.5827 136.048 65.1781C152.556 60.7735 162.963 57.6341 163.844 56.8551C165.497 55.235 164.718 51.6342 162.652 51.3692C161.822 51.3186 148.887 54.4979 133.902 58.4959C113.839 63.8491 106.456 66.0908 105.898 67.056Z" fill="#6C6C6C"/>
<path d="M110.414 83.9876C109.297 85.918 110.268 88.1981 112.317 88.7401C113.468 88.9761 124.056 86.5143 140.564 82.1097C157.073 77.7052 167.48 74.5657 168.36 73.7867C170.014 72.1667 169.234 68.5659 167.168 68.3009C166.339 68.2502 153.403 71.4295 138.419 75.4275C118.355 80.7807 110.973 83.0224 110.414 83.9876Z" fill="#6C6C6C"/>
<path d="M114.933 100.919C113.816 102.849 114.787 105.129 116.835 105.671C117.987 105.908 128.575 103.445 145.083 99.0411C161.591 94.6361 171.998 91.4971 172.879 90.7181C174.385 89.2281 174.091 86.7669 172.161 85.6496C170.338 84.5944 115.988 99.0961 114.933 100.919Z" fill="#6C6C6C"/>
<path d="M119.45 117.85C118.333 119.78 119.304 122.06 121.353 122.602C123.955 123.177 175.426 109.444 177.396 107.649C179.049 106.029 178.27 102.428 176.204 102.163C175.375 102.113 162.439 105.292 147.455 109.29C127.391 114.643 120.009 116.885 119.45 117.85Z" fill="#6C6C6C"/>
<path d="M128.182 1.71212C127.572 2.14682 113.08 13.0868 96.0485 26.0647L65.0717 49.6553L36.3729 57.3124C4.62639 65.7827 5.28109 65.5174 4.12489 71.7203C3.67369 74.1078 4.19339 77.4151 5.93259 83.9337L8.34949 92.9921L4.96909 95.6171C1.35729 98.3941 -0.69081 103.293 0.21269 106.68C0.48369 107.696 4.59339 113.582 9.30129 119.671L17.8704 130.715L23.1217 148.358C27.9721 164.838 28.5028 166.147 31.0486 168.551C34.1984 171.519 39.4644 172.563 44.5438 171.207L47.7608 170.349L52.9881 177.025C59.5419 185.615 63.7639 187.843 69.9439 186.195C71.1291 185.878 81.9307 178.099 94.0695 168.875L116.079 152.121L154.174 141.957C196.249 130.731 195.995 130.799 198.466 124.426C199.488 121.796 199.228 120.142 196.139 107.545L192.688 93.5941L195.166 91.6631C198.253 89.2981 200.865 83.7946 200.267 80.871C199.346 76.4011 198.409 74.9281 190.161 64.0702L181.807 53.1501L178.712 41.5521C176.296 32.4938 175.099 29.3671 173.388 27.375C170.746 24.2712 166.152 22.6858 162.512 23.6571C160.988 24.0637 159.498 23.9171 159.086 23.3923C158.696 22.9521 155.202 18.3527 151.318 13.3131C147.412 8.18892 143.596 3.40322 142.732 2.54552C139.582 -0.42288 131.923 -0.91848 128.182 1.71212ZM137.044 7.05582C138.584 7.73292 151.269 23.6642 151.766 25.5267C152.014 26.4579 90.8135 43.1499 86.7555 43.2351C85.1405 43.303 88.2845 40.4693 99.9605 31.5502C108.403 25.1262 118.86 17.0764 123.228 13.7345C131.479 7.27102 134.306 5.97252 137.044 7.05582ZM165.103 30.311C166.277 30.6326 167.604 31.1855 168.078 31.6031C168.552 32.0207 174.357 52.4174 180.907 76.968L192.811 121.582L191.287 123.349C189.91 124.986 181.236 127.482 114.356 145.326C72.9595 156.371 38.4983 165.203 37.9 165C34.7166 163.945 33.8471 161.366 22.1242 117.429C11.7565 78.5711 10.5254 73.2772 11.3944 71.7757C12.2634 70.2743 20.3453 67.9366 87.6475 49.9796C142.844 35.2525 163.568 29.9952 165.103 30.311ZM12.1273 107.491L14.0021 114.517L10.6659 110.511C7.02489 106.041 6.29659 104.331 7.41389 102.401C9.21389 99.2911 10.3372 100.442 12.1273 107.491ZM193.539 80.1269C193.9 81.4815 192.349 85.5228 191.333 85.7938C190.909 85.9068 189.69 82.6955 188.668 78.5247L186.703 71.1595L190.039 75.1663C191.794 77.3277 193.403 79.619 193.539 80.1269ZM97.9685 157.316C96.8455 158.885 69.3221 179.106 67.629 179.558C64.8353 180.303 63.0516 179.056 58.4735 173.113L54.872 168.452L76.5443 162.669C88.4805 159.485 98.0925 157.102 97.9685 157.316Z" fill="#6C6C6C"/>
<path d="M58.5699 79.9331C57.8879 80.3146 57.8758 80.3358 58.1986 80.8016C58.6466 81.4656 59.7764 81.9445 61.5969 82.2717C64.7093 82.8196 65.8991 83.5857 66.3549 85.2652C66.6437 86.3294 66.5052 87.1347 65.8569 88.364C64.886 90.1807 63.5022 91.0026 61.8584 90.7346C60.8144 90.5716 59.7968 89.848 58.6017 88.4048C57.2104 86.765 56.3605 86.0673 55.5341 85.9166C54.5989 85.7598 54.5155 85.9788 54.9563 87.5374C55.4423 89.2623 56.2328 90.3332 57.6597 91.2492C59.209 92.2213 60.6775 92.5012 62.3841 92.1451C64.5486 91.7005 65.854 90.7214 66.8567 88.8246C68.8865 84.9887 66.5349 80.271 62.2486 79.5418C61.1034 79.3348 59.2852 79.5426 58.5699 79.9331Z" fill="#6C6C6C"/>
<path d="M56.2435 81.6894C55.4973 82.6239 55.0671 83.4727 54.8497 84.5136C54.716 85.1391 54.8155 85.3084 55.2645 85.1866C55.4307 85.1415 55.9776 85.3144 56.4971 85.584C57.2567 85.9492 57.8017 86.444 59.0421 87.857C60.4455 89.4757 60.7172 89.6876 61.5163 89.9349C62.3154 90.1822 62.5497 90.1901 63.2965 89.916C64.3094 89.5696 65.0903 88.6972 65.5785 87.4042C65.8605 86.6671 65.8638 86.4162 65.6156 85.5017C65.2004 83.9719 64.6206 83.6115 61.67 83.0018C59.0639 82.4772 58.4779 82.2257 57.7536 81.3332C57.4835 80.9958 57.1982 80.734 57.1151 80.7566C57.0486 80.7747 56.6642 81.2003 56.2435 81.6894Z" fill="#6C6C6C"/>
<path d="M36.4814 90.6412C34.0909 91.7006 32.1983 93.4104 30.6447 95.9745C28.2733 99.8673 27.7029 102.897 28.6822 106.505C29.2508 108.6 29.97 109.869 31.8307 111.988C35.0177 115.64 40.8212 118.868 45.804 119.729C47.7378 120.079 50.6875 120.225 52.6204 120.111C57.3372 119.795 61.6702 115.763 62.627 110.736C63.211 107.757 62.9713 106.019 61.6718 103.533C60.5939 101.469 59.5093 99.9061 57.9686 98.1105C55.5557 95.3375 53.4632 93.7451 50.0107 92.0755C45.8997 90.0847 42.7936 89.4281 39.4745 89.8289C38.1279 89.998 37.629 90.1334 36.4814 90.6412ZM39.234 92.4294C39.125 92.6196 39.0252 92.6467 38.835 92.5377C38.6447 92.4286 38.6644 92.3697 38.9804 92.284C39.2963 92.1982 39.3431 92.2391 39.234 92.4294ZM38.3675 92.9859C38.7737 93.2327 38.7661 93.2705 38.3299 94.0316L37.8771 94.7972L37.1417 94.3898L36.4062 93.9824L36.6683 93.5006C37.003 92.892 37.8254 92.6331 38.3675 92.9859ZM41.5813 92.1316C42.1298 92.1791 42.1326 92.3211 41.6314 93.1713L41.2028 93.8946L40.4674 93.4872L39.7319 93.0798L39.994 92.598C40.2394 92.1208 40.5054 92.0486 41.5813 92.1316ZM34.9997 94.9175C34.5922 95.653 34.5302 95.6877 34.2131 95.5059C33.896 95.3242 33.8991 95.2698 34.412 94.7914C35.2819 93.984 35.513 94.0462 34.9997 94.9175ZM36.8388 94.9183L37.5621 95.3469L37.1183 96.1457L36.67 96.928L35.9301 96.5039L35.1901 96.0799L35.5719 95.3157C35.7598 94.8898 35.9658 94.5304 36.0323 94.5123C36.0822 94.4988 36.4371 94.6881 36.8388 94.9183ZM40.1645 94.0157L40.8878 94.4443L40.4395 95.2265L39.9912 96.0088L39.2724 95.5968L38.5415 95.206L38.9021 94.4297C39.1112 94.0159 39.296 93.6444 39.3625 93.6264C39.4079 93.5962 39.7628 93.7855 40.1645 94.0157ZM43.7652 94.324L43.3215 95.1228L42.577 94.6821L41.8204 94.2626L42.2853 93.4759L42.7291 92.677L43.4736 93.1177L44.2301 93.5372L43.7652 94.324ZM44.3266 92.5112C44.529 92.5991 44.6573 92.7429 44.6088 92.8274C44.5603 92.912 44.3171 92.8709 44.0634 92.7255C43.5349 92.4226 43.7118 92.2853 44.3266 92.5112ZM33.957 96.0753C34.1986 96.2418 34.1682 96.3929 33.7926 97.0483L33.3443 97.8305L32.8747 97.5474L32.4096 97.2808L32.8396 96.6285C33.3513 95.8826 33.5418 95.7952 33.957 96.0753ZM46.6816 93.229C47.1242 93.4124 47.1242 93.4124 46.8728 93.8019C46.6381 94.187 46.6215 94.1915 45.9072 93.7962C45.362 93.4978 45.2081 93.3254 45.296 93.123C45.4324 92.836 45.8177 92.8743 46.6816 93.229ZM35.6272 97.0325L36.3505 97.461L35.9068 98.2599L35.4585 99.0421L34.6762 98.5938L33.894 98.1455L34.3226 97.4222C34.5528 97.0205 34.7632 96.6778 34.8253 96.6431C34.8751 96.6295 35.2255 96.8023 35.6272 97.0325ZM39.2279 97.3407L38.7842 98.1395L38.0231 97.7034L37.2786 97.2627L37.748 96.4926L38.213 95.7058L38.9529 96.1299L39.6929 96.5539L39.2279 97.3407ZM42.5703 96.4336L42.1054 97.2203L41.3699 96.8129L40.6345 96.4055L41.0783 95.6066L41.522 94.8078L42.2786 95.2273L43.0186 95.6514L42.5703 96.4336ZM45.896 95.531L45.4311 96.3178L44.6956 95.9103L43.9602 95.5029L44.404 94.7041L44.8477 93.9052L45.6043 94.3247L46.3443 94.7488L45.896 95.531ZM32.6186 98.1168C33.0248 98.3636 33.0172 98.4014 32.581 99.1624L32.1328 99.9447L31.7099 99.7024L31.2826 99.4434L31.6311 98.6883C32.0191 97.8153 32.0977 97.7761 32.6186 98.1168ZM49.0233 94.9501L48.7568 95.4152L48.0214 95.0078L47.2859 94.6003L47.5479 94.1186L47.8055 93.6202L48.5499 94.0609L49.3065 94.4804L49.0233 94.9501ZM34.4156 99.1466L35.139 99.5752L34.6952 100.374L34.2469 101.156L33.4858 100.72L32.7414 100.279L33.111 99.5364C33.3201 99.1226 33.526 98.7632 33.5925 98.7451C33.6424 98.7316 34.0139 98.9164 34.4156 99.1466ZM38.033 99.4503L37.5681 100.237L36.8327 99.8296L36.0972 99.4222L36.541 98.6233L36.9848 97.8245L37.7413 98.244L38.4813 98.6681L38.033 99.4503ZM41.067 97.3414L41.7904 97.77L41.3421 98.5522L40.8938 99.3345L40.175 98.9225L39.4441 98.5317L39.8047 97.7554C40.0138 97.3416 40.1986 96.9701 40.2651 96.9521C40.3105 96.9219 40.6654 97.1112 41.067 97.3414ZM44.6844 97.6451L44.2195 98.4319L43.4841 98.0245L42.7486 97.6171L43.1924 96.8182L43.6362 96.0193L44.3928 96.4389L45.1327 96.8629L44.6844 97.6451ZM48.0101 96.7426L47.5452 97.5293L46.8098 97.1219L46.0743 96.7145L46.5181 95.9156L46.9619 95.1168L47.7185 95.5363L48.4584 95.9603L48.0101 96.7426ZM50.8363 95.315C51.7919 96.0733 51.188 96.8085 50.0932 96.1951L49.4001 95.8119L49.65 95.3513C49.9438 94.7895 50.1781 94.7974 50.8363 95.315ZM31.5339 100.304C31.7755 100.47 31.7451 100.621 31.3695 101.277C30.8076 102.232 30.5463 102.125 30.7956 101.004C31.0113 100.088 31.093 99.9948 31.5339 100.304ZM33.4791 102.472L33.0353 103.27L32.2486 102.805L31.4497 102.362L31.9569 101.599L32.4475 100.841L33.1874 101.265L33.944 101.685L33.4791 102.472ZM36.8214 101.564L36.3565 102.351L35.6211 101.944L34.8857 101.536L35.3294 100.737L35.7732 99.9386L36.5298 100.358L37.2697 100.782L36.8214 101.564ZM40.1305 100.666L39.6868 101.465L38.9423 101.025L38.1857 100.605L38.6506 99.8183L39.0944 99.0194L39.8389 99.4601L40.5954 99.8796L40.1305 100.666ZM43.4729 99.7593L43.0079 100.546L42.2725 100.139L41.5371 99.7312L41.9808 98.9323L42.4246 98.1335L43.1812 98.553L43.9211 98.9771L43.4729 99.7593ZM46.7986 98.8567L46.3337 99.6435L45.5982 99.236L44.8628 98.8286L45.3065 98.0298L45.7503 97.2309L46.5069 97.6504L47.2468 98.0745L46.7986 98.8567ZM50.4908 97.2655C50.5179 97.3653 50.3331 97.7368 50.0893 98.0886L49.6382 98.7288L48.9028 98.3213L48.1885 97.926L48.6323 97.1272L49.076 96.3283L49.7692 96.7115C50.1497 96.9296 50.4849 97.1778 50.4908 97.2655ZM53.335 97.1542C53.4794 97.6863 52.9428 97.8141 52.2073 97.4067L51.5142 97.0235L51.7762 96.5417L52.0383 96.06L52.6316 96.4703C52.9789 96.6974 53.2778 97.009 53.335 97.1542ZM32.2675 104.586L31.8238 105.385L31.1684 105.009C30.5764 104.67 30.5161 104.579 30.6042 104.18C30.662 103.932 30.8257 103.549 30.9846 103.345C31.2404 102.972 31.2782 102.98 31.9925 103.375L32.7325 103.799L32.2675 104.586ZM35.6099 103.679L35.145 104.465L34.4095 104.058L33.6741 103.65L34.1179 102.852L34.5616 102.053L35.3182 102.472L36.0582 102.896L35.6099 103.679ZM38.9356 102.776L38.4707 103.563L37.7352 103.155L36.9998 102.748L37.4436 101.949L37.8873 101.15L38.6439 101.57L39.3839 101.994L38.9356 102.776ZM42.2613 101.873L41.7964 102.66L41.0609 102.253L40.3255 101.845L40.7693 101.046L41.213 100.248L41.9696 100.667L42.7096 101.091L42.2613 101.873ZM45.587 100.971L45.1221 101.758L44.3867 101.35L43.6512 100.943L44.095 100.144L44.5387 99.345L45.2953 99.7646L46.0353 100.189L45.587 100.971ZM49.2824 99.3252C49.323 99.4749 48.6127 100.739 48.463 100.779C48.4131 100.793 48.0506 100.641 47.6701 100.423L46.9769 100.04L47.4207 99.2413L47.8645 98.4425L48.5576 98.8257C48.9382 99.0437 49.2643 99.2587 49.2824 99.3252ZM52.3246 99.0887C52.1488 99.4935 51.9384 99.8363 51.8386 99.8634C51.7554 99.8859 51.3763 99.7389 50.9958 99.5208L50.3026 99.1376L50.7464 98.3388L51.1902 97.5399L51.909 97.9518L52.6444 98.3592L52.3246 99.0887ZM54.7557 98.179C55.0878 98.4817 55.3776 98.7601 55.3912 98.81C55.4589 99.0594 54.8968 98.962 54.3003 98.6061C53.7673 98.2866 53.6557 98.1384 53.7647 97.9481C53.9828 97.5675 54.0795 97.5949 54.7557 98.179ZM34.3817 105.797L33.9379 106.596L33.1768 106.16L32.4157 105.724L32.9018 104.949L33.3667 104.162L34.1066 104.586L34.8466 105.01L34.3817 105.797ZM37.724 104.89L37.2591 105.677L36.5237 105.269L35.7882 104.862L36.232 104.063L36.6758 103.264L37.4323 103.684L38.1723 104.108L37.724 104.89ZM41.0497 103.988L40.5848 104.774L39.8494 104.367L39.1139 103.959L39.5577 103.161L40.0015 102.362L40.7581 102.781L41.498 103.205L41.0497 103.988ZM44.3754 103.085L43.9105 103.872L43.1751 103.464L42.4396 103.057L42.8834 102.258L43.3272 101.459L44.0838 101.879L44.8237 102.303L44.3754 103.085ZM47.8434 101.983C47.4645 102.889 47.2574 102.981 46.4585 102.538L45.7654 102.154L46.2091 101.355L46.6529 100.557L47.3883 100.964L48.1071 101.376L47.8434 101.983ZM51.2979 100.831C51.2311 101.046 51.0373 101.384 50.8541 101.63C50.5197 102.042 50.5197 102.042 49.8054 101.647L49.0911 101.252L49.5348 100.453L49.9786 99.654L50.6929 100.049C51.306 100.401 51.392 100.52 51.2979 100.831ZM54.5735 100.139C54.1794 101.121 53.9722 101.212 53.1522 100.757L52.4168 100.349L52.8605 99.5503L53.3043 98.7515L54.0443 99.1755L54.7842 99.5996L54.5735 100.139ZM31.4377 105.936C31.4558 106.002 31.38 106.183 31.2786 106.336C31.112 106.577 31.0652 106.537 30.9705 106.187C30.8847 105.871 30.9242 105.754 31.1251 105.771C31.2762 105.801 31.4197 105.869 31.4377 105.936ZM36.4958 107.009L36.0521 107.808L35.3121 107.384L34.5722 106.96L35.0159 106.161L35.4385 105.35L36.1996 105.786L36.9607 106.222L36.4958 107.009ZM39.8382 106.102L39.3732 106.888L38.6378 106.481L37.9024 106.074L38.3461 105.275L38.7899 104.476L39.5465 104.895L40.2864 105.319L39.8382 106.102ZM43.1639 105.199L42.699 105.986L41.9635 105.578L41.2281 105.171L41.6719 104.372L42.1156 103.573L42.8722 103.993L43.6121 104.417L43.1639 105.199ZM46.5758 104.22C46.3955 104.608 46.185 104.951 46.0852 104.978C46.0066 105.017 45.6275 104.87 45.2469 104.652L44.5538 104.268L44.9976 103.47L45.4413 102.671L46.1768 103.078L46.9001 103.507L46.5758 104.22ZM50.1469 102.84C50.1165 102.991 49.9272 103.346 49.7198 103.634L49.3292 104.169L48.5938 103.761L47.8795 103.366L48.3233 102.567L48.767 101.768L49.4813 102.163C49.9042 102.406 50.1562 102.677 50.1469 102.84ZM53.5287 101.815C53.5874 102.031 52.9573 103.13 52.7412 103.189C52.658 103.212 52.2789 103.065 51.8984 102.847L51.2052 102.463L51.649 101.664L52.0927 100.866L52.7859 101.249C53.1664 101.467 53.5016 101.715 53.5287 101.815ZM56.8544 100.912C56.9131 101.128 56.283 102.228 56.0669 102.287C55.9837 102.309 55.6046 102.162 55.2241 101.944L54.5309 101.561L54.9747 100.762L55.4184 99.963L56.1116 100.346C56.4921 100.564 56.8273 100.813 56.8544 100.912ZM32.9509 106.775L33.6229 107.146L33.1701 107.911C32.7461 108.651 32.7173 108.677 32.3247 108.48C31.7206 108.162 31.4736 107.515 31.7674 106.953C32.09 106.366 32.1565 106.348 32.9509 106.775ZM38.6266 108.216L38.1617 109.003L37.4262 108.595L36.6908 108.188L37.1346 107.389L37.5783 106.59L38.3349 107.01L39.0749 107.434L38.6266 108.216ZM45.6477 105.668C45.6883 105.817 44.978 107.081 44.8283 107.122C44.7784 107.135 44.4159 106.984 44.0354 106.766L43.3422 106.383L43.786 105.584L44.2298 104.785L44.9229 105.168C45.3035 105.386 45.6296 105.601 45.6477 105.668ZM48.9688 104.748C49.0095 104.898 48.3203 106.174 48.1706 106.215C48.1041 106.233 47.7416 106.081 47.3611 105.863L46.6679 105.48L47.1117 104.681L47.5555 103.882L48.2486 104.265C48.6292 104.484 48.9553 104.699 48.9688 104.748ZM52.3171 103.929C52.3713 104.129 51.6959 105.258 51.4963 105.312C51.4298 105.33 51.0673 105.179 50.6868 104.961L49.9936 104.577L50.4374 103.779L50.8812 102.98L51.5743 103.363C51.9549 103.581 52.29 103.829 52.3171 103.929ZM55.6428 103.026C55.7015 103.243 55.0715 104.342 54.8553 104.401C54.7722 104.423 54.393 104.276 54.0125 104.058L53.3193 103.675L53.7631 102.876L54.2069 102.077L54.9 102.46C55.2806 102.678 55.6157 102.927 55.6428 103.026ZM58.5281 102.672C58.5701 102.893 58.4927 103.199 58.3701 103.34C58.1734 103.536 57.9891 103.514 57.3805 103.18L56.645 102.772L57.0843 101.957L57.5447 101.153L57.9989 101.709C58.2599 102.013 58.5027 102.447 58.5281 102.672ZM35.0907 108.015L35.6962 108.404L35.2767 109.161L34.836 109.905L34.1005 109.498L33.3651 109.09L33.7483 108.397C33.9664 108.017 34.2146 107.681 34.3144 107.654C34.4142 107.627 34.76 107.783 35.0907 108.015ZM41.7542 106.189L42.3763 106.573L41.9402 107.334L41.4874 108.1L40.752 107.693L40.0165 107.285L40.3997 106.592C40.6178 106.211 40.866 105.876 40.9492 105.854C41.049 105.827 41.4114 105.978 41.7542 106.189ZM40.7407 109.427L40.2758 110.214L39.5404 109.807L38.805 109.399L39.2487 108.6L39.6925 107.802L40.4491 108.221L41.189 108.645L40.7407 109.427ZM47.7528 106.846C47.7979 107.012 47.1254 108.284 46.9757 108.324C46.9092 108.342 46.5301 108.195 46.1495 107.977L45.4564 107.594L45.9001 106.795L46.3439 105.996L47.0371 106.38C47.4176 106.598 47.7392 106.796 47.7528 106.846ZM51.092 105.993C51.1507 106.209 50.5342 107.359 50.3347 107.413C50.2515 107.435 49.8558 107.293 49.4752 107.075L48.7821 106.692L49.2258 105.893L49.6696 105.094L50.3628 105.477C50.7433 105.695 51.074 105.927 51.092 105.993ZM54.2645 105.579C53.8704 106.56 53.6632 106.652 52.8432 106.196L52.1078 105.789L52.5515 104.99L52.9953 104.191L53.7353 104.615L54.4752 105.039L54.2645 105.579ZM57.7525 104.221C57.7795 104.321 57.6325 104.7 57.4144 105.081L57.0312 105.774L56.2323 105.33L55.4335 104.886L55.8772 104.088L56.321 103.289L57.0142 103.672C57.3947 103.89 57.7254 104.122 57.7525 104.221ZM33.8323 110.088C34.1872 110.278 34.4514 110.527 34.4286 110.641C34.3026 111.032 34.067 110.953 33.5328 110.366C33.2506 110.05 33.0529 109.782 33.0862 109.773C33.1361 109.759 33.4608 109.903 33.8323 110.088ZM37.1958 109.193L37.8633 109.548L37.415 110.33L36.9501 111.117L36.2147 110.709L35.4792 110.302L35.8624 109.609C36.0805 109.228 36.3121 108.898 36.3953 108.875C36.4618 108.857 36.8198 108.992 37.1958 109.193ZM43.8171 107.343C44.1342 107.525 44.4271 107.749 44.433 107.836C44.4601 107.936 44.2752 108.307 44.0315 108.659L43.5804 109.299L42.845 108.892L42.1307 108.497L42.5138 107.804C42.7319 107.423 42.9635 107.092 43.0633 107.065C43.1465 107.043 43.4999 107.161 43.8171 107.343ZM59.5115 104.19C59.5778 104.369 59.4901 104.375 59.1775 104.21C58.8483 104.049 58.7834 103.942 58.9001 103.714C59.0077 103.452 59.0621 103.455 59.2341 103.694C59.3457 103.843 59.4754 104.057 59.5115 104.19ZM43.0297 109.77C43.2561 110.012 43.1136 110.408 42.605 111.1C42.3976 111.388 42.2843 111.365 41.6545 111.018L40.9191 110.611L41.3629 109.812L41.8066 109.013L42.3095 109.287C42.5798 109.428 42.906 109.643 43.0297 109.77ZM46.3001 109.65C46.1409 110.051 45.9304 110.393 45.814 110.425C45.7142 110.452 45.3185 110.31 44.938 110.091L44.2448 109.708L44.6886 108.909L45.1323 108.111L45.8678 108.518L46.5911 108.947L46.3001 109.65ZM49.894 108.157C49.9527 108.373 49.3226 109.473 49.1065 109.531C49.0233 109.554 48.6442 109.407 48.2637 109.189L47.5705 108.806L48.0143 108.007L48.458 107.208L49.1512 107.591C49.5317 107.809 49.8669 108.058 49.894 108.157ZM53.2197 107.255C53.2784 107.471 52.6483 108.57 52.4322 108.629C52.349 108.651 51.9699 108.504 51.5894 108.286L50.8962 107.903L51.34 107.104L51.7837 106.305L52.4769 106.689C52.8574 106.907 53.1926 107.155 53.2197 107.255ZM56.5454 106.352C56.6041 106.568 55.9741 107.668 55.7579 107.726C55.6747 107.749 55.2956 107.602 54.9151 107.384L54.2219 107.001L54.6657 106.202L55.1095 105.403L55.8026 105.786C56.1831 106.004 56.5183 106.252 56.5454 106.352ZM59.8711 105.45C59.9298 105.666 59.2998 106.765 59.0836 106.824C59.0004 106.846 58.6213 106.699 58.2408 106.481L57.5476 106.098L57.9914 105.299L58.4352 104.5L59.1283 104.883C59.5089 105.102 59.844 105.35 59.8711 105.45ZM35.9555 111.333C36.5565 111.706 36.5866 111.751 36.3973 112.106C36.1322 112.642 36.04 112.631 35.344 112.106C34.8639 111.719 34.7689 111.566 34.8689 111.342C35.069 110.895 35.2654 110.896 35.9555 111.333ZM39.2888 110.393L39.9729 110.743L39.5292 111.542L39.0643 112.328L38.3288 111.921L37.5934 111.513L37.9766 110.82C38.1947 110.44 38.4096 110.114 38.4928 110.091C38.5593 110.073 38.9173 110.208 39.2888 110.393ZM48.6824 110.271C48.7411 110.488 48.1111 111.587 47.8949 111.646C47.8118 111.668 47.4326 111.521 47.0521 111.303L46.3589 110.92L46.8027 110.121L47.2465 109.322L47.9396 109.705C48.3202 109.923 48.6553 110.172 48.6824 110.271ZM55.3338 108.466C55.3925 108.682 54.7625 109.782 54.5463 109.84C54.4632 109.863 54.084 109.716 53.7035 109.498L53.0104 109.115L53.4541 108.316L53.8979 107.517L54.591 107.9C54.9716 108.118 55.3068 108.367 55.3338 108.466ZM58.655 107.547C58.6821 107.647 58.535 108.026 58.317 108.407L57.9338 109.1L57.1349 108.656L56.3361 108.212L56.7798 107.413L57.2236 106.614L57.9167 106.998C58.2973 107.216 58.6279 107.447 58.655 107.547ZM38.0409 112.57L38.7129 112.941L38.4145 113.487L38.095 114.02L37.4653 113.673C36.7344 113.282 36.6771 113.137 36.9467 112.617C37.1876 112.123 37.242 112.127 38.0409 112.57ZM41.3953 111.642L42.0628 111.997L41.6312 112.774L41.1784 113.54L40.443 113.132L39.7075 112.725L40.0907 112.032C40.3088 111.651 40.5238 111.325 40.5903 111.307C40.6568 111.289 41.0193 111.441 41.3953 111.642ZM44.7408 110.681C45.4052 111.089 45.4351 111.331 44.8735 112.091L44.483 112.625L43.7475 112.218L43.0332 111.822L43.4164 111.129C43.6345 110.749 43.8828 110.414 43.9825 110.386C44.0823 110.359 44.4236 110.499 44.7408 110.681ZM51.371 108.863C51.6882 109.045 51.9765 109.252 52.0036 109.352C52.0623 109.568 51.4534 110.68 51.2372 110.739C51.1541 110.761 50.7583 110.619 50.3778 110.4L49.6846 110.017L50.0678 109.324C50.2859 108.944 50.5175 108.613 50.6173 108.586C50.7004 108.563 51.0539 108.682 51.371 108.863ZM60.5711 107.634C60.5347 107.698 60.3081 107.652 60.0801 107.535L59.6663 107.326L59.9193 106.811L60.1934 106.308L60.4103 106.91C60.5338 107.234 60.6074 107.571 60.5711 107.634ZM40.8375 114.257C40.851 114.307 40.7011 114.544 40.5135 114.774C40.179 115.186 40.179 115.186 39.4963 114.907C39.1171 114.76 38.7834 114.583 38.7699 114.533C38.7518 114.466 38.8837 114.163 39.0488 113.85L39.3714 113.263L40.0826 113.712C40.4888 113.959 40.824 114.207 40.8375 114.257ZM47.4618 112.352C47.5115 112.535 46.833 113.719 46.6667 113.764C46.5836 113.787 46.2211 113.635 45.8405 113.417L45.1474 113.034L45.5911 112.235L46.0349 111.436L46.7281 111.819C47.1086 112.038 47.4393 112.269 47.4618 112.352ZM54.1223 110.58C54.1809 110.797 53.5509 111.896 53.3347 111.955C53.2516 111.977 52.8725 111.83 52.4919 111.612L51.7988 111.229L52.2426 110.43L52.6863 109.631L53.3795 110.014C53.76 110.232 54.0952 110.481 54.1223 110.58ZM57.4435 109.661C57.4705 109.761 57.3235 110.14 57.1054 110.521L56.7222 111.214L55.9234 110.77L55.1245 110.326L55.5683 109.527L56.012 108.729L56.7052 109.112C57.0857 109.33 57.4164 109.561 57.4435 109.661ZM43.5337 112.811C43.8553 113.01 44.1271 113.222 44.1406 113.272C44.1767 113.405 43.474 114.631 43.3244 114.671C43.2579 114.689 42.8954 114.538 42.5148 114.32L41.8217 113.937L42.2049 113.243C42.4229 112.863 42.6712 112.528 42.7543 112.505C42.8541 112.478 43.1955 112.618 43.5337 112.811ZM50.2229 111.014C50.9251 111.43 50.9384 111.677 50.3027 112.492L49.9439 112.946L49.2085 112.539L48.4731 112.131L48.8563 111.438C49.0743 111.058 49.3226 110.723 49.4224 110.695C49.5221 110.668 49.8846 110.82 50.2229 111.014ZM60.1154 108.258C60.7663 108.617 60.8008 108.875 60.3584 109.745L60.0479 110.311L59.2491 109.867L58.4502 109.424L58.8334 108.731C59.0515 108.35 59.2831 108.019 59.3829 107.992C59.466 107.97 59.8028 108.093 60.1154 108.258ZM49.4182 114.035C49.0241 115.017 48.8169 115.109 47.9969 114.653L47.2615 114.246L47.7053 113.447L48.149 112.648L48.889 113.072L49.6289 113.496L49.4182 114.035ZM52.8972 112.645C52.9197 112.728 52.7727 113.107 52.5636 113.521L52.1849 114.231L51.3861 113.787L50.5872 113.343L51.031 112.544L51.4748 111.745L52.1679 112.128C52.5484 112.347 52.8791 112.578 52.8972 112.645ZM56.2364 111.792C56.2951 112.008 55.6651 113.108 55.4489 113.166C55.3657 113.189 54.9866 113.042 54.6061 112.824L53.9129 112.44L54.3567 111.642L54.8005 110.843L55.4936 111.226C55.8742 111.444 56.2093 111.692 56.2364 111.792ZM59.5576 110.873C59.5847 110.973 59.4376 111.352 59.2195 111.732L58.8364 112.425L58.0375 111.982L57.2386 111.538L57.6824 110.739L58.1262 109.94L58.8193 110.323C59.1999 110.541 59.5305 110.773 59.5576 110.873ZM42.2556 114.944C42.8552 115.245 42.911 115.319 42.7972 115.689C42.6409 116.232 42.3824 116.266 41.5563 115.919L40.869 115.623L41.1144 115.146C41.4325 114.542 41.4492 114.538 42.2556 114.944ZM45.6056 113.999C45.9438 114.193 46.2322 114.4 46.2503 114.466C46.2999 114.649 45.6214 115.833 45.4551 115.878C45.372 115.901 45.0095 115.749 44.629 115.531L43.9358 115.148L44.319 114.455C44.5371 114.074 44.7687 113.744 44.8518 113.721C44.935 113.699 45.2718 113.821 45.6056 113.999ZM58.346 112.987C58.3731 113.087 58.2261 113.466 58.008 113.846L57.6248 114.54L56.8259 114.096L56.0271 113.652L56.4708 112.853L56.9146 112.054L57.6078 112.437C57.9883 112.656 58.319 112.887 58.346 112.987ZM44.3531 116.16C45.8316 116.937 44.9638 117.226 43.2571 116.529C43.1604 116.501 43.4407 115.89 43.5738 115.853C43.6403 115.835 43.9816 115.975 44.3531 116.16ZM47.7287 115.244C48.067 115.437 48.3599 115.661 48.3779 115.728C48.4005 115.811 48.2489 116.174 48.0309 116.554L47.6477 117.247L46.8488 116.803L46.0499 116.36L46.4331 115.667C46.6512 115.286 46.8828 114.955 46.966 114.933C47.0491 114.91 47.3905 115.05 47.7287 115.244ZM51.062 114.303C51.3792 114.485 51.6675 114.692 51.6946 114.792C51.7172 114.875 51.5746 115.271 51.3566 115.652L50.9734 116.345L50.1745 115.901L49.3757 115.457L49.7588 114.764C49.9769 114.383 50.2085 114.053 50.3083 114.026C50.3915 114.003 50.7449 114.121 51.062 114.303ZM54.3878 113.401C54.7049 113.582 54.9932 113.79 55.0203 113.89C55.0429 113.973 54.9003 114.368 54.6823 114.749L54.2991 115.442L53.5002 114.998L52.7014 114.555L53.0845 113.861C53.3026 113.481 53.5342 113.15 53.634 113.123C53.7172 113.101 54.0706 113.219 54.3878 113.401ZM60.2424 111.883C60.036 112.635 59.8286 112.924 59.5597 112.854C59.4041 112.807 59.4739 112.538 59.7238 112.077C60.2161 111.194 60.4565 111.093 60.2424 111.883ZM57.139 115.118C57.1976 115.334 56.5676 116.433 56.3515 116.492C56.2683 116.514 55.8892 116.367 55.5087 116.149L54.8155 115.766L55.2593 114.967L55.703 114.168L56.3962 114.552C56.7767 114.77 57.1119 115.018 57.139 115.118ZM46.0822 117.137C46.2378 117.184 46.3314 117.265 46.2951 117.329C46.2587 117.392 46.0578 117.375 45.8387 117.292C45.4173 117.121 45.6154 116.995 46.0822 117.137ZM49.7462 116.428C50.5301 116.751 50.6432 116.97 50.3025 117.491C50.092 117.834 49.959 117.87 49.3651 117.852C48.2061 117.792 48.1035 117.677 48.5473 116.878C48.7487 116.502 48.9637 116.176 48.997 116.167C49.0302 116.158 49.3671 116.281 49.7462 116.428ZM53.1762 115.515C53.4933 115.696 53.7817 115.904 53.8088 116.004C53.8313 116.087 53.6888 116.483 53.4707 116.863L53.0875 117.556L52.2887 117.112L51.4898 116.669L51.873 115.976C52.0911 115.595 52.3227 115.264 52.4225 115.237C52.5056 115.215 52.8591 115.333 53.1762 115.515ZM59.3805 113.51C59.4347 113.709 58.575 114.817 58.3089 114.889C58.1925 114.921 58.27 114.614 58.5002 114.213C58.8833 113.52 59.2948 113.194 59.3805 113.51ZM51.6157 117.527C52.0808 117.794 52.0611 117.853 51.514 117.876C50.8959 117.901 50.8536 117.877 50.9446 117.62C51.0266 117.33 51.2306 117.293 51.6157 117.527ZM55.1001 116.617C55.5787 116.934 55.4606 117.091 54.5627 117.334L53.8144 117.537L54.084 117.018C54.4143 116.393 54.6259 116.317 55.1001 116.617Z" fill="#6C6C6C"/>
<path d="M81.7442 78.3572C78.513 79.8054 76.3358 81.9138 73.391 86.3908C70.6945 90.5326 69.3944 95.7415 69.6534 101.366C69.7935 104.185 70.5258 105.896 72.5102 108.143C74.1867 110.045 76.4534 111.358 78.7861 111.796C80.6701 112.159 81.9953 112.175 83.661 111.865C84.6481 111.687 85.1787 111.471 86.7908 110.57C90.0723 108.715 92.8724 106.402 94.8204 103.909C95.9616 102.457 98.2078 98.3659 98.8734 96.5428C101.143 90.3029 100.044 84.8704 95.7658 81.2111C94.7665 80.3575 92.2493 78.8447 90.9729 78.352C87.9521 77.1544 84.4204 77.1667 81.7442 78.3572ZM83.7984 80.3348C83.6894 80.5251 83.5896 80.5522 83.3993 80.4431C83.2091 80.3341 83.2288 80.2752 83.5447 80.1894C83.8607 80.1037 83.9075 80.1446 83.7984 80.3348ZM86.1758 80.0824L86.6243 80.3534L86.1957 81.0768L85.7672 81.8001L84.9849 81.3518L84.2072 80.9202L84.4647 80.4218C84.7828 79.8177 85.5114 79.6735 86.1758 80.0824ZM82.829 80.9729L83.2986 81.256L82.87 81.9793L82.4415 82.7027L81.706 82.2952C81.3044 82.065 80.9647 81.8002 80.9754 81.708C80.9846 81.5448 81.8453 80.9006 82.2807 80.7289C82.3261 80.6987 82.5708 80.8108 82.829 80.9729ZM89.2867 80.5593C89.105 80.8764 89.0295 80.8612 88.3575 80.4901C87.3305 79.9297 87.3776 79.7741 88.5152 80.0188C89.4217 80.2013 89.4685 80.2421 89.2867 80.5593ZM79.3989 83.1356C79.2369 83.3938 79.0478 83.5523 78.9633 83.5038C78.8787 83.4553 78.9167 83.2665 79.0469 83.0883C79.4631 82.5826 79.6852 82.6116 79.3989 83.1356ZM81.6585 84.0935L81.2344 84.8334L80.4522 84.3852L79.6654 83.9202L80.0729 83.1848L80.4803 82.4494L81.2791 82.8931L82.078 83.3369L81.6585 84.0935ZM84.9842 83.1909L84.5601 83.9309L83.7779 83.4826L82.9912 83.0177L83.3986 82.2822L83.806 81.5468L84.6049 81.9906L85.4037 82.4343L84.9842 83.1909ZM87.9804 81.0745L88.7415 81.5106L88.322 82.2672L87.8858 83.0283L87.1036 82.58L86.3169 82.1151L86.7243 81.3797C86.9545 80.978 87.1483 80.6397 87.165 80.6352C87.1816 80.6307 87.5531 80.8155 87.9804 81.0745ZM90.8883 80.803C91.7598 81.1199 91.7945 81.1819 91.4539 81.7029C91.2025 82.0925 91.1693 82.1015 90.4293 81.6774C89.7739 81.3018 89.6713 81.1869 89.7956 80.9211C89.9835 80.4951 90.0001 80.4906 90.8883 80.803ZM78.5197 84.1062C78.6979 84.2364 78.6478 84.4464 78.3328 84.9961L77.9042 85.7194L77.4647 85.4816L77.0374 85.2226L77.552 84.6188C78.1649 83.9169 78.1936 83.8912 78.5197 84.1062ZM80.4469 86.2076L80.0229 86.9476L79.2406 86.4993L78.4539 86.0344L78.8613 85.2989L79.2687 84.5635L80.0676 85.0073L80.8664 85.451L80.4469 86.2076ZM83.7726 85.305L83.3486 86.045L82.5663 85.5967L81.7796 85.1318L82.187 84.3964L82.5944 83.6609L83.3933 84.1047L84.1921 84.5485L83.7726 85.305ZM87.0983 84.4025L86.6743 85.1424L85.892 84.6941L85.1053 84.2292L85.5127 83.4938L85.9201 82.7584L86.719 83.2021L87.5179 83.6459L87.0983 84.4025ZM90.5642 82.5692C90.7846 82.7236 90.7587 82.8913 90.4074 83.5044L90 84.2398L89.2177 83.7916L88.431 83.3267L88.8384 82.5912L89.2458 81.8558L89.7653 82.1254C90.0523 82.2618 90.4117 82.4678 90.5642 82.5692ZM77.1333 87.0891L76.7093 87.829L76.1898 87.5594L75.6869 87.2852L76.1532 86.5695L76.5984 85.8417L77.0801 86.1037L77.5574 86.3491L77.1333 87.0891ZM93.1324 82.0329C93.8027 82.5294 93.8193 82.5249 93.5559 82.9356C93.3167 83.304 93.2834 83.313 92.5389 82.8724C91.7824 82.4528 91.7733 82.4196 91.9824 82.0058C92.2763 81.444 92.3473 81.4426 93.1324 82.0329ZM79.2353 88.3218L78.8113 89.0617L78.0291 88.6134L77.2423 88.1485L77.6497 87.4131L78.0572 86.6777L78.856 87.1214L79.6549 87.5652L79.2353 88.3218ZM82.5732 87.398L82.1446 88.1214L81.4317 87.7971C81.0436 87.6168 80.7008 87.4063 80.6737 87.3065C80.6345 87.2279 80.7816 86.8488 80.9997 86.4682L81.3829 85.7751L82.1817 86.2188L82.9806 86.6626L82.5732 87.398ZM85.8867 86.5166L85.4627 87.2566L84.6805 86.8083L83.8937 86.3434L84.3011 85.6079L84.7086 84.8725L85.5074 85.3163L86.3063 85.76L85.8867 86.5166ZM89.2125 85.614L88.7884 86.354L88.0062 85.9057L87.2194 85.4408L87.6269 84.7054L88.0343 83.9699L88.8331 84.4137L89.632 84.8575L89.2125 85.614ZM92.914 83.8596C92.9684 83.8627 92.8002 84.2297 92.5624 84.6692L92.1141 85.4514L91.3319 85.0031L90.5451 84.5382L90.9526 83.8028L91.36 83.0674L92.0864 83.4415C92.5002 83.6506 92.8717 83.8354 92.914 83.8596ZM75.8474 88.2057L76.3292 88.4678L75.946 89.1609C75.7445 89.5369 75.4963 89.8721 75.4131 89.8947C75.2468 89.9398 74.6791 89.5583 74.6083 89.3633C74.5722 89.2302 75.1329 88.0069 75.2659 87.9708C75.3158 87.9572 75.5771 88.0649 75.8474 88.2057ZM95.0149 83.5751C95.7966 84.4163 95.6256 84.6413 94.6576 84.1006C94.0022 83.725 93.8996 83.61 94.0238 83.3442C94.2481 82.8548 94.3659 82.8943 95.0149 83.5751ZM78.0601 90.3725C77.842 90.753 77.6104 91.0837 77.5439 91.1017C77.3277 91.1604 76.1785 90.5439 76.1243 90.3444C76.1018 90.2612 76.2443 89.8655 76.4624 89.4849L76.8456 88.7918L77.6444 89.2356L78.4433 89.6793L78.0601 90.3725ZM81.3616 89.5122L80.933 90.2355L80.2202 89.9112C79.832 89.7309 79.4892 89.5204 79.4622 89.4207C79.423 89.342 79.57 88.9629 79.7881 88.5824L80.1713 87.8892L80.9702 88.333L81.769 88.7767L81.3616 89.5122ZM84.6873 88.6096L84.2754 89.3284L83.6682 89.0647C82.762 88.6858 82.67 88.4787 83.1138 87.6798L83.497 86.9866L84.2959 87.4304L85.0947 87.8742L84.6873 88.6096ZM88.0009 87.7282L87.5768 88.4681L86.7946 88.0198L86.0079 87.5549L86.4153 86.8195L86.8227 86.0841L87.6216 86.5278L88.4204 86.9716L88.0009 87.7282ZM91.3266 86.8256L90.9025 87.5656L90.1203 87.1173L89.3336 86.6524L89.741 85.9169L90.1484 85.1815L90.9473 85.6253L91.7461 86.069L91.3266 86.8256ZM94.6523 85.923L94.2283 86.663L93.446 86.2147L92.6593 85.7498L93.0667 85.0144L93.4741 84.2789L94.273 84.7227L95.0718 85.1665L94.6523 85.923ZM74.7344 91.2751C74.2906 92.0739 74.0215 92.2005 73.7455 91.7755C73.6203 91.5774 73.6555 91.2465 73.8676 90.7783L74.1586 90.0745L74.6359 90.3199L75.1176 90.5819L74.7344 91.2751ZM76.8486 92.4866C76.6305 92.8672 76.3822 93.2023 76.2824 93.2294C76.0829 93.2836 74.9534 92.6082 74.8992 92.4086C74.8812 92.3421 75.0327 91.9796 75.2508 91.5991L75.634 90.9059L76.4329 91.3497L77.2317 91.7935L76.8486 92.4866ZM80.1743 91.584C79.9562 91.9646 79.7246 92.2952 79.6248 92.3223C79.4751 92.3629 78.261 91.6391 78.2159 91.4728C78.2024 91.4229 78.3585 91.0771 78.5765 90.6965L78.9597 90.0034L79.7586 90.4471L80.5574 90.8909L80.1743 91.584ZM83.4636 90.7449L83.0396 91.4848L82.2573 91.0366L81.4706 90.5717L81.878 89.8362L82.2854 89.1008L83.0843 89.5445L83.8832 89.9883L83.4636 90.7449ZM86.7893 89.8423L86.3653 90.5823L85.583 90.134L84.7963 89.6691L85.2037 88.9336L85.6111 88.1982L86.41 88.642L87.2089 89.0857L86.7893 89.8423ZM90.115 88.9397L89.691 89.6797L88.9087 89.2314L88.122 88.7665L88.5294 88.0311L88.9368 87.2956L89.7357 87.7394L90.5346 88.1832L90.115 88.9397ZM93.4407 88.0372L93.0167 88.7771L92.2345 88.3288L91.4477 87.8639L91.8551 87.1285L92.2626 86.3931L93.0614 86.8368L93.8603 87.2806L93.4407 88.0372ZM96.3403 85.8934C97.0197 86.4231 97.0784 86.6393 96.6937 87.2614L96.3379 87.8579L95.5557 87.4096L94.7734 86.9614L95.1687 86.2471C95.5883 85.4905 95.75 85.4287 96.3403 85.8934ZM73.6523 92.5506C73.8426 92.6597 73.8212 92.844 73.5228 93.3892C73.1881 93.9978 72.7524 94.366 72.6847 94.1165C72.6396 93.9502 73.1825 92.4639 73.2822 92.4369C73.3488 92.4188 73.5043 92.4658 73.6523 92.5506ZM75.637 94.6008C75.4189 94.9813 75.1873 95.312 75.0875 95.339C74.8713 95.3977 73.7599 94.7888 73.7012 94.5727C73.6786 94.4895 73.8212 94.0938 74.0393 93.7132L74.4225 93.0201L75.2213 93.4638L76.0202 93.9076L75.637 94.6008ZM78.9627 93.6982C78.7446 94.0787 78.513 94.4094 78.4298 94.4319C78.2303 94.4861 77.0766 93.853 77.0269 93.6701C76.9998 93.5703 77.1469 93.1912 77.365 92.8106L77.7482 92.1175L78.547 92.5613L79.3459 93.005L78.9627 93.6982ZM82.2884 92.7956C81.7598 93.7425 81.7432 93.747 80.5852 92.9008C80.2968 92.6934 80.3196 92.5801 80.6664 91.9504L81.0739 91.2149L81.8727 91.6587L82.6716 92.1025L82.2884 92.7956ZM85.5778 91.9565L85.1537 92.6964L84.3715 92.2481L83.5847 91.7832L83.9922 91.0478L84.3996 90.3123L85.1984 90.7561L85.9973 91.1999L85.5778 91.9565ZM88.9035 91.0539L88.4794 91.7938L87.6972 91.3456L86.9104 90.8806L87.3179 90.1452L87.7253 89.4098L88.5241 89.8535L89.323 90.2973L88.9035 91.0539ZM92.2292 90.1513L91.8051 90.8913L91.0229 90.443L90.2361 89.9781L90.6436 89.2426L91.051 88.5072L91.8498 88.951L92.6487 89.3947L92.2292 90.1513ZM95.5549 89.2487L95.1308 89.9887L94.3486 89.5404L93.5619 89.0755L93.9693 88.3401L94.3767 87.6046L95.1756 88.0484L95.9744 88.4922L95.5549 89.2487ZM97.4845 88.1359C97.5973 88.5516 97.5852 88.5727 97.2681 88.391C97.0778 88.282 96.9572 88.1005 96.98 87.9872C97.1059 87.5959 97.3627 87.6869 97.4845 88.1359ZM72.6945 94.8102C72.708 94.8601 72.6641 94.9613 72.5778 95.0382C72.5082 95.1107 72.416 95.1 72.3935 95.0168C72.3664 94.9171 72.427 94.8114 72.5101 94.7888C72.6099 94.7617 72.6854 94.7769 72.6945 94.8102ZM74.4254 96.7149C74.2073 97.0954 73.9757 97.4261 73.8759 97.4532C73.7762 97.4803 73.3971 97.3332 73.0165 97.1151L72.3234 96.7319L72.7671 95.9331L73.2109 95.1342L74.0097 95.578L74.8086 96.0217L74.4254 96.7149ZM77.7511 95.8123C77.533 96.1929 77.3014 96.5235 77.2017 96.5506C77.1019 96.5777 76.7228 96.4306 76.3422 96.2125L75.6491 95.8294L76.0928 95.0305L76.5366 94.2316L77.3355 94.6754L78.1343 95.1192L77.7511 95.8123ZM81.0768 94.9097C80.8587 95.2903 80.6271 95.6209 80.5274 95.648C80.3112 95.7067 79.1997 95.0978 79.1411 94.8817C79.1185 94.7985 79.261 94.4028 79.4791 94.0222L79.8623 93.3291L80.6612 93.7728L81.46 94.2166L81.0768 94.9097ZM84.4025 94.0072C84.1845 94.3877 83.9695 94.7139 83.9196 94.7274C83.72 94.7816 82.5164 94.162 82.4713 93.9957C82.4442 93.8959 82.5867 93.5002 82.8048 93.1196L83.188 92.4265L83.9869 92.8703L84.7857 93.314L84.4025 94.0072ZM87.7282 93.1046C87.5102 93.4851 87.2619 93.8203 87.1743 93.8263C87.0745 93.8533 86.703 93.6685 86.3512 93.4248L85.711 92.9736L86.1184 92.2382L86.5137 91.5239L87.3126 91.9677L88.1114 92.4114L87.7282 93.1046ZM94.3433 91.3629L93.9193 92.1028L93.137 91.6545L92.3503 91.1896L92.7577 90.4542L93.1651 89.7188L93.964 90.1625L94.7628 90.6063L94.3433 91.3629ZM97.1115 89.1298C97.7337 89.5144 97.8493 90.0722 97.4707 90.7819C97.2405 91.1836 97.2405 91.1836 96.4582 90.7353L95.676 90.2871L96.0834 89.5516C96.3136 89.1499 96.5075 88.8117 96.5407 88.8027C96.5573 88.7981 96.811 88.9435 97.1115 89.1298ZM90.7651 91.1378L91.4462 91.5421L91.0176 92.2654L90.589 92.9888L89.8068 92.5405L89.0246 92.0922L89.3714 91.4625C89.5653 91.1242 89.8014 90.8102 89.9012 90.7831C90.0009 90.756 90.3846 90.9197 90.7651 91.1378ZM73.1533 98.9347C72.7459 99.6702 72.6884 99.7215 72.3335 99.5321C71.8774 99.2989 71.766 98.9542 71.8805 97.9947L71.9782 97.2362L72.777 97.68L73.597 98.1359L73.1533 98.9347ZM76.479 98.0322L76.0352 98.831L75.3421 98.4478C74.9615 98.2298 74.6309 97.9981 74.6038 97.8984C74.5767 97.7986 74.7238 97.4195 74.9418 97.0389L75.325 96.3458L76.1239 96.7895L76.9227 97.2333L76.479 98.0322ZM79.8047 97.1296L79.3609 97.9285L78.6678 97.5453C78.2872 97.3272 77.9566 97.0956 77.9295 96.9958C77.9024 96.896 78.0495 96.5169 78.2675 96.1364L78.6507 95.4432L79.4496 95.887L80.2485 96.3307L79.8047 97.1296ZM83.191 96.1213C82.9729 96.5019 82.7579 96.828 82.6914 96.8461C82.5085 96.8957 81.3003 96.2595 81.2552 96.0932C81.2281 95.9934 81.3752 95.6143 81.5933 95.2338L81.9764 94.5406L82.7753 94.9844L83.5742 95.4282L83.191 96.1213ZM86.4924 95.261C86.076 95.9632 86.0639 95.9843 85.576 95.8311C85.298 95.728 84.9598 95.5341 84.7892 95.3662C84.5583 95.1075 84.5721 94.9609 84.9068 94.3523L85.3021 93.6381L86.101 94.0818L86.8999 94.5256L86.4924 95.261ZM89.8182 94.3584L89.3896 95.0818L88.6767 94.7575C88.2886 94.5772 87.9458 94.3667 87.9187 94.2669C87.8795 94.1883 88.0266 93.8092 88.2447 93.4286L88.6279 92.7355L89.4267 93.1792L90.2256 93.623L89.8182 94.3584ZM93.1317 93.477L92.7077 94.217L91.9255 93.7687L91.1387 93.3038L91.5461 92.5683L91.9536 91.8329L92.7524 92.2767L93.5513 92.7204L93.1317 93.477ZM96.4696 92.5533L96.041 93.2766L95.3281 92.9523C94.94 92.772 94.5927 92.5449 94.5701 92.4618C94.5264 92.3665 94.6946 91.9995 94.8961 91.6235L95.3049 90.9591L96.0993 91.3862L96.877 91.8179L96.4696 92.5533ZM75.328 100.041C75.1099 100.421 74.8783 100.752 74.7785 100.779C74.5623 100.838 73.4509 100.229 73.3922 100.013C73.3696 99.9294 73.5122 99.5336 73.7303 99.1531L74.1135 98.4599L74.9123 98.9037L75.7112 99.3474L75.328 100.041ZM78.6537 99.138C78.4356 99.5186 78.204 99.8492 78.1042 99.8763C77.8881 99.935 76.7766 99.3261 76.7179 99.1099C76.6954 99.0268 76.8379 98.631 77.056 98.2505L77.4392 97.5573L78.238 98.0011L79.0369 98.4449L78.6537 99.138ZM81.9794 98.2354C81.7613 98.616 81.5297 98.9467 81.4299 98.9737C81.2138 99.0324 80.1023 98.4235 80.0436 98.2074C80.0211 98.1242 80.1636 97.7285 80.3817 97.3479L80.7649 96.6548L81.5637 97.0985L82.3626 97.5423L81.9794 98.2354ZM85.3051 97.3329C85.087 97.7134 84.8388 98.0486 84.739 98.0757C84.5395 98.1298 83.4099 97.4544 83.3558 97.2549C83.3377 97.1884 83.4893 96.8259 83.7074 96.4453L84.0906 95.7522L84.8894 96.196L85.6883 96.6397L85.3051 97.3329ZM88.5945 96.4937C88.122 97.3182 87.8968 97.3437 87.0559 96.6792L86.6014 96.3205L87.0089 95.5851L87.4163 94.8496L88.2151 95.2934L89.014 95.7371L88.5945 96.4937ZM91.9202 95.5912L91.4961 96.3311L90.7139 95.8828L89.9272 95.4179L90.3346 94.6825L90.742 93.947L91.5409 94.3908L92.3397 94.8346L91.9202 95.5912ZM95.2822 94.6252C94.7658 95.5509 94.799 95.5418 93.6847 94.7909C93.2695 94.5108 93.265 94.4942 93.6603 93.7799L94.0677 93.0445L94.8666 93.4882L95.6654 93.932L95.2822 94.6252ZM97.3756 93.1287C97.2235 93.8841 97.175 93.9686 96.8957 93.7945C96.6208 93.637 96.6149 93.5493 96.9254 92.983C97.4176 92.0996 97.5566 92.1512 97.3756 93.1287ZM72.1961 100.605C71.9552 101.099 71.8118 101.031 71.7914 100.429C71.7918 100.036 71.8282 99.9728 72.094 100.097C72.3553 100.205 72.3567 100.276 72.1961 100.605ZM74.0558 102.26L73.6121 103.059L72.9189 102.676C72.5384 102.458 72.2077 102.226 72.1806 102.127C72.1536 102.027 72.3006 101.648 72.5187 101.267L72.9019 100.574L73.7008 101.018L74.4996 101.462L74.0558 102.26ZM77.3816 101.358L76.9378 102.157L76.2446 101.774C75.8641 101.555 75.5334 101.324 75.5064 101.224C75.4793 101.124 75.6263 100.745 75.8444 100.365L76.2276 99.6715L77.0265 100.115L77.8253 100.559L77.3816 101.358ZM80.7073 100.455L80.2635 101.254L79.5703 100.871C79.1898 100.653 78.8591 100.421 78.8321 100.321C78.805 100.222 78.952 99.8426 79.1701 99.4621L79.5533 98.7689L80.3522 99.2127L81.151 99.6564L80.7073 100.455ZM84.0935 99.447C83.8755 99.8276 83.6438 100.158 83.5441 100.185C83.3279 100.244 82.2164 99.6351 82.1578 99.4189C82.1352 99.3358 82.2777 98.94 82.4958 98.5595L82.879 97.8663L83.6779 98.3101L84.4767 98.7539L84.0935 99.447ZM87.3587 98.6501L86.9149 99.449L86.2218 99.0658C85.8412 98.8477 85.5105 98.6161 85.4835 98.5163C85.4564 98.4166 85.6034 98.0375 85.8215 97.6569L86.2047 96.9638L87.0036 97.4075L87.8024 97.8513L87.3587 98.6501ZM90.745 97.6419C90.5269 98.0224 90.2953 98.3531 90.1955 98.3801C89.9793 98.4388 88.8678 97.8299 88.8092 97.6138C88.7866 97.5306 88.9292 97.1349 89.1472 96.7543L89.5304 96.0612L90.3293 96.5049L91.1281 96.9487L90.745 97.6419ZM94.0585 96.7604C93.5936 97.5472 93.3352 97.5816 92.4988 96.9338C92.0912 96.6159 92.0867 96.5993 92.482 95.885L92.8561 95.1586L93.655 95.6024L94.4539 96.0461L94.0585 96.7604ZM96.727 94.5544C96.9263 94.6967 96.9215 94.8765 96.7032 95.4535C96.3561 96.2797 96.2941 96.3144 95.7732 95.9737C95.3836 95.7224 95.3791 95.7058 95.7138 95.0972C96.097 94.404 96.3284 94.2698 96.727 94.5544ZM76.17 103.472L75.7262 104.271L74.9274 103.827L74.1285 103.383L74.5723 102.584L75.016 101.786L75.8149 102.229L76.6138 102.673L76.17 103.472ZM79.4957 102.569L79.0519 103.368L78.3588 102.985C77.9782 102.767 77.6476 102.535 77.6205 102.436C77.5934 102.336 77.7405 101.957 77.9586 101.576L78.3417 100.883L79.1406 101.327L79.9395 101.771L79.4957 102.569ZM82.8214 101.667L82.3776 102.466L81.6845 102.083C81.3039 101.864 80.9733 101.633 80.9462 101.533C80.9191 101.433 81.0662 101.054 81.2843 100.674L81.6674 99.9805L82.4663 100.424L83.2652 100.868L82.8214 101.667ZM89.5334 99.756C89.3153 100.137 89.0837 100.467 88.9839 100.494C88.7677 100.553 87.6563 99.9441 87.5976 99.7279C87.575 99.6448 87.7176 99.249 87.9357 98.8685L88.3189 98.1753L89.1177 98.6191L89.9166 99.0629L89.5334 99.756ZM85.8977 99.5822L86.5909 99.9654L86.1471 100.764L85.7033 101.563L85.0102 101.18C84.6296 100.962 84.299 100.73 84.2719 100.63C84.2132 100.414 84.8221 99.3028 85.0383 99.2442C85.1214 99.2216 85.5172 99.3642 85.8977 99.5822ZM92.5703 97.7892L93.2513 98.1935L92.8228 98.9169C92.4063 99.619 92.3897 99.6235 91.9381 99.4069C91.1195 99.022 90.9504 98.9251 90.9143 98.7921C90.8601 98.5925 91.5068 97.4887 91.7063 97.4345C91.8061 97.4074 92.1897 97.5711 92.5703 97.7892ZM95.5577 96.6928C96.0727 96.9458 96.0981 97.171 95.6772 97.8565C95.3698 98.3684 95.279 98.4288 94.9134 98.3316C94.2488 98.1192 94.1419 97.7912 94.5764 97.1555C95.0261 96.4443 95.0594 96.4353 95.5577 96.6928ZM73.0866 103.952C72.7972 104.53 72.6371 104.467 72.4295 103.702L72.2445 103.02L72.764 103.289C73.2458 103.551 73.2759 103.597 73.0866 103.952ZM74.9827 105.544C74.5101 106.368 74.2849 106.394 73.444 105.729L72.9896 105.371L73.397 104.635L73.8045 103.9L74.6033 104.344L75.4022 104.787L74.9827 105.544ZM81.6098 103.781L81.1661 104.58L80.4729 104.197C80.0924 103.979 79.7617 103.747 79.7346 103.647C79.7076 103.547 79.8546 103.168 80.0727 102.788L80.4559 102.095L81.2547 102.538L82.0536 102.982L81.6098 103.781ZM78.0347 103.502L78.7279 103.885L78.2841 104.684L77.8404 105.482L77.1472 105.099C76.7667 104.881 76.436 104.65 76.4089 104.55C76.3503 104.334 76.9591 103.222 77.1753 103.163C77.2584 103.141 77.6542 103.283 78.0347 103.502ZM84.6862 101.696L85.3793 102.08L84.9961 102.773C84.778 103.153 84.5298 103.488 84.43 103.516C84.2138 103.574 83.1145 102.944 83.0558 102.728C82.9972 102.512 83.6272 101.412 83.8267 101.358C83.9099 101.336 84.3056 101.478 84.6862 101.696ZM88.0119 100.794L88.705 101.177L88.2612 101.976L87.8175 102.775L87.1243 102.392C86.7438 102.173 86.4131 101.942 86.386 101.842C86.3274 101.626 86.9363 100.514 87.1524 100.456C87.2356 100.433 87.6313 100.576 88.0119 100.794ZM91.3376 99.8912L92.0307 100.274L91.6475 100.968C91.4294 101.348 91.1978 101.679 91.1147 101.701C90.9318 101.751 89.7479 101.073 89.7027 100.906C89.6486 100.707 90.2786 99.6073 90.4781 99.5532C90.5613 99.5306 90.957 99.6731 91.3376 99.8912ZM94.4941 98.8917L94.9849 99.187L94.5761 99.8514C94.3368 100.22 94.1007 100.534 94.0508 100.547C94.0009 100.561 93.7351 100.437 93.4558 100.263L92.965 99.9673L93.3073 99.3209C93.7269 98.5644 93.872 98.5071 94.4941 98.8917ZM77.1331 106.692C76.9151 107.073 76.6834 107.403 76.5837 107.43C76.3675 107.489 75.256 106.88 75.1974 106.664C75.1748 106.581 75.3173 106.185 75.5354 105.804L75.9186 105.111L76.7175 105.555L77.5163 105.999L77.1331 106.692ZM80.3983 105.895L79.9545 106.694L79.2613 106.311C78.8808 106.093 78.5501 105.861 78.5231 105.761C78.496 105.662 78.643 105.282 78.8611 104.902L79.2443 104.209L80.0432 104.653L80.842 105.096L80.3983 105.895ZM83.7482 104.95C83.2757 105.775 83.0505 105.8 82.2096 105.136L81.7552 104.777L82.1626 104.042L82.57 103.306L83.3689 103.75L84.1677 104.194L83.7482 104.95ZM86.8214 102.92L87.5025 103.324L87.0376 104.111L86.5727 104.898L85.8871 104.477C85.4975 104.226 85.179 103.973 85.1609 103.906C85.1113 103.723 85.7579 102.62 85.9575 102.565C86.0573 102.538 86.4409 102.702 86.8214 102.92ZM90.1471 102.017L90.8282 102.422L90.3996 103.145C89.9226 103.953 89.6974 103.978 88.861 103.331L88.4066 102.972L88.7534 102.342C88.9473 102.004 89.1834 101.69 89.2832 101.663C89.383 101.636 89.7666 101.799 90.1471 102.017ZM93.2614 100.994L93.7144 101.281L93.2709 101.884C92.7381 102.618 92.4931 102.702 92.0841 102.313C91.7988 102.051 91.8095 101.959 92.0913 101.418C92.482 100.688 92.6604 100.621 93.2614 100.994ZM79.1867 108.009L78.7429 108.808L78.0498 108.425C77.6692 108.207 77.3386 107.975 77.3115 107.875C77.2844 107.776 77.4315 107.397 77.6496 107.016L78.0327 106.323L78.8316 106.767L79.6305 107.21L79.1867 108.009ZM75.6539 107.754C76.1024 108.025 76.2986 108.222 76.1881 108.341C75.9914 108.537 75.6667 108.393 75.1082 107.849C74.5241 107.275 74.7826 107.241 75.6539 107.754ZM82.263 105.925L82.9562 106.308L82.5124 107.107L82.0686 107.906L81.3755 107.522C80.9949 107.304 80.6643 107.073 80.6372 106.973C80.5785 106.757 81.1874 105.645 81.4036 105.587C81.4867 105.564 81.8825 105.707 82.263 105.925ZM85.5887 105.022L86.2819 105.405L85.8381 106.204L85.3943 107.003L84.7012 106.62C84.3206 106.402 83.99 106.17 83.9629 106.07C83.9042 105.854 84.5131 104.743 84.7293 104.684C84.8124 104.661 85.2082 104.804 85.5887 105.022ZM88.9144 104.12L89.6076 104.503L89.1638 105.302L88.7201 106.1L88.0269 105.717C87.6464 105.499 87.3157 105.268 87.2886 105.168C87.23 104.952 87.8388 103.84 88.055 103.781C88.1381 103.759 88.5339 103.901 88.9144 104.12ZM91.8807 103.011C92.2114 103.243 92.1629 103.327 91.4094 104.103C90.9675 104.58 90.8723 104.624 90.726 104.413C90.5495 104.158 91.0814 102.96 91.414 102.87C91.5137 102.843 91.7282 102.91 91.8807 103.011ZM77.6835 108.917C78.6393 109.479 78.3928 109.689 77.334 109.208C76.9292 109.033 76.6696 108.8 76.709 108.682C76.8031 108.371 76.7487 108.367 77.6835 108.917ZM84.6265 108.318L84.1828 109.117L83.4896 108.734C83.1091 108.516 82.7784 108.284 82.7513 108.184C82.7243 108.085 82.8713 107.706 83.0894 107.325L83.4726 106.632L84.2715 107.076L85.0703 107.519L84.6265 108.318ZM81.0515 108.039L81.7446 108.422L81.3614 109.115C81.1433 109.496 80.8951 109.831 80.7953 109.858C80.5791 109.917 79.4798 109.287 79.4211 109.07C79.3625 108.854 79.9925 107.755 80.192 107.701C80.2752 107.678 80.6709 107.821 81.0515 108.039ZM87.724 106.246C88.5108 106.711 88.4803 106.862 87.5109 107.5C87.0073 107.815 86.8742 107.851 86.5194 107.662C86.3125 107.557 86.1086 107.398 86.0906 107.332C86.0319 107.116 86.6273 105.954 86.8434 105.896C86.9598 105.864 87.3601 106.023 87.724 106.246ZM90.2701 105.233C89.9235 105.667 89.6574 105.739 89.8377 105.351C89.918 105.186 90.1026 105.011 90.2523 104.97C90.473 104.928 90.482 104.962 90.2701 105.233ZM83.0176 109.166L83.5129 109.477L82.7646 109.681C81.8667 109.924 81.6854 109.848 81.9384 109.333C82.1959 108.835 82.4166 108.793 83.0176 109.166ZM86.0865 108.172C86.1469 108.263 86 108.445 85.7642 108.563C85.2259 108.816 85.108 108.777 85.3005 108.367C85.4566 108.022 85.9055 107.9 86.0865 108.172Z" fill="#6C6C6C"/>
<path d="M63.3141 107.479C63.4174 108.254 63.4055 109.329 63.3247 109.886L63.1527 110.897L63.9883 112.134C65.0261 113.656 66.2029 115.229 67.4704 116.741C68.2158 117.646 68.4058 117.952 68.345 118.254C68.2904 118.447 68.1979 118.633 68.1148 118.655C68.0317 118.678 67.1599 118.558 66.1657 118.381C65.1761 118.221 63.2527 117.975 61.8792 117.848L59.4208 117.605L58.3696 118.337C57.8009 118.741 56.8633 119.299 56.2751 119.566L55.2152 120.067L57.5317 120.117C60.9862 120.215 64.4812 120.463 66.1084 120.735C67.991 121.028 70.7795 121.896 70.7595 122.151C70.7534 122.26 73.7659 124.085 77.4868 126.217L84.2309 130.082L85.341 128.12L86.4723 126.171L79.7282 122.306C76.0073 120.173 72.9221 118.476 72.8646 118.527C72.6845 118.719 70.3645 116.617 69.3354 115.325C68.1646 113.839 64.6168 108.661 63.7376 107.132L63.1526 106.094L63.3141 107.479Z" fill="#6C6C6C"/>
<path d="M69.6433 105.868C69.6482 106.742 69.5519 108.821 69.4395 110.512L69.2423 113.6L70.0706 114.679C70.5338 115.267 70.9955 115.785 71.0922 115.812C71.3233 115.874 71.6767 113.689 71.9312 110.746L72.1153 108.464L71.6023 107.889C71.0725 107.319 70.2146 105.802 69.844 104.832C69.6934 104.408 69.6554 104.597 69.6433 105.868Z" fill="#6C6C6C"/>
<path d="M77.288 113.381C75.3838 114.719 72.6232 116.914 72.6593 117.047C72.6773 117.114 73.1515 117.413 73.7223 117.74C74.7371 118.322 74.7537 118.318 75.1804 117.916C75.722 117.412 81.1213 113.822 82.6049 112.973L83.733 112.328L82.5027 112.465C81.8226 112.525 80.7195 112.539 80.0576 112.468C79.3792 112.402 78.7975 112.364 78.7355 112.399C78.6856 112.412 78.0382 112.856 77.288 113.381Z" fill="#6C6C6C"/>
<path d="M63.0321 127.622L59.7003 133.436L61.6619 134.546L63.6114 135.678L67.1129 129.568L70.6264 123.437L69.8473 122.934C69.2161 122.516 66.8007 121.708 66.447 121.786C66.3971 121.799 64.8615 124.43 63.0321 127.622Z" fill="#6C6C6C"/>
<path d="M58.6002 134.645C58.2883 135.141 58.064 135.63 58.0911 135.73C58.1453 135.929 62.1968 138.293 62.3963 138.239C62.6957 138.158 63.5091 136.616 63.4188 136.283C63.3556 136.051 62.6264 135.534 61.3579 134.808C60.2842 134.206 59.3464 133.711 59.2799 133.729C59.2133 133.747 58.9 134.171 58.6002 134.645Z" fill="#6C6C6C"/>
<path d="M85.7518 128.187C84.9962 129.481 84.6355 130.258 84.7032 130.507C84.798 130.856 86.2748 131.759 86.624 131.664C86.8236 131.61 89.0832 127.569 89.0291 127.369C88.9704 127.153 87.2489 126.138 87.0494 126.192C86.9496 126.22 86.3697 127.109 85.7518 128.187Z" fill="#6C6C6C"/>
</svg>
