<svg width="459" height="480" viewBox="0 0 459 480" fill="none" xmlns="http://www.w3.org/2000/svg">
<path d="M200.812 33.2813C192.75 34.7813 184.312 38.625 182.25 41.8125C180.094 45 180.375 50.0625 182.906 53.5312C186.375 58.5 190.875 59.9062 211.688 62.4375C213.938 62.7187 215.625 63.0937 215.438 63.2812C215.344 63.4687 211.594 64.125 207.281 64.6875C195.562 66.2812 181.406 73.2187 178.594 78.8437C177.844 80.25 177.188 83.625 177.188 86.1562C177.188 90.2812 177.562 91.2187 180.562 94.125C184.5 97.875 187.406 99.0937 197.531 100.687L204.844 101.812L194.062 104.437C188.156 105.844 182.625 107.344 181.875 107.906C180.75 108.656 180.844 108.75 182.344 108.375C183.375 108.187 187.594 107.625 191.719 107.344C195.844 106.969 202.406 106.312 206.25 105.844C210.094 105.281 216.844 104.531 221.25 104.062C225.656 103.687 229.875 103.031 230.625 102.844C231.375 102.562 234.375 102.094 237.188 101.812C254.625 100.125 285.188 95.1562 283.125 94.4062C282.375 94.125 281.062 93.75 280.312 93.4687C279.562 93.2812 280.594 92.7187 282.656 92.3437C291.938 90.5625 299.25 85.9687 298.406 82.4062C297.75 80.0625 296.25 80.0625 296.25 82.4062C296.25 84.5625 293.625 85.6875 291.938 84.2812C290.906 83.4375 290.625 83.5312 290.625 84.5625C290.625 86.1562 288.188 88.5 285.562 89.4375C284.156 89.9062 283.969 89.8125 284.906 88.6875C285.844 87.6562 285.469 87.0937 283.031 85.875C281.344 85.0312 279.75 84.5625 279.562 84.8437C279.281 85.125 279.562 85.3125 280.125 85.3125C280.781 85.3125 281.25 85.7812 281.25 86.25C281.25 86.8125 280.125 87 278.719 86.8125C277.219 86.5312 274.406 86.25 272.344 86.0625C270.281 85.9687 267.75 85.125 266.812 84.1875C265.594 83.0625 263.531 82.5 260.812 82.5C257.344 82.5 256.781 82.3125 257.719 81.1875C258.469 80.3437 258.469 79.6875 257.906 79.3125C257.438 78.9375 256.688 79.2187 256.312 79.7812C255.844 80.5312 255.469 80.4375 254.906 79.5937C253.781 77.7187 254.812 76.875 257.719 77.4375C259.406 77.8125 260.719 77.5312 261.094 76.7812C261.656 75.9375 261.281 75.75 259.875 76.125C257.531 76.7812 256.219 75.2812 257.719 73.7812C258.469 73.0312 258.75 73.0312 258.75 73.7812C258.75 75.2812 271.031 77.25 271.875 75.8437C272.438 75.0937 272.719 75.0937 273 75.9375C273.281 76.7812 274.219 76.6875 276.562 75.375C279.844 73.6875 280.312 73.5 283.312 73.3125C285.562 73.0312 284.344 70.4062 281.531 69.2812C280.312 68.8125 279.562 67.9687 279.844 67.5C280.219 66.9375 280.875 66.75 281.344 67.0312C281.812 67.3125 283.031 66.75 284.156 65.8125C285.469 64.5 285.75 63.75 285 63.2812C284.438 62.9062 284.156 62.0625 284.438 61.3125C284.812 60.375 284.062 60 281.625 60C279.562 60 278.156 59.4375 277.875 58.5937C277.219 57 273.75 56.625 273.75 58.2187C273.75 59.3437 270.094 58.9687 263.906 57.1875C261.844 56.625 259.594 56.0625 259.031 56.0625C258.375 55.9687 257.812 55.5937 257.812 55.125C257.812 54.75 256.969 54.375 255.938 54.375C254.906 54.375 254.062 54.75 254.062 55.3125C254.062 57.0937 250.406 56.25 249.844 54.375C249.562 53.3437 248.719 52.4062 248.156 52.4062C247.5 52.3125 246.188 52.125 245.156 52.0312C244.031 51.9375 242.344 51.375 241.219 50.8125C240.188 50.25 239.062 50.0625 238.688 50.3437C238.406 50.625 238.125 50.4375 238.125 49.875C238.125 49.2187 237.469 48.75 236.719 48.75C235.969 48.75 235.312 47.9062 235.312 46.7812C235.312 45.6562 234.938 45.1875 234.281 45.4687C232.594 46.5937 228.75 45.0937 229.312 43.5937C229.688 42.8437 229.406 42.1875 228.844 42.1875C228.188 42.1875 227.531 42.8437 227.25 43.5937C226.594 45.1875 224.906 43.875 223.781 40.9687C223.5 40.125 222.562 39.375 221.719 39.375C220.969 39.375 220.312 39 220.312 38.625C220.312 38.25 221.156 37.875 222.188 37.875C223.219 37.875 224.062 38.4375 224.062 39C224.062 40.6875 226.594 42.4687 227.344 41.25C227.625 40.7812 227.438 40.3125 226.781 40.3125C226.031 40.3125 226.219 39.75 227.156 38.625C229.031 36.5625 229.219 33.1875 227.625 33C218.906 31.875 212.438 31.875 211.781 33C211.125 33.9375 210.938 33.9375 210.938 33C210.938 31.6875 209.719 31.6875 200.812 33.2813ZM279.75 71.625C279.281 72.8437 274.406 73.2187 273.281 72C272.906 71.7187 273.188 70.5937 273.844 69.5625C274.969 67.7812 275.25 67.7812 277.688 69C279.188 69.75 280.031 70.875 279.75 71.625ZM222.375 73.6875C226.875 73.875 231.656 74.5312 232.969 75C234.375 75.5625 236.438 75.9375 237.75 75.9375C239.344 75.9375 240 76.5 240 77.8125C240 78.75 240.469 80.625 241.031 81.8437C241.875 83.8125 241.688 84.4687 239.344 86.8125C235.406 90.9375 228.75 92.8125 220.125 92.3437C216.094 92.1562 212.062 91.5937 211.125 91.0312C210.281 90.5625 208.406 90.375 207.094 90.6562C205.688 90.9375 204.281 90.6562 204 90.0937C203.625 89.5312 202.312 89.0625 201 89.0625C199.688 89.0625 197.438 88.4062 195.938 87.6562C194.344 86.8125 192.938 86.25 192.656 86.25C188.719 86.3437 188.531 86.25 188.812 82.875C189 80.25 189.844 78.75 192.656 76.4062C195.938 73.6875 196.688 73.5 199.5 74.25C201.562 74.8125 203.531 74.8125 205.219 74.1562C208.781 72.75 211.219 72.375 212.812 72.8437C213.562 73.0312 217.875 73.4062 222.375 73.6875ZM254.812 74.4375C254.156 75.1875 253.406 75.5625 253.219 75.4687C252.75 74.9062 254.156 73.125 255.094 73.125C255.562 73.125 255.469 73.6875 254.812 74.4375ZM187.5 79.6875C187.5 80.1562 187.125 80.625 186.562 80.625C186.094 80.625 185.625 80.1562 185.625 79.6875C185.625 79.125 186.094 78.75 186.562 78.75C187.125 78.75 187.5 79.125 187.5 79.6875Z" fill="#6C6C6C"/>
<path d="M290.156 70.3125C290.438 70.7812 291.188 71.25 291.656 71.25C292.219 71.25 292.313 70.7812 292.031 70.3125C291.75 69.75 291 69.375 290.531 69.375C289.969 69.375 289.875 69.75 290.156 70.3125Z" fill="#6C6C6C"/>
<path d="M286.594 82.875C286.219 83.8125 286.125 84.8438 286.406 85.125C287.25 85.9688 288 84.5625 287.625 82.7813C287.344 81.1875 287.25 81.1875 286.594 82.875Z" fill="#6C6C6C"/>
<path d="M171.844 116.25C170.25 117.188 168.375 118.875 167.813 119.906C167.25 121.031 166.219 121.875 165.375 121.875C164.344 121.875 164.25 121.5 165 120.094C166.313 117.563 166.219 117.375 163.688 117.844C158.531 118.875 152.156 128.531 151.313 136.688C150.844 141.375 151.125 142.688 153.469 147.188C156.938 153.656 165.75 161.25 173.063 163.969C176.063 165.094 181.688 166.688 185.625 167.438C189.469 168.188 195.188 169.313 198.188 169.875L203.719 170.906L197.719 172.594C194.438 173.531 188.344 175.125 184.219 176.063L176.719 177.844L189.375 177.469C201.563 177.094 229.594 175.406 257.344 173.344C272.719 172.219 285.844 169.969 287.813 168.188C288.75 167.25 288.75 166.875 288 166.875C286.031 166.875 286.781 165.375 289.313 164.25C290.625 163.594 291.375 162.656 291.094 162.094C290.625 161.438 289.969 161.531 289.031 162.281C288.188 163.031 287.438 163.125 287.063 162.563C286.219 161.438 274.125 160.875 273.375 162C272.813 162.938 264.563 161.906 261.844 160.5C259.313 159.188 253.313 160.219 252.844 162.094C252.469 163.5 252.375 163.5 252.281 162.094C252.281 161.25 251.063 160.219 249.656 159.844C248.156 159.469 246.469 158.719 245.719 158.156C245.063 157.594 243.281 157.219 241.781 157.313C240.281 157.5 239.063 157.219 239.063 156.75C239.063 155.438 234.75 156 232.969 157.5C231.563 158.625 231.375 158.438 231.188 155.625C231.094 154.688 230.063 154.219 228 154.219C226.406 154.219 225 154.5 225 154.875C225 156.375 223.406 155.531 222.281 153.469L221.25 151.406L221.813 153.469C222.375 156 220.313 156.469 218.438 154.219C217.125 152.625 217.969 150.938 220.031 150.938C222.094 150.938 221.344 150.375 218.156 149.625C216.375 149.25 215.719 149.344 216.094 150C216.375 150.469 216.094 150.938 215.25 150.938C214.5 150.938 213.75 150.375 213.563 149.813C213.281 149.063 211.313 148.594 208.406 148.594C205.781 148.594 203.813 148.313 204 148.031C204.188 147.656 203.719 146.906 202.969 146.25C201.656 145.125 197.813 145.781 197.813 147.188C197.813 147.563 197.156 148.219 196.313 148.5C195.188 148.875 194.906 148.688 195.375 147.656C196.031 145.875 195.094 143.25 193.969 144C193.5 144.281 193.125 143.625 193.125 142.594C193.125 140.344 191.531 139.688 188.719 140.719C187.313 141.188 186.563 141.188 186.563 140.531C186.563 139.969 186.188 139.781 185.719 140.156C185.25 140.438 184.594 140.25 184.219 139.688C183.844 139.125 183.281 138.938 182.813 139.219C182.344 139.5 181.688 139.219 181.313 138.656C180.094 136.688 179.25 131.25 180.094 130.688C180.563 130.406 180.938 129.375 180.938 128.438C180.938 126.375 178.406 126.844 177.938 129C177.75 129.75 177.188 129.938 176.438 129.469C175.125 128.719 175.781 125.906 177.469 125.344C178.125 125.156 177.844 125.063 176.906 125.25C176.063 125.344 174.938 124.781 174.469 123.938C173.719 122.531 173.438 122.625 171.844 124.5L170.156 126.656L169.969 122.344C169.875 120 170.063 118.125 170.438 118.125C171.188 118.125 175.969 114.469 175.313 114.375C175.031 114.375 173.531 115.219 171.844 116.25Z" fill="#6C6C6C"/>
<path d="M130.594 199.406C129.656 200.812 127.781 203.25 126.375 204.75C123.469 207.75 123.375 208.031 124.688 210C125.25 210.937 125.625 211.031 125.625 210.187C125.625 209.625 126.188 209.062 126.844 209.062C127.406 209.062 126.844 210.094 125.438 211.312C123.188 213.281 123 214.031 123.375 218.156C123.844 223.687 125.906 226.5 131.719 229.969C140.062 234.844 144.75 235.687 167.344 235.875C203.344 236.156 242.719 237.094 245.156 237.75C247.781 238.406 248.156 239.531 246 240.375C243.75 241.219 219.562 240.937 213.75 239.906C199.031 237.375 180.188 238.125 159.656 241.969C145.5 244.687 135.656 248.437 136.594 250.875C137.062 252.187 135.469 252.75 134.719 251.437C134.531 251.062 134.531 251.344 134.719 252C134.812 252.75 135 253.875 135 254.531C135 256.781 138.938 254.812 139.875 252.094C140.531 250.219 141.844 249.094 144.656 248.062C146.812 247.312 149.25 246.656 150 246.656C150.75 246.656 154.125 246.094 157.5 245.344C160.875 244.594 166.781 243.656 170.625 243.281C177.188 242.625 207.188 242.25 211.406 242.719C212.438 242.812 218.25 242.906 224.438 242.812C232.875 242.625 235.781 242.906 236.344 243.937C236.906 244.875 237.188 244.875 237.188 243.937C237.188 243.281 238.5 242.812 240.375 242.812C242.156 242.812 243.844 243.375 244.031 243.937C244.406 244.875 244.688 244.875 245.438 243.937C246.375 242.531 263.062 243.281 264.938 244.781C265.781 245.437 266.812 245.437 268.219 244.687C269.625 243.937 270.469 243.844 270.844 244.5C271.219 245.062 272.906 245.812 274.594 246.094C277.125 246.562 277.594 246.375 277.219 245.156C276.75 244.125 277.312 243.75 279.281 243.75C282.75 243.75 285.094 244.687 284.438 245.719C284.156 246.187 285 246.937 286.312 247.5C289.031 248.531 294.375 247.781 294.375 246.375C294.375 245.906 293.531 245.719 292.594 246.094C291.375 246.469 290.156 245.906 288.938 244.687C287.531 243.187 284.812 242.344 278.344 241.312C262.969 238.875 263.25 238.5 281.812 237.187C300.844 235.969 317.062 232.5 324.375 228.281L326.719 226.969H323.906C322.406 226.969 319.312 227.344 317.062 227.719C314.625 228.187 312.844 228.187 312.469 227.625C312.188 227.062 310.125 226.875 307.594 227.25C305.25 227.625 301.781 228.094 300 228.375C294.281 229.125 275.062 229.031 273.656 228.187C272.156 227.25 269.062 227.625 267.656 228.75C267.094 229.219 266.156 229.312 265.594 228.937C263.906 227.906 254.906 228.469 253.781 229.594C252.375 231 249.844 230.906 248.531 229.312C247.5 228 239.531 227.062 228.281 226.687C222.094 226.594 220.125 226.125 220.781 225C220.969 224.625 219.375 224.719 217.219 225.187C208.219 227.156 208.688 227.156 207.375 224.25C206.25 221.719 205.875 221.531 203.156 222.187C195.281 224.156 191.062 225 188.906 225C187.688 225 186.188 225.75 185.719 226.594C185.156 227.531 184.688 227.719 184.688 227.156C184.688 226.312 184.031 226.219 182.531 226.781C179.625 227.906 165.562 227.25 163.031 225.937C161.719 225.187 160.781 225.187 159.938 225.844C159.188 226.5 157.688 226.125 154.875 224.531C152.625 223.312 151.125 222.656 151.406 223.125C151.688 223.5 151.312 224.062 150.75 224.344C149.812 224.625 149.812 225 150.844 226.219C152.438 228.281 151.5 228.281 149.531 226.312C148.219 225 146.531 224.344 139.5 222.656C136.031 221.906 132.188 218.906 132.188 217.031C132.188 216 131.812 215.531 131.438 216.094C129.562 218.719 127.5 219.562 126.094 218.437C124.031 216.75 124.406 215.437 126.656 216.094C128.344 216.656 128.531 216.469 127.969 214.781C127.688 213.75 128.062 211.687 128.812 210.187C129.75 208.406 129.938 207.187 129.281 206.531C128.719 205.969 128.812 205.219 129.844 204.375C130.594 203.719 131.25 202.5 131.25 201.656C131.25 200.812 131.719 199.594 132.375 198.937C132.938 198.375 133.219 197.625 132.938 197.25C132.562 196.969 131.531 197.906 130.594 199.406ZM274.406 244.312C274.125 244.594 273.281 244.687 272.625 244.406C271.875 244.125 272.156 243.844 273.188 243.844C274.219 243.75 274.781 244.031 274.406 244.312Z" fill="#6C6C6C"/>
<path d="M146.719 207.281C146.344 207.844 146.25 208.406 146.531 208.687C146.719 208.969 147.187 208.5 147.469 207.656C148.125 206.062 147.562 205.781 146.719 207.281Z" fill="#6C6C6C"/>
<path d="M197.344 218.437C196.969 219 197.156 220.031 197.719 220.594C199.125 222 200.063 220.781 198.938 218.812C198.281 217.687 197.906 217.594 197.344 218.437Z" fill="#6C6C6C"/>
<path d="M279.375 246.937C279.375 247.781 280.031 248.063 281.25 247.781C282.281 247.5 283.125 246.937 283.125 246.469C283.125 246 282.281 245.625 281.25 245.625C280.219 245.625 279.375 246.187 279.375 246.937Z" fill="#6C6C6C"/>
<path d="M124.5 255.656C114.656 261.281 106.969 269.625 103.688 278.156C98.3438 292.219 102.094 303.938 116.625 317.531C124.219 324.656 134.625 330.469 150.938 336.563C156.281 338.531 160.875 340.594 161.063 341.063C161.156 341.531 156 342.188 149.344 342.563C133.406 343.406 120 346.969 120 350.344C120 352.5 122.719 352.781 128.437 351.188C136.594 348.844 160.125 347.531 179.531 348.188C195.75 348.75 200.25 349.313 220.5 353.063C228.469 354.563 230.719 354.656 239.719 353.625C245.25 352.969 252.187 352.031 255 351.563C266.25 349.406 291.469 345 297.656 343.969C301.313 343.406 305.25 342.281 306.563 341.438C307.875 340.594 309.75 339.469 310.688 338.906C313.5 337.406 313.594 335.625 310.875 335.625C309.656 335.625 308.25 336.094 307.969 336.563C307.5 337.313 306.938 337.219 306.094 336.563C305.344 335.906 304.406 335.719 303.938 336C302.625 336.75 298.312 337.406 290.906 337.875L284.062 338.344V335.063C284.062 333.281 283.687 331.875 283.125 331.875C282.656 331.875 282.187 333.563 282.187 335.625C282.187 337.688 281.812 339.375 281.25 339.375C280.781 339.375 280.312 339.094 280.312 338.625C280.312 338.25 279.281 337.5 278.062 336.938C276.281 336.094 275.719 336.188 274.781 337.781C273.656 339.469 273.562 339.469 271.781 337.875C270.187 336.375 270 336.375 270 337.781C270 338.719 269.625 339.375 269.062 339.375C267.937 339.375 267.937 339.188 269.062 336.188C269.625 334.594 269.625 333.75 269.062 333.75C268.5 333.75 268.125 334.594 268.125 335.625C268.125 337.594 266.719 338.156 265.781 336.563C265.5 336 265.687 335.625 266.156 335.625C266.719 335.625 267.187 335.156 267.187 334.688C267.187 334.125 266.25 333.75 265.031 333.75C263.812 333.75 262.406 333.281 261.844 332.719C261.187 332.063 258.187 331.594 255.094 331.5C252 331.5 249.844 331.219 250.312 331.125C250.875 330.938 251.25 330.094 251.25 329.344C251.25 328.125 250.969 328.125 249.844 329.063C248.719 330 248.344 329.906 247.875 328.594C247.406 327.469 246.375 327.188 243.844 327.375C240.937 327.656 240.469 327.375 240.187 325.5C239.812 322.969 238.406 322.781 237.656 325.313C237.281 326.625 236.25 327.188 234.562 327.188L232.031 327.094L234.187 325.313C235.969 323.813 236.156 323.156 235.312 321.563C234.75 320.531 233.625 319.688 232.875 319.688C231.75 319.688 231.469 319.125 231.937 317.344C232.406 315.563 232.125 315 231 315C229.687 315 229.594 315.75 230.062 319.406C230.437 322.5 230.344 323.438 229.781 322.406C229.312 321.656 228.656 319.219 228.375 317.063C228 313.969 228.187 313.125 229.312 313.125C230.062 313.125 230.531 312.75 230.25 312.281C229.969 311.813 228.75 311.625 227.625 312C226.125 312.375 225.844 312.188 226.406 311.25C226.875 310.5 226.781 310.219 226.125 310.688C225.562 310.969 224.719 310.5 224.156 309.656C223.594 308.719 223.125 308.531 223.125 309.094C223.125 311.063 220.781 310.5 217.969 307.969C215.344 305.438 213.656 305.25 213 307.594C212.719 308.719 212.812 308.625 213.656 307.5C214.406 306.375 215.062 306.563 217.5 308.906C219 310.406 220.312 312.188 220.312 312.844C220.312 313.5 220.875 314.063 221.531 314.156C222.094 314.156 221.625 314.531 220.5 315.094C219.281 315.563 217.969 315.75 217.5 315.469C217.125 315.188 216.469 315.656 216.187 316.5C215.156 319.031 215.531 321.375 217.125 321.938C217.875 322.219 218.25 322.875 217.969 323.438C217.125 324.844 216.187 324.563 213.844 322.406C211.312 320.063 209.906 320.813 212.156 323.25C214.125 325.406 214.219 327.188 212.437 327.188C211.594 327.188 211.312 326.531 211.594 325.313C211.875 324.281 211.594 323.438 211.031 323.438C210.469 323.438 210 322.5 210 321.281C210 320.156 209.156 318.469 208.125 317.531C207.094 316.688 206.25 315.281 206.25 314.438C206.25 313.5 205.687 313.219 204.469 313.594C203.156 313.969 202.594 313.5 202.219 311.25C201.656 308.719 201.281 308.438 198.375 308.625C195.562 308.906 195 309.375 194.438 311.438C194.156 312.938 193.5 314.063 193.031 314.063C192.563 314.063 191.906 314.156 191.531 314.25C190.688 314.625 189.375 308.344 190.031 307.219C190.219 306.844 191.063 306.938 191.813 307.594C192.844 308.438 193.125 308.344 193.125 307.125C193.125 304.594 192.938 304.219 192 304.5C191.531 304.594 191.344 304.313 191.625 303.844C191.906 303.375 191.438 302.438 190.594 301.781C189.188 300.656 189.094 300.656 189.656 302.063C190.313 304.031 189.375 304.313 187.688 302.625C186.844 301.781 186.563 301.875 186.563 303.094C186.563 303.938 187.313 304.969 188.156 305.531C189.094 306 189.563 306.75 189.188 307.125C188.25 307.969 185.625 305.719 185.625 304.125C185.625 303.375 185.156 302.813 184.688 302.813C184.031 302.813 183.938 304.031 184.313 306.094C184.688 308.344 184.5 309.375 183.75 309.375C183.094 309.375 182.906 308.625 183.281 307.5C183.656 306.375 183.469 305.625 182.813 305.625C182.25 305.625 182.063 304.688 182.438 303.281C182.813 301.875 182.625 300.938 181.969 300.938C181.406 300.938 180.938 301.594 180.938 302.438C180.938 303.281 180.188 304.594 179.344 305.25C178.406 305.906 178.031 306.75 178.406 307.125C178.781 307.594 179.531 307.313 180 306.563C180.656 305.531 180.938 305.813 180.938 307.688C180.938 309.188 180.375 310.313 179.813 310.406C179.156 310.406 177.656 310.594 176.531 310.875C174.188 311.25 172.781 308.719 174.469 307.125C175.313 306.375 175.406 306.563 174.938 307.781C174.563 309 174.75 309.375 175.5 309.188C176.156 308.906 176.813 307.313 177 305.531C177.188 303.563 178.219 301.5 179.813 300.094C181.406 298.688 181.688 298.031 180.75 298.406C179.625 298.781 179.063 298.5 179.063 297.656C179.063 296.906 178.688 296.25 178.219 296.25C177.75 296.25 177.188 295.406 176.906 294.375C176.625 293.344 175.219 292.031 173.719 291.375C172.313 290.719 170.813 289.781 170.438 289.219C170.063 288.75 169.688 289.313 169.688 290.531C169.688 292.406 169.5 292.5 168.281 291.563C167.531 290.906 166.875 289.688 166.875 288.844C166.781 287.531 166.688 287.531 165.938 288.844C165.469 289.688 165.469 291.75 165.938 294C167.063 298.5 167.063 299.906 166.125 298.5C164.906 296.531 162.656 296.531 161.063 298.5C160.031 299.625 159.563 299.906 159.844 299.063C160.5 297.188 159.281 295.594 156.563 294.563L154.313 293.719L156.938 291.094C159 289.031 159.75 288.75 160.406 289.781C161.063 290.813 161.25 290.719 161.25 289.406C161.25 288.469 160.219 287.344 158.906 286.875C157.594 286.406 156.563 285.563 156.563 285C156.563 284.438 156.188 284.25 155.625 284.531C155.156 284.813 154.688 284.438 154.688 283.688C154.688 282.844 155.531 282.188 156.563 282.188C157.594 282.188 158.438 282.844 158.438 283.688C158.438 284.438 158.906 284.813 159.375 284.531C160.969 283.594 158.531 281.25 156.094 281.25C152.719 281.25 151.781 283.125 153 287.531C153.75 290.813 153.75 291.75 152.438 292.969C150.75 294.75 150.563 294.188 150.938 288.281C151.125 285.188 150.938 284.813 149.719 285.75C148.969 286.406 148.594 287.813 148.875 289.313C149.25 291.563 149.156 291.656 147.281 290.531C146.156 289.781 145.312 288.281 145.312 286.875C145.312 285.375 145.594 284.906 146.062 285.656C147.187 287.438 150.281 285 149.531 282.938C148.594 280.688 146.719 280.313 144.375 281.906C142.969 282.844 142.5 283.969 142.875 285.375C143.062 286.406 142.687 288.188 141.937 289.125C141.187 290.156 140.625 290.438 140.625 289.875C140.625 289.219 139.781 287.906 138.75 286.875C137.719 285.844 136.875 284.438 136.969 283.781C136.969 282.938 137.156 282.938 137.531 283.875C137.719 284.438 138.375 284.813 138.844 284.531C139.312 284.156 139.406 284.625 139.125 285.375C138.75 286.313 139.031 286.875 139.781 286.875C140.437 286.875 140.719 286.594 140.344 286.313C140.062 286.031 140.25 284.719 140.719 283.406C141.469 281.438 141.375 281.156 140.156 281.531C139.406 281.906 138.187 281.344 137.437 280.219C136.125 278.344 134.25 279.281 135.469 281.156C135.75 281.625 135.562 282.281 135 282.656C134.437 283.031 134.062 282.094 134.062 280.594C134.062 278.344 134.437 277.875 136.406 277.875C137.719 277.875 138.75 278.344 138.75 279C138.75 279.656 139.5 279.938 140.531 279.656C143.062 279 142.875 273.094 140.344 272.438C139.031 272.156 138.75 272.344 139.219 273.563C139.5 274.406 139.5 274.781 139.125 274.5C138.75 274.125 137.625 274.313 136.594 274.875C134.156 276.188 132.187 273.75 132.281 269.625L132.375 266.719L133.406 269.25C133.969 270.75 134.719 271.875 135 271.875C135.844 271.875 134.531 263.625 133.594 262.688C133.219 262.313 133.031 262.969 133.312 264.094C133.687 265.594 133.5 265.969 132.469 265.594C131.812 265.313 131.25 264.375 131.344 263.531C131.625 260.906 131.25 259.688 130.312 259.688C129.844 259.688 129.375 260.25 129.375 261C129.375 262.875 127.594 263.906 126.375 262.688C125.156 261.469 126 258 127.969 255.469C129.281 253.875 129.469 253.781 129 255.281C128.719 256.313 128.812 256.781 129.375 256.406C129.937 256.125 130.312 255.188 130.312 254.438C130.312 253.688 130.781 253.125 131.344 253.125C131.812 253.125 132 253.5 131.719 254.063C131.437 254.531 131.625 255 132.094 255C133.312 255 133.406 254.063 132.375 252.563C131.906 251.813 129.469 252.75 124.5 255.656ZM129.094 267.563C128.906 268.125 129.281 269.156 130.031 269.813C131.344 271.125 130.875 272.813 129.187 272.813C128.719 272.813 128.437 272.25 128.719 271.594C128.906 271.031 128.156 269.719 126.937 268.781C125.062 267.375 124.688 267.375 124.688 268.5C124.688 269.25 124.219 270.188 123.656 270.469C121.875 271.594 121.688 270.188 123.188 267.844C124.313 266.156 125.344 265.688 127.125 266.063C128.344 266.25 129.281 267 129.094 267.563ZM119.719 275.813C119.438 276.563 119.156 276.281 119.156 275.25C119.063 274.219 119.344 273.656 119.625 274.031C119.906 274.313 120 275.156 119.719 275.813ZM132.187 275.156C133.125 276.281 133.125 276.563 131.812 276.563C130.969 276.563 130.312 275.906 130.312 275.156C130.312 274.406 130.5 273.75 130.687 273.75C130.875 273.75 131.531 274.406 132.187 275.156ZM126.75 283.5C126.469 283.969 125.906 283.594 125.531 282.563C124.406 279.656 124.594 278.906 126 280.781C126.75 281.813 127.125 283.031 126.75 283.5ZM132.844 285.188C132.562 285.938 132.281 285.656 132.281 284.625C132.187 283.594 132.469 283.031 132.75 283.406C133.031 283.688 133.125 284.531 132.844 285.188ZM120.75 287.906C120.469 288.656 120.094 288.188 119.719 286.969C119.344 285.375 119.438 285 120.188 285.75C120.656 286.219 120.938 287.25 120.75 287.906ZM137.812 289.5C137.812 289.781 136.969 289.219 135.937 288.281C134.906 287.344 134.062 286.125 134.062 285.656C134.062 285.094 134.906 285.656 135.937 286.875C136.969 288.094 137.812 289.219 137.812 289.5ZM139.969 294.844C140.906 296.156 141.469 297.188 141.187 297.188C140.344 297.188 136.875 294 136.875 293.25C136.875 291.844 138.281 292.594 139.969 294.844ZM170.344 294.188C171.938 295.219 170.25 297.563 168.375 296.906C167.531 296.531 166.875 295.688 166.875 294.844C166.875 293.344 168.469 292.969 170.344 294.188ZM176.063 294.563C175.5 296.25 173.438 296.531 173.438 294.938C173.438 294.094 174.094 293.438 174.938 293.438C175.781 293.438 176.25 293.906 176.063 294.563ZM151.875 300.469C151.875 302.625 151.594 303 150.938 301.875C150.469 301.125 150 299.156 150 297.656C150 295.5 150.281 295.125 150.938 296.25C151.406 297 151.875 298.875 151.875 300.469ZM156.094 298.031C156.375 298.5 156.188 299.156 155.719 299.438C155.25 299.719 154.688 299.344 154.313 298.594C153.75 297.094 155.156 296.625 156.094 298.031ZM176.25 300C176.25 300.469 175.688 300.656 174.938 300.375C173.25 299.719 172.031 302.906 173.625 303.844C174.281 304.219 174.469 304.875 174.188 305.25C173.438 305.906 168.75 301.5 168.75 300.094C168.75 299.625 170.156 299.063 171.844 298.875C175.219 298.5 176.25 298.781 176.25 300ZM164.906 303.094C165 303.563 164.625 303.563 164.063 303.281C163.594 303 163.125 301.781 163.219 300.656C163.219 298.688 163.313 298.688 164.063 300.469C164.531 301.5 164.906 302.719 164.906 303.094ZM184.219 313.875C183.938 314.156 183.188 313.875 182.531 313.219C181.688 312.281 181.781 312.188 183.094 312.75C184.031 313.031 184.5 313.594 184.219 313.875ZM200.062 313.594C200.344 314.344 201.469 315 202.5 315C203.531 315 204.375 315.375 204.375 315.938C204.375 317.438 202.219 316.969 199.969 315.094C197.719 313.219 197.25 312.188 198.656 312.188C199.125 312.188 199.687 312.844 200.062 313.594ZM225.469 313.969C225.187 314.438 225.375 315.094 225.937 315.469C227.531 316.5 226.969 318.75 225.094 318.75C222.75 318.75 221.906 316.313 223.687 314.531C225.281 312.938 226.312 312.656 225.469 313.969ZM181.875 315C181.875 315.469 181.5 315.938 180.938 315.938C180.469 315.938 180 315.469 180 315C180 314.438 180.469 314.063 180.938 314.063C181.5 314.063 181.875 314.438 181.875 315ZM200.625 317.813C200.625 318.094 200.156 318.938 199.687 319.688C198.937 320.906 198.75 320.813 198.75 319.406C198.75 318.469 198.375 318 197.812 318.281C196.219 319.313 194.813 317.813 195.938 316.406C196.781 315.375 197.437 315.281 198.844 316.219C199.781 316.781 200.625 317.531 200.625 317.813ZM192.844 317.813C192.75 318.844 192.375 319.688 192 319.688C191.625 319.688 191.25 318.844 191.25 317.813C191.25 316.781 191.625 315.938 192.094 315.938C192.656 315.938 192.938 316.781 192.844 317.813ZM185.438 320.25C186.281 322.031 186.281 322.5 185.156 322.5C183.656 322.5 182.531 320.906 182.344 318.656C182.156 316.406 184.219 317.438 185.438 320.25ZM221.625 319.125C221.344 320.344 221.531 321.656 222.094 321.938C222.656 322.313 223.125 322.125 223.125 321.656C223.125 321.094 224.062 320.625 225.281 320.625C227.156 320.719 227.25 320.813 225.75 321.938C224.812 322.594 224.062 323.625 224.062 324.188C224.062 324.656 223.406 325.406 222.562 325.688C220.312 326.531 219.937 326.344 221.25 324.844C222.187 323.719 222.187 323.063 221.062 321.75C219.656 320.063 219.844 316.875 221.344 316.875C221.812 316.875 222 317.906 221.625 319.125ZM208.594 319.688C208.875 320.156 208.687 320.625 208.219 320.625C207.656 320.625 207.187 320.156 207.187 319.688C207.187 319.125 207.375 318.75 207.562 318.75C207.844 318.75 208.312 319.125 208.594 319.688ZM221.25 328.313C221.25 328.781 220.5 329.063 219.656 329.063C218.062 329.063 214.687 326.438 214.687 325.219C214.687 324.188 221.156 327.375 221.25 328.313ZM204.844 327.188C205.125 327.656 205.031 328.125 204.469 328.125C204 328.125 203.25 327.656 202.969 327.188C202.687 326.625 202.781 326.25 203.344 326.25C203.812 326.25 204.562 326.625 204.844 327.188ZM225.656 328.313C225.375 329.063 225.094 328.781 225.094 327.75C225 326.719 225.281 326.156 225.562 326.531C225.844 326.813 225.937 327.656 225.656 328.313ZM207.656 328.125C207.937 328.594 207.75 329.063 207.281 329.063C206.719 329.063 206.25 328.594 206.25 328.125C206.25 327.563 206.437 327.188 206.625 327.188C206.906 327.188 207.375 327.563 207.656 328.125ZM238.125 329.063C238.125 329.531 237.656 330 237.094 330C236.625 330 236.437 329.531 236.719 329.063C237 328.5 237.469 328.125 237.75 328.125C237.937 328.125 238.125 328.5 238.125 329.063ZM226.312 332.438C226.594 333.188 226.5 333.563 225.937 333.281C225.375 333 225 332.344 225 331.781C225 330.469 225.656 330.75 226.312 332.438ZM241.875 331.875C241.875 332.344 241.5 332.813 240.937 332.813C240.469 332.813 240 332.344 240 331.875C240 331.313 240.469 330.938 240.937 330.938C241.5 330.938 241.875 331.313 241.875 331.875ZM256.031 335.719C255.375 337.313 255.094 337.5 255.094 336.281C255 335.438 254.344 334.688 253.594 334.688C251.344 334.688 252 333 254.344 332.625C256.875 332.25 257.156 332.813 256.031 335.719ZM244.687 333.188C244.687 333.469 244.312 333.938 243.75 334.219C243.281 334.5 242.812 334.313 242.812 333.844C242.812 333.281 243.281 332.813 243.75 332.813C244.312 332.813 244.687 333 244.687 333.188ZM260.344 335.156C261.094 336 261.562 336.844 261.375 337.125C260.531 337.969 257.812 336.375 257.812 335.063C257.812 333.375 258.562 333.375 260.344 335.156Z" fill="#6C6C6C"/>
<path d="M140.25 257.531C139.687 258.844 139.781 258.938 140.719 258.094C141.375 257.438 141.656 256.688 141.375 256.406C141.094 256.125 140.531 256.594 140.25 257.531Z" fill="#6C6C6C"/>
<path d="M134.062 259.687C134.062 260.156 134.719 260.344 135.469 260.062C136.219 259.687 136.875 259.312 136.875 259.125C136.875 258.937 136.219 258.75 135.469 258.75C134.719 258.75 134.062 259.125 134.062 259.687Z" fill="#6C6C6C"/>
<path d="M144.844 261.562C145.125 262.031 145.594 262.5 145.875 262.5C146.063 262.5 146.25 262.031 146.25 261.562C146.25 261 145.781 260.625 145.219 260.625C144.75 260.625 144.563 261 144.844 261.562Z" fill="#6C6C6C"/>
<path d="M137.812 262.781C137.812 263.437 138.656 264 139.688 264.094C140.719 264.187 141.562 264.094 141.562 263.906C141.562 263.719 140.719 263.062 139.688 262.5C138.281 261.75 137.812 261.75 137.812 262.781Z" fill="#6C6C6C"/>
<path d="M138.188 269.531C136.5 270.844 136.5 270.844 138.469 270.938C140.625 270.938 142.125 269.531 140.813 268.688C140.344 268.406 139.125 268.781 138.188 269.531Z" fill="#6C6C6C"/>
<path d="M150 272.812C150 273.281 150.469 273.75 150.938 273.75C151.5 273.75 151.875 273.281 151.875 272.812C151.875 272.25 151.5 271.875 150.938 271.875C150.469 271.875 150 272.25 150 272.812Z" fill="#6C6C6C"/>
<path d="M146.25 278.063C146.25 278.813 146.719 279.188 147.188 278.906C147.75 278.531 147.938 277.875 147.656 277.406C146.812 276.094 146.25 276.375 146.25 278.063Z" fill="#6C6C6C"/>
<path d="M149.062 278.438C149.062 278.906 149.531 279.375 150 279.375C150.562 279.375 150.938 278.906 150.938 278.438C150.938 277.875 150.562 277.5 150 277.5C149.531 277.5 149.062 277.875 149.062 278.438Z" fill="#6C6C6C"/>
<path d="M190.781 278.438C191.063 278.906 191.531 279.375 191.813 279.375C192 279.375 192.188 278.906 192.188 278.438C192.188 277.875 191.719 277.5 191.156 277.5C190.688 277.5 190.5 277.875 190.781 278.438Z" fill="#6C6C6C"/>
<path d="M164.25 282.938C163.688 284.531 163.688 286.219 164.156 286.969C165 288.375 165.281 287.625 165.094 284.531C165 283.219 165.188 283.031 165.75 283.875C166.406 284.813 166.781 284.813 167.813 283.594C168.469 282.844 168.75 281.906 168.375 281.531C168.094 281.25 167.813 281.531 167.813 282.281C167.719 283.219 167.438 283.125 166.5 281.906C165.281 280.313 165.188 280.406 164.25 282.938Z" fill="#6C6C6C"/>
<path d="M161.719 282.188C162 282.656 162.469 283.125 162.75 283.125C162.938 283.125 163.125 282.656 163.125 282.188C163.125 281.625 162.656 281.25 162.094 281.25C161.625 281.25 161.438 281.625 161.719 282.188Z" fill="#6C6C6C"/>
<path d="M180.938 285C180.938 285.469 181.406 285.938 181.969 285.938C182.438 285.938 182.625 285.469 182.344 285C182.062 284.438 181.594 284.062 181.312 284.062C181.125 284.062 180.938 284.438 180.938 285Z" fill="#6C6C6C"/>
<path d="M177.188 285.375C177.188 285.562 177.844 285.937 178.594 286.312C179.344 286.594 180 286.406 180 285.937C180 285.375 179.344 285 178.594 285C177.844 285 177.188 285.187 177.188 285.375Z" fill="#6C6C6C"/>
<path d="M185.625 289.5C185.625 289.875 186.75 290.625 188.062 291.281C189.656 292.031 190.312 292.031 190.125 291.375C189.656 290.156 185.625 288.469 185.625 289.5Z" fill="#6C6C6C"/>
<path d="M210.75 291.938C210.469 293.25 210.656 294.844 211.031 295.5C211.594 296.25 211.875 295.406 211.875 293.156C211.875 289.219 211.312 288.656 210.75 291.938Z" fill="#6C6C6C"/>
<path d="M181.031 292.125C181.031 293.156 181.313 293.437 181.594 292.687C181.875 292.031 181.781 291.187 181.5 290.906C181.219 290.531 180.938 291.094 181.031 292.125Z" fill="#6C6C6C"/>
<path d="M192.188 291.563C192.188 292.031 192.656 292.5 193.125 292.5C193.687 292.5 194.062 293.156 194.062 294.094C194.062 294.938 194.344 295.406 194.625 295.031C195.375 294.281 194.156 290.625 193.031 290.625C192.562 290.625 192.188 291 192.188 291.563Z" fill="#6C6C6C"/>
<path d="M160.875 292.406C160.5 293.062 160.406 293.812 160.687 294.094C161.531 294.937 162.469 293.719 162 292.406C161.625 291.375 161.437 291.375 160.875 292.406Z" fill="#6C6C6C"/>
<path d="M208.125 297C208.125 298.594 207.656 300.187 207.094 300.562C206.438 300.937 206.438 301.406 206.906 301.781C207.375 302.062 208.219 303.094 208.781 304.125C209.531 305.437 209.719 304.687 209.531 300.562C209.438 295.125 208.125 291.937 208.125 297Z" fill="#6C6C6C"/>
<path d="M189.375 296.812C189.375 297.844 188.906 298.125 187.781 297.656C186.469 297.187 186.375 297.375 187.125 298.125C187.969 298.969 188.719 298.969 190.219 298.219C192.469 297 192.844 295.312 190.781 295.312C190.031 295.312 189.375 295.969 189.375 296.812Z" fill="#6C6C6C"/>
<path d="M192.75 301.688C194.344 303.094 195.938 305.063 196.406 306.094C197.156 307.875 197.25 307.875 197.531 305.813C197.813 304.688 198.375 303.75 198.844 303.75C199.406 303.75 199.5 303.281 199.125 302.719C198.75 301.969 198.281 302.063 197.719 302.906C197.063 303.938 196.5 303.75 195.094 301.969C194.156 300.656 192.563 299.531 191.625 299.438C190.313 299.25 190.594 299.813 192.75 301.688Z" fill="#6C6C6C"/>
<path d="M195.469 300C195.844 300.562 196.5 300.75 196.969 300.469C198.281 299.625 198 299.062 196.312 299.062C195.562 299.062 195.187 299.531 195.469 300Z" fill="#6C6C6C"/>
<path d="M221.062 300.656C221.719 300.937 222.562 300.844 222.844 300.562C223.219 300.281 222.656 300 221.625 300.094C220.594 300.094 220.312 300.375 221.062 300.656Z" fill="#6C6C6C"/>
<path d="M221.25 305.625C221.25 306.656 221.906 307.5 222.656 307.5C223.406 307.5 224.062 306.656 224.062 305.625C224.062 304.594 223.406 303.75 222.656 303.75C221.906 303.75 221.25 304.594 221.25 305.625Z" fill="#6C6C6C"/>
<path d="M230.156 307.594C229.031 309.281 230.438 309.656 232.031 308.063C233.344 306.75 233.344 306.563 232.125 306.563C231.375 306.563 230.438 307.031 230.156 307.594Z" fill="#6C6C6C"/>
<path d="M213.75 310.312C213.75 310.781 214.219 311.25 214.688 311.25C215.25 311.25 215.625 310.781 215.625 310.312C215.625 309.75 215.25 309.375 214.688 309.375C214.219 309.375 213.75 309.75 213.75 310.312Z" fill="#6C6C6C"/>
<path d="M191.344 311.812C191.344 312.844 191.625 313.125 191.906 312.375C192.188 311.719 192.094 310.875 191.813 310.594C191.531 310.219 191.25 310.781 191.344 311.812Z" fill="#6C6C6C"/>
<path d="M207.188 313.781C207.281 314.813 211.875 318.094 211.875 317.063C211.875 316.125 208.781 313.125 207.844 313.125C207.469 313.125 207.188 313.406 207.188 313.781Z" fill="#6C6C6C"/>
<path d="M237.562 314.625C237.844 315.375 238.125 316.312 238.125 316.5C238.125 316.781 238.594 316.687 239.062 316.406C240.469 315.562 240.187 314.344 238.5 313.687C237.375 313.219 237.094 313.5 237.562 314.625Z" fill="#6C6C6C"/>
<path d="M236.062 317.531C236.625 317.719 237.187 318.375 237.187 318.844C237.187 319.406 236.812 319.5 236.25 319.219C235.781 318.938 235.312 319.031 235.312 319.5C235.312 321.188 237.937 321.469 239.25 319.875C239.906 319.031 240 318.656 239.437 319.031C238.781 319.406 238.125 319.031 237.75 318.281C237.469 317.531 236.719 316.875 236.062 316.969C235.125 316.969 235.125 317.156 236.062 317.531Z" fill="#6C6C6C"/>
<path d="M243.844 320.344C243.75 320.906 243.469 322.219 243.188 323.156C242.719 324.75 242.719 324.75 243.75 323.156C244.313 322.219 244.594 321 244.313 320.344C244.031 319.5 243.844 319.5 243.844 320.344Z" fill="#6C6C6C"/>
<path d="M284.062 326.156C284.062 326.719 284.438 327.375 285 327.656C285.563 327.938 285.656 327.563 285.375 326.813C284.719 325.125 284.062 324.844 284.062 326.156Z" fill="#6C6C6C"/>
<path d="M298.687 327.75C297.844 330 298.5 330.187 299.812 328.125C300.469 327.094 300.562 326.25 300.094 326.25C299.625 326.25 298.969 326.906 298.687 327.75Z" fill="#6C6C6C"/>
<path d="M114.938 362.062C115.594 363.094 118.125 363 118.125 361.969C118.125 361.406 117.281 361.125 116.344 361.219C115.313 361.219 114.75 361.687 114.938 362.062Z" fill="#6C6C6C"/>
<path d="M114 369C113.156 371.25 113.344 371.625 114.844 370.313C116.437 369 116.719 367.5 115.406 367.5C114.937 367.5 114.281 368.156 114 369Z" fill="#6C6C6C"/>
<path d="M102.656 371.156C101.062 378.375 106.594 390.187 115.781 399.75C119.25 403.312 123.281 407.156 124.781 408.187C126.187 409.312 129.656 411.937 132.375 414.094C138.187 418.687 148.875 424.781 157.031 428.062C160.125 429.375 163.5 430.781 164.531 431.25C168.187 432.937 198.375 442.406 206.25 444.281C223.312 448.5 231.562 448.687 270.937 445.781C284.906 444.844 283.875 443.812 268.594 443.531C260.437 443.437 253.406 443.156 252.937 442.875C252.187 442.406 242.156 440.906 235.312 440.156C233.531 439.969 230.906 439.406 229.5 438.844C228 438.281 226.875 438.187 226.875 438.656C226.875 439.125 225.281 438.656 223.406 437.719C221.437 436.781 219 435.937 217.875 435.937C216.75 435.937 213.937 435.094 211.594 434.156C209.344 433.219 206.906 432.656 206.344 433.125C205.406 433.594 205.5 433.969 206.625 434.344C207.469 434.719 208.125 435.469 208.125 436.125C208.125 437.156 207.937 437.156 207.375 436.125C206.906 435.469 205.875 435.187 205.125 435.469C204.281 435.844 203.344 435.656 203.062 435.094C202.687 434.531 199.875 433.031 196.875 431.625C193.781 430.219 191.25 428.719 191.25 428.344C191.25 427.875 190.5 427.5 189.656 427.5C188.812 427.5 186.844 426.375 185.437 424.969C183.656 423.281 182.812 422.906 182.812 423.844C182.812 424.594 183.281 425.719 183.937 426.375C184.781 427.219 184.594 427.5 183.094 427.5C181.594 427.5 180.937 426.75 180.469 424.687C180.094 423.187 179.437 421.875 178.969 421.875C178.5 421.875 177.562 420.844 177 419.531C176.437 418.219 175.406 417.187 174.844 417.187C174.187 417.187 172.969 416.344 172.031 415.312C171.094 414.187 169.594 413.531 168.844 413.625C168 413.812 166.875 413.062 166.406 412.031C165.844 411 164.437 409.687 163.219 409.125C162.094 408.562 160.594 407.531 160.031 406.969C158.719 405.656 157.219 405.562 157.969 406.875C158.25 407.344 157.969 407.812 157.219 407.812C156.375 407.812 156 406.969 156.094 405.562C156.281 404.344 156 402.844 155.531 402.094C155.062 401.344 154.687 401.25 154.687 401.812C154.687 402.469 153.656 402.656 152.344 402.375C151.031 402.187 150 401.344 150 400.687C150 399.937 149.531 399.375 148.969 399.375C148.5 399.375 148.312 399.75 148.594 400.312C148.875 400.781 148.594 401.25 147.844 401.25C146.906 401.25 146.625 400.594 146.906 399.375C147.281 398.062 147 397.5 146.156 397.687C145.219 397.875 144.937 397.125 145.125 394.781C145.219 392.906 144.844 391.219 144.187 390.75C142.5 389.719 139.5 389.812 140.156 390.937C140.437 391.406 141.375 391.5 142.312 391.219C143.531 390.75 143.625 390.937 142.781 391.875C141.937 392.812 141.094 392.719 138.75 391.5C137.062 390.75 135.281 390.281 134.719 390.656C134.156 391.031 133.969 390.469 134.25 389.25C134.719 387.469 134.437 387.187 132.094 387.187C130.312 387.187 129.375 386.719 129.375 385.781C129.375 385.031 129 384.375 128.437 384.375C127.969 384.375 127.5 384.75 127.5 385.312C127.5 385.781 127.031 386.25 126.562 386.25C125.531 386.25 126.281 381.75 127.594 380.062C128.625 378.75 127.687 377.812 126.094 378.375C125.437 378.656 125.062 379.687 125.344 380.625C125.719 381.937 125.344 382.406 123.844 382.219C121.875 382.125 120.937 380.625 122.812 380.625C124.219 380.625 123.937 378.562 122.156 376.406C120.937 374.906 120.75 374.812 121.219 376.125C121.594 377.25 121.312 377.812 120.469 377.812C119.437 377.812 119.25 377.062 119.719 374.719C120.281 371.437 118.687 372.094 117.844 375.469C117.562 376.687 117.375 376.312 117.281 374.25C117.187 370.125 115.781 370.5 113.344 375.469C111.094 379.875 108.75 381.094 108.75 377.719C108.75 376.5 108 375.562 106.875 375.281C105.844 375 105 374.344 105.094 373.687C105.75 368.625 103.687 366.469 102.656 371.156ZM115.875 377.531C114.844 378.562 114.094 376.969 114.844 375.281C115.594 373.687 115.594 373.687 115.969 375.281C116.25 376.219 116.156 377.25 115.875 377.531ZM122.906 387.469C121.406 388.969 121.031 387.937 122.156 385.312C123 383.25 123.187 383.156 123.469 384.75C123.75 385.687 123.469 386.906 122.906 387.469ZM129.094 391.406C129.844 393.562 128.812 394.125 126.656 392.625C124.687 391.219 124.969 390 127.219 390C127.875 390 128.719 390.656 129.094 391.406ZM177 425.906C177.187 426.937 176.812 427.219 175.406 426.844C173.344 426.375 172.969 425.531 174.094 424.312C175.031 423.375 176.719 424.219 177 425.906ZM183.562 429.656C187.781 430.312 188.156 430.969 185.906 433.031C183.094 435.656 178.406 434.25 176.156 430.219C175.5 428.812 175.594 428.625 176.719 429C177.469 429.375 178.125 429.094 178.125 428.437C178.125 427.594 178.5 427.594 179.344 428.25C179.906 428.719 181.875 429.375 183.562 429.656ZM191.25 434.062C191.25 434.531 190.875 435 190.312 435C189.844 435 189.375 434.531 189.375 434.062C189.375 433.5 189.844 433.125 190.312 433.125C190.875 433.125 191.25 433.5 191.25 434.062ZM220.781 437.812C221.062 438.281 220.687 438.75 219.937 438.75C219.187 438.75 218.25 438.281 217.969 437.812C217.687 437.25 218.062 436.875 218.812 436.875C219.562 436.875 220.5 437.25 220.781 437.812Z" fill="#6C6C6C"/>
<path d="M172.5 413.438C172.5 413.906 172.969 414.375 173.531 414.375C174 414.375 174.188 413.906 173.906 413.438C173.625 412.875 173.156 412.5 172.875 412.5C172.688 412.5 172.5 412.875 172.5 413.438Z" fill="#6C6C6C"/>
<path d="M318.281 432.187C318 432.656 316.687 433.125 315.469 433.125C314.25 433.125 312.937 433.594 312.562 434.25C311.625 435.75 317.25 434.531 319.969 432.656C321.562 431.531 321.656 431.25 320.437 431.25C319.594 431.25 318.562 431.625 318.281 432.187Z" fill="#6C6C6C"/>
<path d="M296.25 440.25C294.469 440.906 292.219 441.469 291.375 441.469C290.531 441.563 289.594 441.938 289.313 442.406C288.656 443.344 297.094 441.469 300.938 439.875C304.5 438.375 300.375 438.656 296.25 440.25Z" fill="#6C6C6C"/>
</svg>
