<?xml version="1.0" standalone="no"?>
<!DOCTYPE svg PUBLIC "-//W3C//DTD SVG 20010904//EN"
 "http://www.w3.org/TR/2001/REC-SVG-20010904/DTD/svg10.dtd">
<svg version="1.0" xmlns="http://www.w3.org/2000/svg"
 width="512.000000pt" height="512.000000pt" viewBox="0 0 512.000000 512.000000"
 preserveAspectRatio="xMidYMid meet">

<g transform="translate(0.000000,512.000000) scale(0.100000,-0.100000)"
fill="#000000" stroke="none">
<path d="M2142 4765 c-86 -16 -176 -57 -198 -91 -23 -34 -20 -88 7 -125 37
-53 85 -68 307 -95 24 -3 42 -7 40 -9 -1 -2 -41 -9 -87 -15 -125 -17 -276 -91
-306 -151 -8 -15 -15 -51 -15 -78 0 -44 4 -54 36 -85 42 -40 73 -53 181 -70
l78 -12 -115 -28 c-63 -15 -122 -31 -130 -37 -12 -8 -11 -9 5 -5 11 2 56 8
100 11 44 4 114 11 155 16 41 6 113 14 160 19 47 4 92 11 100 13 8 3 40 8 70
11 186 18 512 71 490 79 -8 3 -22 7 -30 10 -8 2 3 8 25 12 99 19 177 68 168
106 -7 25 -23 25 -23 0 0 -23 -28 -35 -46 -20 -11 9 -14 8 -14 -3 0 -17 -26
-42 -54 -52 -15 -5 -17 -4 -7 8 10 11 6 17 -20 30 -18 9 -35 14 -37 11 -3 -3
0 -5 6 -5 7 0 12 -5 12 -10 0 -6 -12 -8 -27 -6 -16 3 -46 6 -68 8 -22 1 -49
10 -59 20 -13 12 -35 18 -64 18 -37 0 -43 2 -33 14 8 9 8 16 2 20 -5 4 -13 1
-17 -5 -5 -8 -9 -7 -15 2 -12 20 -1 29 30 23 18 -4 32 -1 36 7 6 9 2 11 -13 7
-25 -7 -39 9 -23 25 8 8 11 8 11 0 0 -16 131 -37 140 -22 6 8 9 8 12 -1 3 -9
13 -8 38 6 35 18 40 20 72 22 24 3 11 31 -19 43 -13 5 -21 14 -18 19 4 6 11 8
16 5 5 -3 18 3 30 13 14 14 17 22 9 27 -6 4 -9 13 -6 21 4 10 -4 14 -30 14
-22 0 -37 6 -40 15 -7 17 -44 21 -44 4 0 -12 -39 -8 -105 11 -22 6 -46 12 -52
12 -7 1 -13 5 -13 10 0 4 -9 8 -20 8 -11 0 -20 -4 -20 -10 0 -19 -39 -10 -45
10 -3 11 -12 21 -18 21 -7 1 -21 3 -32 4 -12 1 -30 7 -42 13 -11 6 -23 8 -27
5 -3 -3 -6 -1 -6 5 0 7 -7 12 -15 12 -8 0 -15 9 -15 21 0 12 -4 17 -11 14 -18
-12 -59 4 -53 20 4 8 1 15 -5 15 -7 0 -14 -7 -17 -15 -7 -17 -25 -3 -37 28 -3
9 -13 17 -22 17 -8 0 -15 4 -15 8 0 4 9 8 20 8 11 0 20 -6 20 -12 0 -18 27
-37 35 -24 3 5 1 10 -6 10 -8 0 -6 6 4 18 20 22 22 58 5 60 -93 12 -162 12
-169 0 -7 -10 -9 -10 -9 0 0 14 -13 14 -108 -3z m842 -409 c-5 -13 -57 -17
-69 -4 -4 3 -1 15 6 26 12 19 15 19 41 6 16 -8 25 -20 22 -28z m-612 -22 c48
-2 99 -9 113 -14 15 -6 37 -10 51 -10 17 0 24 -6 24 -20 0 -10 5 -30 11 -43 9
-21 7 -28 -18 -53 -42 -44 -113 -64 -205 -59 -43 2 -86 8 -96 14 -9 5 -29 7
-43 4 -15 -3 -30 0 -33 6 -4 6 -18 11 -32 11 -14 0 -38 7 -54 15 -17 9 -32 15
-35 15 -42 -1 -44 0 -41 36 2 28 11 44 41 69 35 29 43 31 73 23 22 -6 43 -6
61 1 38 15 64 19 81 14 8 -2 54 -6 102 -9z m346 -8 c-7 -8 -15 -12 -17 -11 -5
6 10 25 20 25 5 0 4 -6 -3 -14z m-718 -56 c0 -5 -4 -10 -10 -10 -5 0 -10 5
-10 10 0 6 5 10 10 10 6 0 10 -4 10 -10z"/>
<path d="M3095 4370 c3 -5 11 -10 16 -10 6 0 7 5 4 10 -3 6 -11 10 -16 10 -6
0 -7 -4 -4 -10z"/>
<path d="M3057 4236 c-4 -10 -5 -21 -2 -24 9 -9 17 6 13 25 -3 17 -4 17 -11
-1z"/>
<path d="M1833 3880 c-17 -10 -37 -28 -43 -39 -6 -12 -17 -21 -26 -21 -11 0
-12 4 -4 19 14 27 13 29 -14 24 -55 -11 -123 -114 -132 -201 -5 -50 -2 -64 23
-112 37 -69 131 -150 209 -179 32 -12 92 -29 134 -37 41 -8 102 -20 134 -26
l59 -11 -64 -18 c-35 -10 -100 -27 -144 -37 l-80 -19 135 4 c130 4 429 22 725
44 164 12 304 36 325 55 10 10 10 14 2 14 -21 0 -13 16 14 28 14 7 22 17 19
23 -5 7 -12 6 -22 -2 -9 -8 -17 -9 -21 -3 -9 12 -138 18 -146 6 -6 -10 -94 1
-123 16 -27 14 -91 3 -96 -17 -4 -15 -5 -15 -6 0 0 9 -13 20 -28 24 -16 4 -34
12 -42 18 -7 6 -26 10 -42 9 -16 -2 -29 1 -29 6 0 14 -46 8 -65 -8 -15 -12
-17 -10 -19 20 -1 10 -12 15 -34 15 -17 0 -32 -3 -32 -7 0 -16 -17 -7 -29 15
l-11 22 6 -22 c6 -27 -16 -32 -36 -8 -14 17 -5 35 17 35 22 0 14 6 -20 14 -19
4 -26 3 -22 -4 3 -5 0 -10 -9 -10 -8 0 -16 6 -18 12 -3 8 -24 13 -55 13 -28 0
-49 3 -47 6 2 4 -3 12 -11 19 -14 12 -55 5 -55 -10 0 -4 -7 -11 -16 -14 -12
-4 -15 -2 -10 9 7 19 -3 47 -15 39 -5 -3 -9 4 -9 15 0 24 -17 31 -47 20 -15
-5 -23 -5 -23 2 0 6 -4 8 -9 4 -5 -3 -12 -1 -16 5 -4 6 -10 8 -15 5 -5 -3 -12
0 -16 6 -13 21 -22 79 -13 85 5 3 9 14 9 24 0 22 -27 17 -32 -6 -2 -8 -8 -10
-16 -5 -14 8 -7 38 11 44 7 2 4 3 -6 1 -9 -1 -21 5 -26 14 -8 15 -11 14 -28
-6 l-18 -23 -2 46 c-1 25 1 45 5 45 8 0 59 39 52 40 -3 0 -19 -9 -37 -20z"/>
<path d="M1393 2993 c-10 -15 -30 -41 -45 -57 -31 -32 -32 -35 -18 -56 6 -10
10 -11 10 -2 0 6 6 12 13 12 6 0 0 -11 -15 -24 -24 -21 -26 -29 -22 -73 5 -59
27 -89 89 -126 89 -52 139 -61 380 -63 384 -3 804 -13 830 -20 28 -7 32 -19 9
-28 -24 -9 -282 -6 -344 5 -157 27 -358 19 -577 -22 -151 -29 -256 -69 -246
-95 5 -14 -12 -20 -20 -6 -2 4 -2 1 0 -6 1 -8 3 -20 3 -27 0 -24 42 -3 52 26
7 20 21 32 51 43 23 8 49 15 57 15 8 0 44 6 80 14 36 8 99 18 140 22 70 7 390
11 435 6 11 -1 73 -2 139 -1 90 2 121 -1 127 -12 6 -10 9 -10 9 0 0 7 14 12
34 12 19 0 37 -6 39 -12 4 -10 7 -10 15 0 10 15 188 7 208 -9 9 -7 20 -7 35 1
15 8 24 9 28 2 4 -6 22 -14 40 -17 27 -5 32 -3 28 10 -5 11 1 15 22 15 37 0
62 -10 55 -21 -3 -5 6 -13 20 -19 29 -11 86 -3 86 12 0 5 -9 7 -19 3 -13 -4
-26 2 -39 15 -15 16 -44 25 -113 36 -164 26 -161 30 37 44 203 13 376 50 454
95 l25 14 -30 0 c-16 0 -49 -4 -73 -8 -26 -5 -45 -5 -49 1 -3 6 -25 8 -52 4
-25 -4 -62 -9 -81 -12 -61 -8 -266 -7 -281 2 -16 10 -49 6 -64 -6 -6 -5 -16
-6 -22 -2 -18 11 -114 5 -126 -7 -15 -15 -42 -14 -56 3 -11 14 -96 24 -216 28
-66 1 -87 6 -80 18 2 4 -15 3 -38 -2 -96 -21 -91 -21 -105 10 -12 27 -16 29
-45 22 -84 -21 -129 -30 -152 -30 -13 0 -29 -8 -34 -17 -6 -10 -11 -12 -11 -6
0 9 -7 10 -23 4 -31 -12 -181 -5 -208 9 -14 8 -24 8 -33 1 -8 -7 -24 -3 -54
14 -24 13 -40 20 -37 15 3 -4 -1 -10 -7 -13 -10 -3 -10 -7 1 -20 17 -22 7 -22
-14 -1 -14 14 -32 21 -107 39 -37 8 -78 40 -78 60 0 11 -4 16 -8 10 -20 -28
-42 -37 -57 -25 -22 18 -18 32 6 25 18 -6 20 -4 14 14 -3 11 1 33 9 49 10 19
12 32 5 39 -6 6 -5 14 6 23 8 7 15 20 15 29 0 9 5 22 12 29 6 6 9 14 6 18 -4
3 -15 -7 -25 -23z m1534 -479 c-3 -3 -12 -4 -19 -1 -8 3 -5 6 6 6 11 1 17 -2
13 -5z"/>
<path d="M1565 2909 c-4 -6 -5 -12 -2 -15 2 -3 7 2 10 11 7 17 1 20 -8 4z"/>
<path d="M2105 2790 c-4 -6 -2 -17 4 -23 15 -15 25 -2 13 19 -7 12 -11 13 -17
4z"/>
<path d="M2980 2486 c0 -9 7 -12 20 -9 11 3 20 9 20 14 0 5 -9 9 -20 9 -11 0
-20 -6 -20 -14z"/>
<path d="M1328 2393 c-105 -60 -187 -149 -222 -240 -57 -150 -17 -275 138
-420 81 -76 192 -138 366 -203 57 -21 106 -43 108 -48 1 -5 -54 -12 -125 -16
-170 -9 -313 -47 -313 -83 0 -23 29 -26 90 -9 87 25 338 39 545 32 173 -6 221
-12 437 -52 85 -16 109 -17 205 -6 59 7 133 17 163 22 120 23 389 70 455 81
39 6 81 18 95 27 14 9 34 21 44 27 30 16 31 35 2 35 -13 0 -28 -5 -31 -10 -5
-8 -11 -7 -20 0 -8 7 -18 9 -23 6 -14 -8 -60 -15 -139 -20 l-73 -5 0 35 c0 19
-4 34 -10 34 -5 0 -10 -18 -10 -40 0 -22 -4 -40 -10 -40 -5 0 -10 3 -10 8 0 4
-11 12 -24 18 -19 9 -25 8 -35 -9 -12 -18 -13 -18 -32 -1 -17 16 -19 16 -19 1
0 -10 -4 -17 -10 -17 -12 0 -12 2 0 34 6 17 6 26 0 26 -6 0 -10 -9 -10 -20 0
-21 -15 -27 -25 -10 -3 6 -1 10 4 10 6 0 11 5 11 10 0 6 -10 10 -23 10 -13 0
-28 5 -34 11 -7 7 -39 12 -72 13 -33 0 -56 3 -51 4 6 2 10 11 10 19 0 13 -3
13 -15 3 -12 -10 -16 -9 -21 5 -5 12 -16 15 -43 13 -31 -3 -36 0 -39 20 -4 27
-19 29 -27 2 -4 -14 -15 -20 -33 -20 l-27 1 23 19 c19 16 21 23 12 40 -6 11
-18 20 -26 20 -12 0 -15 6 -10 25 5 19 2 25 -10 25 -14 0 -15 -8 -10 -47 4
-33 3 -43 -3 -32 -5 8 -12 34 -15 57 -4 33 -2 42 10 42 8 0 13 4 10 9 -3 5
-16 7 -28 3 -16 -4 -19 -2 -13 8 5 8 4 11 -3 6 -6 -3 -15 2 -21 11 -6 10 -11
12 -11 6 0 -21 -25 -15 -55 12 -28 27 -46 29 -53 4 -3 -12 -2 -11 7 1 8 12 15
10 41 -15 16 -16 30 -35 30 -42 0 -7 6 -13 13 -14 6 0 1 -4 -11 -10 -13 -5
-27 -7 -32 -4 -4 3 -11 -2 -14 -11 -11 -27 -7 -52 10 -58 8 -3 12 -10 9 -16
-9 -15 -19 -12 -44 11 -27 25 -42 17 -18 -9 21 -23 22 -42 3 -42 -9 0 -12 7
-9 20 3 11 0 20 -6 20 -6 0 -11 10 -11 23 0 12 -9 30 -20 40 -11 9 -20 24 -20
33 0 10 -6 13 -19 9 -14 -4 -20 1 -24 25 -6 27 -10 30 -41 28 -30 -3 -36 -8
-42 -30 -3 -16 -10 -28 -15 -28 -5 0 -12 -1 -16 -2 -9 -4 -23 63 -16 75 2 4
11 3 19 -4 11 -9 14 -8 14 5 0 27 -2 31 -12 28 -5 -1 -7 2 -4 7 3 5 -2 15 -11
22 -15 12 -16 12 -10 -3 7 -21 -3 -24 -21 -6 -9 9 -12 8 -12 -5 0 -9 8 -20 17
-26 10 -5 15 -13 11 -17 -10 -9 -38 15 -38 32 0 8 -5 14 -10 14 -7 0 -8 -13
-4 -35 4 -24 2 -35 -6 -35 -7 0 -9 8 -5 20 4 12 2 20 -5 20 -6 0 -8 10 -4 25
4 15 2 25 -5 25 -6 0 -11 -7 -11 -16 0 -9 -8 -23 -17 -30 -10 -7 -14 -16 -10
-20 4 -5 12 -2 17 6 7 11 10 8 10 -12 0 -16 -6 -28 -12 -29 -7 0 -23 -2 -35
-5 -25 -4 -40 23 -22 40 9 8 10 6 5 -7 -4 -13 -2 -17 6 -15 7 3 14 20 16 39 2
21 13 43 30 58 17 15 20 22 10 18 -12 -4 -18 -1 -18 8 0 8 -4 15 -9 15 -5 0
-11 9 -14 20 -3 11 -18 25 -34 32 -15 7 -31 17 -35 23 -4 5 -8 -1 -8 -14 0
-20 -2 -21 -15 -11 -8 7 -15 20 -15 29 -1 14 -2 14 -10 0 -5 -9 -5 -31 0 -55
12 -48 12 -63 2 -48 -13 21 -37 21 -54 0 -11 -12 -16 -15 -13 -6 7 20 -6 37
-35 48 l-24 9 28 28 c22 22 30 25 37 14 7 -11 9 -10 9 4 0 10 -11 22 -25 27
-14 5 -25 14 -25 20 0 6 -4 8 -10 5 -5 -3 -10 1 -10 9 0 9 9 16 20 16 11 0 20
-7 20 -16 0 -8 5 -12 10 -9 17 10 -9 35 -35 35 -36 0 -46 -20 -33 -67 8 -35 8
-45 -6 -58 -18 -19 -20 -13 -16 50 2 33 0 37 -13 27 -8 -7 -12 -22 -9 -38 4
-24 3 -25 -17 -13 -12 8 -21 24 -21 39 0 16 3 21 8 13 12 -19 45 7 37 29 -10
24 -30 28 -55 11 -15 -10 -20 -22 -16 -37 2 -11 -2 -30 -10 -40 -8 -11 -14
-14 -14 -8 0 7 -9 21 -20 32 -11 11 -20 26 -19 33 0 9 2 9 6 -1 2 -6 9 -10 14
-7 5 4 6 -1 3 -9 -4 -10 -1 -16 7 -16 7 0 10 3 6 6 -3 3 -1 17 4 31 8 21 7 24
-6 20 -8 -4 -21 2 -29 14 -14 20 -34 10 -21 -10 3 -5 1 -12 -5 -16 -6 -4 -10
6 -10 22 0 24 4 29 25 29 14 0 25 -5 25 -12 0 -7 8 -10 19 -7 27 7 25 70 -2
77 -14 3 -17 1 -12 -12 3 -9 3 -13 -1 -10 -4 4 -16 2 -27 -4 -26 -14 -47 12
-46 56 l1 31 11 -27 c6 -16 14 -28 17 -28 9 0 -5 88 -15 98 -4 4 -6 -3 -3 -15
4 -16 2 -20 -9 -16 -7 3 -13 13 -12 22 3 28 -1 41 -11 41 -5 0 -10 -6 -10 -14
0 -20 -19 -31 -32 -18 -13 13 -4 50 17 77 14 17 16 18 11 2 -3 -11 -2 -16 4
-12 6 3 10 13 10 21 0 8 5 14 11 14 5 0 7 -4 4 -10 -3 -5 -1 -10 4 -10 13 0
14 10 3 26 -5 8 -31 -2 -84 -33z m49 -127 c-2 -6 2 -17 10 -24 14 -14 9 -32
-9 -32 -5 0 -8 6 -5 13 2 6 -6 20 -19 30 -20 15 -24 15 -24 3 0 -8 -5 -18 -11
-21 -19 -12 -21 3 -5 28 12 18 23 23 42 19 13 -2 23 -10 21 -16z m-100 -88
c-3 -8 -6 -5 -6 6 -1 11 2 17 5 13 3 -3 4 -12 1 -19z m133 7 c10 -12 10 -15
-4 -15 -9 0 -16 7 -16 15 0 8 2 15 4 15 2 0 9 -7 16 -15z m-58 -89 c-3 -5 -9
-1 -13 10 -12 31 -10 39 5 19 8 -11 12 -24 8 -29z m65 -18 c-3 -8 -6 -5 -6 6
-1 11 2 17 5 13 3 -3 4 -12 1 -19z m-129 -29 c-3 -8 -7 -3 -11 10 -4 17 -3 21
5 13 5 -5 8 -16 6 -23z m182 -17 c0 -3 -9 3 -20 13 -11 10 -20 23 -20 28 0 6
9 0 20 -13 11 -13 20 -25 20 -28z m23 -57 c10 -14 16 -25 13 -25 -9 0 -46 34
-46 42 0 15 15 7 33 -17z m324 7 c17 -11 -1 -36 -21 -29 -9 4 -16 13 -16 22 0
16 17 20 37 7z m61 -4 c-6 -18 -28 -21 -28 -4 0 9 7 16 16 16 9 0 14 -5 12
-12z m-258 -63 c0 -23 -3 -27 -10 -15 -5 8 -10 29 -10 45 0 23 3 27 10 15 5
-8 10 -28 10 -45z m45 26 c3 -5 1 -12 -4 -15 -5 -3 -11 1 -15 9 -6 16 9 21 19
6z m215 -21 c0 -5 -6 -7 -14 -4 -18 7 -31 -27 -14 -37 7 -4 9 -11 6 -15 -8 -7
-58 40 -58 55 0 5 15 11 33 13 36 4 47 1 47 -12z m-121 -33 c1 -5 -3 -5 -9 -2
-5 3 -10 16 -9 28 0 21 1 21 9 2 5 -11 9 -24 9 -28z m206 -115 c-3 -3 -11 0
-18 7 -9 10 -8 11 6 5 10 -3 15 -9 12 -12z m169 3 c3 -8 15 -15 26 -15 11 0
20 -4 20 -10 0 -16 -23 -11 -47 9 -24 20 -29 31 -14 31 5 0 11 -7 15 -15z
m271 -4 c-3 -5 -1 -12 5 -16 17 -11 11 -35 -9 -35 -25 0 -34 26 -15 45 17 17
28 20 19 6z m-465 -11 c0 -5 -4 -10 -10 -10 -5 0 -10 5 -10 10 0 6 5 10 10 10
6 0 10 -4 10 -10z m200 -30 c0 -3 -5 -12 -10 -20 -8 -13 -10 -12 -10 3 0 10
-4 15 -10 12 -17 -11 -32 5 -20 20 9 11 16 12 31 2 10 -6 19 -14 19 -17z m-83
0 c-1 -11 -5 -20 -9 -20 -4 0 -8 9 -8 20 0 11 4 20 9 20 6 0 9 -9 8 -20z m-79
-26 c9 -19 9 -24 -3 -24 -16 0 -28 17 -30 41 -2 24 20 13 33 -17z m386 12 c-3
-13 -1 -27 5 -30 6 -4 11 -2 11 3 0 6 10 11 23 11 20 -1 21 -2 5 -14 -10 -7
-18 -18 -18 -24 0 -5 -7 -13 -16 -16 -24 -9 -28 -7 -14 9 10 12 10 19 -2 33
-15 18 -13 52 3 52 5 0 7 -11 3 -24z m-139 -6 c3 -5 1 -10 -4 -10 -6 0 -11 5
-11 10 0 6 2 10 4 10 3 0 8 -4 11 -10z m135 -92 c0 -5 -8 -8 -17 -8 -17 0 -53
28 -53 41 0 11 69 -23 70 -33z m-175 12 c3 -5 2 -10 -4 -10 -5 0 -13 5 -16 10
-3 6 -2 10 4 10 5 0 13 -4 16 -10z m222 -12 c-3 -8 -6 -5 -6 6 -1 11 2 17 5
13 3 -3 4 -12 1 -19z m-192 2 c3 -5 1 -10 -4 -10 -6 0 -11 5 -11 10 0 6 2 10
4 10 3 0 8 -4 11 -10z m325 -10 c0 -5 -5 -10 -11 -10 -5 0 -7 5 -4 10 3 6 8
10 11 10 2 0 4 -4 4 -10z m-126 -36 c3 -8 2 -12 -4 -9 -6 3 -10 10 -10 16 0
14 7 11 14 -7z m166 6 c0 -5 -4 -10 -10 -10 -5 0 -10 5 -10 10 0 6 5 10 10 10
6 0 10 -4 10 -10z m151 -41 c-7 -17 -10 -19 -10 -6 -1 9 -8 17 -16 17 -24 0
-17 18 8 22 27 4 30 -2 18 -33z m-121 27 c0 -3 -4 -8 -10 -11 -5 -3 -10 -1
-10 4 0 6 5 11 10 11 6 0 10 -2 10 -4z m167 -21 c8 -9 13 -18 11 -21 -9 -9
-38 8 -38 22 0 18 8 18 27 -1z"/>
<path d="M1496 2373 c-6 -14 -5 -15 5 -6 7 7 10 15 7 18 -3 3 -9 -2 -12 -12z"/>
<path d="M1430 2350 c0 -5 7 -7 15 -4 8 4 15 8 15 10 0 2 -7 4 -15 4 -8 0 -15
-4 -15 -10z"/>
<path d="M1545 2330 c3 -5 8 -10 11 -10 2 0 4 5 4 10 0 6 -5 10 -11 10 -5 0
-7 -4 -4 -10z"/>
<path d="M1470 2317 c0 -7 9 -13 20 -14 11 -1 20 0 20 2 0 2 -9 9 -20 15 -15
8 -20 8 -20 -3z"/>
<path d="M1474 2245 c-18 -14 -18 -14 3 -15 23 0 39 15 25 24 -5 3 -18 -1 -28
-9z"/>
<path d="M1600 2210 c0 -5 5 -10 10 -10 6 0 10 5 10 10 0 6 -4 10 -10 10 -5 0
-10 -4 -10 -10z"/>
<path d="M1560 2154 c0 -8 5 -12 10 -9 6 4 8 11 5 16 -9 14 -15 11 -15 -7z"/>
<path d="M1590 2150 c0 -5 5 -10 10 -10 6 0 10 5 10 10 0 6 -4 10 -10 10 -5 0
-10 -4 -10 -10z"/>
<path d="M2035 2150 c3 -5 8 -10 11 -10 2 0 4 5 4 10 0 6 -5 10 -11 10 -5 0
-7 -4 -4 -10z"/>
<path d="M1752 2102 c-6 -17 -6 -35 -1 -43 9 -15 12 -7 10 26 -1 14 1 16 7 7
7 -10 11 -10 22 3 7 8 10 18 6 22 -3 3 -6 0 -6 -8 -1 -10 -4 -9 -14 4 -13 17
-14 16 -24 -11z"/>
<path d="M1725 2110 c3 -5 8 -10 11 -10 2 0 4 5 4 10 0 6 -5 10 -11 10 -5 0
-7 -4 -4 -10z"/>
<path d="M1930 2080 c0 -5 5 -10 11 -10 5 0 7 5 4 10 -3 6 -8 10 -11 10 -2 0
-4 -4 -4 -10z"/>
<path d="M1890 2076 c0 -2 7 -6 15 -10 8 -3 15 -1 15 4 0 6 -7 10 -15 10 -8 0
-15 -2 -15 -4z"/>
<path d="M1980 2032 c0 -4 12 -12 26 -19 17 -8 24 -8 22 -1 -5 13 -48 31 -48
20z"/>
<path d="M2248 2006 c-3 -14 -1 -31 3 -38 6 -8 9 1 9 25 0 42 -6 48 -12 13z"/>
<path d="M1931 2004 c0 -11 3 -14 6 -6 3 7 2 16 -1 19 -3 4 -6 -2 -5 -13z"/>
<path d="M2050 2010 c0 -5 5 -10 10 -10 6 0 10 -7 10 -17 0 -9 3 -14 6 -10 8
8 -5 47 -17 47 -5 0 -9 -4 -9 -10z"/>
<path d="M1716 2001 c-4 -7 -5 -15 -2 -18 9 -9 19 4 14 18 -4 11 -6 11 -12 0z"/>
<path d="M2220 1952 c0 -17 -5 -34 -11 -38 -7 -4 -7 -9 -2 -13 5 -3 14 -14 20
-25 8 -14 10 -6 8 38 -1 58 -15 92 -15 38z"/>
<path d="M2020 1954 c0 -11 -5 -14 -17 -9 -14 5 -15 3 -7 -5 9 -9 17 -9 33 -1
24 13 28 31 6 31 -8 0 -15 -7 -15 -16z"/>
<path d="M2056 1902 c17 -15 34 -36 39 -47 8 -19 9 -19 12 3 3 12 9 22 14 22
6 0 7 5 3 11 -4 8 -9 7 -15 -2 -7 -11 -13 -9 -28 10 -10 14 -27 26 -37 27 -14
2 -11 -4 12 -24z"/>
<path d="M2085 1920 c4 -6 11 -8 16 -5 14 9 11 15 -7 15 -8 0 -12 -5 -9 -10z"/>
<path d="M2358 1913 c7 -3 16 -2 19 1 4 3 -2 6 -13 5 -11 0 -14 -3 -6 -6z"/>
<path d="M2360 1860 c0 -11 7 -20 15 -20 8 0 15 9 15 20 0 11 -7 20 -15 20 -8
0 -15 -9 -15 -20z"/>
<path d="M2455 1839 c-12 -18 3 -22 20 -5 14 14 14 16 1 16 -8 0 -18 -5 -21
-11z"/>
<path d="M2280 1810 c0 -5 5 -10 10 -10 6 0 10 5 10 10 0 6 -4 10 -10 10 -5 0
-10 -4 -10 -10z"/>
<path d="M2041 1794 c0 -11 3 -14 6 -6 3 7 2 16 -1 19 -3 4 -6 -2 -5 -13z"/>
<path d="M2210 1773 c1 -11 50 -46 50 -35 0 10 -33 42 -43 42 -4 0 -7 -3 -7
-7z"/>
<path d="M2534 1764 c3 -8 6 -18 6 -20 0 -3 5 -2 10 1 15 9 12 22 -6 29 -12 5
-15 2 -10 -10z"/>
<path d="M2518 1733 c6 -2 12 -9 12 -14 0 -6 -4 -7 -10 -4 -5 3 -10 2 -10 -3
0 -18 28 -21 42 -4 7 9 8 13 2 9 -7 -4 -14 0 -18 8 -3 8 -11 15 -18 14 -10 0
-10 -2 0 -6z"/>
<path d="M2601 1703 c-1 -6 -4 -20 -7 -30 -5 -17 -5 -17 6 0 6 10 9 23 6 30
-3 9 -5 9 -5 0z"/>
<path d="M3030 1641 c0 -6 4 -13 10 -16 6 -3 7 1 4 9 -7 18 -14 21 -14 7z"/>
<path d="M3186 1624 c-9 -24 -2 -26 12 -4 7 11 8 20 3 20 -5 0 -12 -7 -15 -16z"/>
<path d="M1226 1258 c7 -11 34 -10 34 1 0 6 -9 9 -19 8 -11 0 -17 -5 -15 -9z"/>
<path d="M1216 1184 c-9 -24 -7 -28 9 -14 17 14 20 30 6 30 -5 0 -12 -7 -15
-16z"/>
<path d="M1095 1161 c-17 -77 42 -203 140 -305 37 -38 80 -79 96 -90 15 -12
52 -40 81 -63 62 -49 176 -114 263 -149 33 -14 69 -29 80 -34 39 -18 361 -119
445 -139 182 -45 270 -47 690 -16 149 10 138 21 -25 24 -87 1 -162 4 -167 7
-8 5 -115 21 -188 29 -19 2 -47 8 -62 14 -16 6 -28 7 -28 2 0 -5 -17 0 -37 10
-21 10 -47 19 -59 19 -12 0 -42 9 -67 19 -24 10 -50 16 -56 11 -10 -5 -9 -9 3
-13 9 -4 16 -12 16 -19 0 -11 -2 -11 -8 0 -5 7 -16 10 -24 7 -9 -4 -19 -2 -22
4 -4 6 -34 22 -66 37 -33 15 -60 31 -60 35 0 5 -8 9 -17 9 -9 0 -30 12 -45 27
-19 18 -28 22 -28 12 0 -8 5 -20 12 -27 9 -9 7 -12 -9 -12 -16 0 -23 8 -28 30
-4 16 -11 30 -16 30 -5 0 -15 11 -21 25 -6 14 -17 25 -23 25 -7 0 -20 9 -30
20 -10 12 -26 19 -34 18 -9 -2 -21 6 -26 17 -6 11 -21 25 -34 31 -12 6 -28 17
-34 23 -14 14 -30 15 -22 1 3 -5 0 -10 -8 -10 -9 0 -13 9 -12 24 2 13 -1 29
-6 37 -5 8 -9 9 -9 3 0 -7 -11 -9 -25 -6 -14 2 -25 11 -25 18 0 8 -5 14 -11
14 -5 0 -7 -4 -4 -10 3 -5 0 -10 -8 -10 -10 0 -13 7 -10 20 4 14 1 20 -8 18
-10 -2 -13 6 -11 31 1 20 -3 38 -10 43 -18 11 -50 10 -43 -2 3 -5 13 -6 23 -3
13 5 14 3 5 -7 -9 -10 -18 -9 -43 4 -18 8 -37 13 -43 9 -6 -4 -8 2 -5 15 5 19
2 22 -23 22 -19 0 -29 5 -29 15 0 8 -4 15 -10 15 -5 0 -10 -4 -10 -10 0 -5 -5
-10 -10 -10 -11 0 -3 48 11 66 11 14 1 24 -16 18 -7 -3 -11 -14 -8 -24 4 -14
0 -19 -16 -17 -21 1 -31 17 -11 17 15 0 12 22 -7 45 -13 16 -15 17 -10 3 4
-12 1 -18 -8 -18 -11 0 -13 8 -8 33 6 35 -11 28 -20 -8 -3 -13 -5 -9 -6 13 -1
44 -16 40 -42 -13 -24 -47 -49 -60 -49 -24 0 13 -8 23 -20 26 -11 3 -20 10
-19 17 7 54 -15 77 -26 27z m141 -68 c-11 -11 -19 6 -11 24 8 17 8 17 12 0 3
-10 2 -21 -1 -24z m75 -106 c-16 -16 -20 -5 -8 23 9 22 11 23 14 6 3 -10 0
-23 -6 -29z m66 -42 c8 -23 -3 -29 -26 -13 -21 15 -18 28 6 28 7 0 16 -7 20
-15z m511 -368 c2 -11 -2 -14 -17 -10 -22 5 -26 14 -14 27 10 10 28 1 31 -17z
m70 -40 c45 -7 49 -14 25 -36 -30 -28 -80 -13 -104 30 -7 15 -6 17 6 13 8 -4
15 -1 15 6 0 9 4 9 13 2 6 -5 27 -12 45 -15z m82 -47 c0 -5 -4 -10 -10 -10 -5
0 -10 5 -10 10 0 6 5 10 10 10 6 0 10 -4 10 -10z m315 -40 c3 -5 -1 -10 -9
-10 -8 0 -18 5 -21 10 -3 6 1 10 9 10 8 0 18 -4 21 -10z"/>
<path d="M1840 710 c0 -5 5 -10 11 -10 5 0 7 5 4 10 -3 6 -8 10 -11 10 -2 0
-4 -4 -4 -10z"/>
<path d="M3395 510 c-3 -5 -17 -10 -30 -10 -13 0 -27 -5 -31 -12 -10 -16 50
-3 79 17 17 12 18 15 5 15 -9 0 -20 -4 -23 -10z"/>
<path d="M3160 424 c-19 -7 -43 -13 -52 -13 -9 -1 -19 -5 -22 -10 -7 -10 83
10 124 27 38 16 -6 13 -50 -4z"/>
</g>
</svg>
